<svg width="30" height="40" viewBox="0 0 40 40" fill="none" xmlns="http://www.w3.org/2000/svg">
<path d="M19.9997 36.6667C22.1888 36.6694 24.3568 36.2395 26.3793 35.4017C28.4017 34.564 30.2387 33.3349 31.7847 31.785C33.3346 30.239 34.5637 28.402 35.4014 26.3796C36.2392 24.3571 36.6691 22.1891 36.6664 20C36.6691 17.8109 36.2392 15.6428 35.4014 13.6204C34.5637 11.598 33.3346 9.76097 31.7847 8.21499C30.2387 6.66513 28.4017 5.43601 26.3793 4.59825C24.3568 3.7605 22.1888 3.33063 19.9997 3.33333C17.8106 3.33063 15.6425 3.7605 13.6201 4.59825C11.5976 5.43601 9.76066 6.66513 8.21469 8.21499C6.66482 9.76097 5.4357 11.598 4.59795 13.6204C3.7602 15.6428 3.33032 17.8109 3.33302 20C3.33032 22.1891 3.7602 24.3571 4.59795 26.3796C5.4357 28.402 6.66482 30.239 8.21469 31.785C9.76066 33.3349 11.5976 34.564 13.6201 35.4017C15.6425 36.2395 17.8106 36.6694 19.9997 36.6667Z" stroke="#5BB656" stroke-width="4" stroke-linejoin="round"/>
<path fill-rule="evenodd" clip-rule="evenodd" d="M19.9993 30.8334C20.5519 30.8334 21.0818 30.6139 21.4725 30.2232C21.8632 29.8325 22.0827 29.3026 22.0827 28.75C22.0827 28.1975 21.8632 27.6676 21.4725 27.2769C21.0818 26.8862 20.5519 26.6667 19.9993 26.6667C19.4468 26.6667 18.9169 26.8862 18.5262 27.2769C18.1355 27.6676 17.916 28.1975 17.916 28.75C17.916 29.3026 18.1355 29.8325 18.5262 30.2232C18.9169 30.6139 19.4468 30.8334 19.9993 30.8334Z" fill="#5BB656"/>
<path d="M20 10V23.3333" stroke="#5BB656" stroke-width="4" stroke-linecap="round" stroke-linejoin="round"/>
</svg>
