<svg width="30" height="40" viewBox="0 0 40 40" fill="none" xmlns="http://www.w3.org/2000/svg">
<path d="M20 4.0625C16.8479 4.0625 13.7665 4.99722 11.1456 6.74845C8.5247 8.49969 6.48195 10.9888 5.27568 13.901C4.06941 16.8132 3.75379 20.0177 4.36874 23.1093C4.98369 26.2008 6.50159 29.0406 8.73049 31.2695C10.9594 33.4984 13.7992 35.0163 16.8908 35.6313C19.9823 36.2462 23.1868 35.9306 26.099 34.7243C29.0112 33.5181 31.5003 31.4753 33.2516 28.8544C35.0028 26.2335 35.9375 23.1521 35.9375 20C35.9325 15.7746 34.2518 11.7238 31.264 8.73597C28.2763 5.74818 24.2254 4.06746 20 4.0625ZM20 34.0625C17.2187 34.0625 14.4999 33.2377 12.1873 31.6925C9.87473 30.1473 8.07231 27.9511 7.00795 25.3815C5.94359 22.8119 5.66511 19.9844 6.20771 17.2565C6.75032 14.5287 8.08964 12.023 10.0563 10.0563C12.023 8.08963 14.5287 6.75031 17.2565 6.20771C19.9844 5.6651 22.8119 5.94359 25.3815 7.00794C27.9511 8.0723 30.1473 9.87473 31.6925 12.1873C33.2378 14.4999 34.0625 17.2187 34.0625 20C34.0584 23.7283 32.5755 27.3028 29.9391 29.9391C27.3028 32.5755 23.7283 34.0584 20 34.0625ZM29.6875 20C29.6875 20.2486 29.5887 20.4871 29.4129 20.6629C29.2371 20.8387 28.9986 20.9375 28.75 20.9375H20C19.7514 20.9375 19.5129 20.8387 19.3371 20.6629C19.1613 20.4871 19.0625 20.2486 19.0625 20V11.25C19.0625 11.0014 19.1613 10.7629 19.3371 10.5871C19.5129 10.4113 19.7514 10.3125 20 10.3125C20.2486 10.3125 20.4871 10.4113 20.6629 10.5871C20.8387 10.7629 20.9375 11.0014 20.9375 11.25V19.0625H28.75C28.9986 19.0625 29.2371 19.1613 29.4129 19.3371C29.5887 19.5129 29.6875 19.7514 29.6875 20Z" fill="#5BB656"/>
</svg>
