<svg width="30" height="40" viewBox="0 0 40 40" fill="none" xmlns="http://www.w3.org/2000/svg">
<g clip-path="url(#clip0_472_805)">
<g clip-path="url(#clip1_472_805)">
<path d="M21 0.150024L2.95312 14.586V17.7891L21 3.35002L39.0469 17.7891V14.586L21 0.150024ZM21 5.15002L6.70312 16.586V36.0469H14.0469C14.0547 33.5235 14.1094 29.836 14.8438 26.5938C15.25 24.8203 15.8516 23.1641 16.8281 21.9063C17.8125 20.6406 19.2266 19.7969 21 19.7969C22.7734 19.7969 24.1875 20.6406 25.1719 21.9063C26.1484 23.1641 26.75 24.8203 27.1562 26.5938C27.8906 29.836 27.9453 33.5235 27.9531 36.0469H35.2969V16.586L21 5.15002ZM13.8047 13.4844C14.1162 13.4923 14.4412 13.5514 14.75 13.6563C15.0944 13.7716 15.4064 13.9395 15.6507 14.1411C15.895 14.3426 16.062 14.5698 16.1328 14.7969H25.8672C25.938 14.5698 26.105 14.3426 26.3493 14.1411C26.5936 13.9395 26.9056 13.7716 27.25 13.6563C27.5588 13.5514 27.8838 13.4923 28.1953 13.4844C28.5297 13.4782 28.8354 13.5315 29.0802 13.6388C29.3249 13.746 29.4997 13.9032 29.5859 14.0938C29.6981 14.3382 29.6581 14.6244 29.4729 14.9037C29.2877 15.183 28.9687 15.4379 28.5703 15.625C28.9152 15.817 29.1823 16.06 29.3327 16.3185C29.483 16.577 29.5088 16.8377 29.4062 17.0625C29.3436 17.2019 29.2333 17.324 29.0819 17.4219C28.9304 17.5198 28.7407 17.5915 28.5237 17.6328C28.3066 17.6742 28.0665 17.6845 27.8171 17.663C27.5677 17.6416 27.3139 17.5888 27.0703 17.5078C26.6836 17.3779 26.3391 17.1821 26.0854 16.948C25.8318 16.7139 25.6816 16.4534 25.6562 16.2031H16.3438C16.3184 16.4534 16.1683 16.7139 15.9146 16.948C15.6609 17.1821 15.3164 17.3779 14.9297 17.5078C14.6861 17.5888 14.4323 17.6416 14.1829 17.663C13.9335 17.6845 13.6934 17.6742 13.4763 17.6328C13.2593 17.5915 13.0696 17.5198 12.9181 17.4219C12.7667 17.324 12.6564 17.2019 12.5938 17.0625C12.4912 16.8377 12.517 16.577 12.6673 16.3185C12.8177 16.06 13.0848 15.817 13.4297 15.625C13.0313 15.4379 12.7123 15.183 12.5271 14.9037C12.3419 14.6244 12.3019 14.3382 12.4141 14.0938C12.5003 13.9032 12.6751 13.746 12.9198 13.6388C13.1646 13.5315 13.4703 13.4782 13.8047 13.4844Z" fill="#5BB656"/>
</g>
</g>
<defs>
<clipPath id="clip0_472_805">
<rect width="40" height="40" fill="white"/>
</clipPath>
<clipPath id="clip1_472_805">
<rect width="40" height="42" fill="white"/>
</clipPath>
</defs>
</svg>
