<svg width="30" height="40" viewBox="0 0 40 40" fill="none" xmlns="http://www.w3.org/2000/svg">
<g clip-path="url(#clip0_472_763)">
<path d="M9.34 4.19999C8.092 4.19999 6.99 5.11979 6.76 6.44279C6.464 8.16059 6 11.2182 6 13.65C6 16.2351 7.272 18.5073 9.19 19.8156C9.732 20.1873 10 20.6661 10 21.0756V21.9366C10 21.9744 9.998 22.0122 9.994 22.05C9.94 22.596 9.692 25.0509 9.458 27.5751C9.228 30.0636 9 32.7201 9 33.6C9 34.7139 9.42143 35.7822 10.1716 36.5698C10.9217 37.3575 11.9391 37.8 13 37.8C14.0609 37.8 15.0783 37.3575 15.8284 36.5698C16.5786 35.7822 17 34.7139 17 33.6C17 32.718 16.772 30.0636 16.542 27.5751C16.371 25.7333 16.1923 23.8923 16.006 22.0521L16 21.9366V21.0756C16 20.664 16.268 20.1852 16.81 19.8156C17.7891 19.1486 18.5938 18.2351 19.1509 17.1583C19.7081 16.0815 20 14.8755 20 13.65C20 11.2182 19.536 8.16059 19.24 6.44279C19.1288 5.81056 18.8095 5.23951 18.3378 4.82952C17.8662 4.41952 17.2723 4.19669 16.66 4.19999C15.98 4.19999 15.36 4.46669 14.892 4.90559C14.3572 4.4492 13.6891 4.20004 13 4.19999C12.282 4.19999 11.624 4.46459 11.108 4.90559C10.6224 4.44967 9.99141 4.19836 9.34 4.19999ZM12 7.34999C12 7.07151 12.1054 6.80444 12.2929 6.60753C12.4804 6.41061 12.7348 6.29999 13 6.29999C13.2652 6.29999 13.5196 6.41061 13.7071 6.60753C13.8946 6.80444 14 7.07151 14 7.34999V13.65C14 13.9285 14.1054 14.1955 14.2929 14.3924C14.4804 14.5894 14.7348 14.7 15 14.7C15.2652 14.7 15.5196 14.5894 15.7071 14.3924C15.8946 14.1955 16 13.9285 16 13.65V6.99299C16 6.90198 16.0171 6.81187 16.0502 6.72779C16.0834 6.64371 16.132 6.56731 16.1933 6.50296C16.2546 6.43861 16.3274 6.38757 16.4074 6.35274C16.4875 6.31791 16.5733 6.29999 16.66 6.29999C16.974 6.29999 17.22 6.52679 17.272 6.81869C17.566 8.52599 18 11.4219 18 13.65C18.0001 14.5258 17.7915 15.3877 17.3933 16.1572C16.9951 16.9267 16.4199 17.5794 15.72 18.0558C14.842 18.6543 14 19.7064 14 21.0756V21.9366C14 22.0486 14.0053 22.1606 14.016 22.2726C14.072 22.8144 14.318 25.263 14.552 27.7788C14.788 30.3303 15 32.8503 15 33.6C15 34.1569 14.7893 34.6911 14.4142 35.0849C14.0391 35.4787 13.5304 35.7 13 35.7C12.4696 35.7 11.9609 35.4787 11.5858 35.0849C11.2107 34.6911 11 34.1569 11 33.6C11 32.8503 11.212 30.3303 11.448 27.7788C11.682 25.263 11.928 22.8144 11.984 22.2726C11.9947 22.1606 12 22.0486 12 21.9366V21.0756C12 19.7064 11.158 18.6543 10.28 18.0558C9.58014 17.5794 9.00491 16.9267 8.60669 16.1572C8.20846 15.3877 7.9999 14.5258 8 13.65C8 11.424 8.434 8.52599 8.728 6.81869C8.75539 6.66995 8.83211 6.53622 8.94452 6.44126C9.05693 6.34629 9.19777 6.29624 9.342 6.29999C9.5167 6.30054 9.68406 6.3738 9.8074 6.5037C9.93074 6.63361 10 6.80956 10 6.99299V13.65C10 13.9285 10.1054 14.1955 10.2929 14.3924C10.4804 14.5894 10.7348 14.7 11 14.7C11.2652 14.7 11.5196 14.5894 11.7071 14.3924C11.8946 14.1955 12 13.9285 12 13.65V7.34999ZM22 13.65C22 11.1437 22.9482 8.74005 24.636 6.96783C26.3239 5.19561 28.6131 4.19999 31 4.19999C31.2652 4.19999 31.5196 4.31061 31.7071 4.50753C31.8946 4.70444 32 4.97151 32 5.24999V19.9038L32.04 20.3742C32.1959 22.261 32.3479 24.1482 32.496 26.0358C32.744 29.2005 33 32.6739 33 33.6C33 34.7139 32.5786 35.7822 31.8284 36.5698C31.0783 37.3575 30.0609 37.8 29 37.8C27.9391 37.8 26.9217 37.3575 26.1716 36.5698C25.4214 35.7822 25 34.7139 25 33.6C25 32.676 25.256 29.2005 25.504 26.0358C25.628 24.4377 25.754 22.8921 25.848 21.7476L25.908 21H25C24.2044 21 23.4413 20.6681 22.8787 20.0774C22.3161 19.4866 22 18.6854 22 17.85V13.65ZM27.996 20.0424L27.954 20.5569L27.84 21.9282C27.746 23.0706 27.62 24.612 27.496 26.208C27.244 29.4357 27 32.7852 27 33.6C27 34.1569 27.2107 34.6911 27.5858 35.0849C27.9609 35.4787 28.4696 35.7 29 35.7C29.5304 35.7 30.0391 35.4787 30.4142 35.0849C30.7893 34.6911 31 34.1569 31 33.6C31 32.7852 30.756 29.4357 30.504 26.208C30.3556 24.3239 30.203 22.4402 30.046 20.5569L30.004 20.0445V20.0424L30 19.95V6.37349C28.3337 6.62602 26.8099 7.50067 25.7079 8.83711C24.6059 10.1735 23.9996 11.8822 24 13.65V17.85C24 18.1285 24.1054 18.3955 24.2929 18.5925C24.4804 18.7894 24.7348 18.9 25 18.9H27C27.1387 18.9 27.2759 18.9303 27.4029 18.989C27.5299 19.0477 27.6438 19.1335 27.7375 19.241C27.8312 19.3484 27.9025 19.4752 27.947 19.6131C27.9915 19.7511 28.0082 19.8973 27.996 20.0424Z" fill="#5BB656"/>
</g>
<defs>
<clipPath id="clip0_472_763">
<rect width="40" height="40" fill="white"/>
</clipPath>
</defs>
</svg>
