<svg width="30" height="40" viewBox="0 0 40 40" fill="none" xmlns="http://www.w3.org/2000/svg">
<path d="M7.51656 18.05C11.5032 15.31 11.8382 10.9217 10.6266 7.97168C10.1266 6.75334 9.87656 6.14334 10.0099 5.82334C10.4916 4.68334 13.9466 3.81668 14.9999 3.33334L21.9532 19.5433C22.9482 21.9767 23.4449 23.1917 23.3116 24.44C23.1782 25.6883 22.4366 26.7767 20.9516 28.9567L16.8849 34.925C15.5766 36.8417 14.8666 37.0333 12.7166 36.1917L8.84323 34.675C7.0599 33.98 6.66656 33.4617 6.66656 31.5333V19.5633C6.66656 18.64 6.64323 18.655 7.51656 18.0533M18.3482 23.3333H18.3332" stroke="#5BB656" stroke-width="1.5" stroke-linecap="round" stroke-linejoin="round"/>
<path d="M20 14.99L25 3.33334M25 3.33334C26.0533 3.81668 29.5083 4.68334 29.99 5.82501C30.1233 6.14168 29.8733 6.75334 29.3733 7.97168C28.1617 10.9217 28.4967 15.31 32.4833 18.0517C33.3567 18.6517 33.3333 18.6383 33.3333 19.5617V31.5317C33.3333 33.46 32.9417 33.9783 31.1567 34.6767L27.2833 36.1917C25.1333 37.0333 24.4217 36.8417 23.1167 34.925L20 30.3533M25 3.33334H15" stroke="#5BB656" stroke-width="1.5" stroke-linecap="round" stroke-linejoin="round"/>
</svg>
