<svg width="53" height="51" viewBox="0 0 53 51" fill="none" xmlns="http://www.w3.org/2000/svg">
<path d="M42.3437 3.87756H10.6547C7.01091 3.87756 4.02966 6.74631 4.02966 10.2526V40.749C4.02966 44.2552 7.01091 47.124 10.6547 47.124H42.347C45.9908 47.124 48.972 44.2552 48.972 40.749V10.2526C48.9687 6.74631 45.9908 3.87756 42.3437 3.87756ZM41.918 26.9598H36.5849V45.527H28.6051V26.9598H24.6135V20.5593H28.6051V16.7184C28.6051 11.4973 30.8576 8.39106 37.2673 8.39106H42.5954V14.79H39.2631C36.7721 14.79 36.6064 15.6873 36.6064 17.3559L36.5849 20.5593H42.6219L41.918 26.9598Z" fill="white"/>
</svg>
