<svg width="48" height="43" viewBox="0 0 48 43" fill="none" xmlns="http://www.w3.org/2000/svg">
<path d="M24 16.168C22.8228 16.168 21.672 16.4807 20.6932 17.0666C19.7144 17.6525 18.9516 18.4852 18.5011 19.4595C18.0506 20.4338 17.9327 21.5059 18.1624 22.5402C18.392 23.5745 18.9589 24.5246 19.7913 25.2703C20.6237 26.016 21.6842 26.5238 22.8388 26.7295C23.9934 26.9353 25.1901 26.8297 26.2777 26.4261C27.3653 26.0226 28.2949 25.3391 28.9489 24.4623C29.6029 23.5855 29.952 22.5546 29.952 21.5C29.952 20.7998 29.798 20.1064 29.4989 19.4595C29.1998 18.8126 28.7614 18.2248 28.2087 17.7297C27.656 17.2346 26.9999 16.8418 26.2777 16.5739C25.5556 16.3059 24.7816 16.168 24 16.168ZM47.832 10.9005C47.8209 9.24005 47.4796 7.59466 46.824 6.0415C46.3423 4.90471 45.5969 3.87235 44.6372 3.01255C43.6774 2.15275 42.525 1.48504 41.256 1.0535C39.5222 0.466222 37.6855 0.160441 35.832 0.1505C32.736 -1.32635e-07 31.824 0 24 0C16.176 0 15.264 -1.32635e-07 12.168 0.1505C10.3145 0.160441 8.47776 0.466222 6.744 1.0535C5.47502 1.48504 4.32263 2.15275 3.36284 3.01255C2.40306 3.87235 1.65772 4.90471 1.176 6.0415C0.520434 7.59466 0.179097 9.24005 0.168 10.9005C-1.65224e-07 13.674 0 14.491 0 21.5C0 28.509 -1.65224e-07 29.326 0.168 32.0995C0.195671 33.7655 0.53644 35.4154 1.176 36.98C1.65289 38.1128 2.39797 39.1397 3.36 39.99C4.31615 40.8544 5.47088 41.522 6.744 41.9465C8.47776 42.5338 10.3145 42.8396 12.168 42.8495C15.264 43 16.176 43 24 43C31.824 43 32.736 43 35.832 42.8495C37.6855 42.8396 39.5222 42.5338 41.256 41.9465C42.5291 41.522 43.6838 40.8544 44.64 39.99C45.602 39.1397 46.3471 38.1128 46.824 36.98C47.4775 35.4188 47.8187 33.7668 47.832 32.0995C48 29.326 48 28.509 48 21.5C48 14.491 48 13.674 47.832 10.9005ZM41.736 28.1005C41.6602 29.4274 41.3441 30.7345 40.8 31.9705C40.3341 33.0018 39.6414 33.9387 38.7632 34.7254C37.8851 35.5121 36.8392 36.1326 35.688 36.55C34.2952 37.0103 32.828 37.2645 31.344 37.3025H16.656C15.172 37.2645 13.7048 37.0103 12.312 36.55C11.1215 36.1545 10.0465 35.5223 9.168 34.701C8.2978 33.9301 7.62613 32.9982 7.2 31.9705C6.68578 30.7236 6.40991 29.408 6.384 28.079V14.921C6.40991 13.592 6.68578 12.2764 7.2 11.0295C7.64153 9.96298 8.34722 9.00002 9.264 8.213C10.1293 7.4387 11.1682 6.83779 12.312 6.45C13.7048 5.98967 15.172 5.73551 16.656 5.6975H31.344C32.828 5.73551 34.2952 5.98967 35.688 6.45C36.8785 6.84554 37.9535 7.47771 38.832 8.299C39.7022 9.06987 40.3739 10.0018 40.8 11.0295C41.3139 12.2772 41.5976 13.5916 41.64 14.921V21.5C41.64 25.929 41.808 26.3805 41.736 28.079V28.1005ZM37.896 12.1045C37.6103 11.41 37.1597 10.7793 36.5755 10.256C35.9913 9.73259 35.2872 9.32899 34.512 9.073C33.4475 8.74246 32.3264 8.58235 31.2 8.6H16.8C15.6678 8.60991 14.5466 8.79916 13.488 9.159C12.7246 9.40336 12.0281 9.79048 11.4446 10.2946C10.8611 10.7988 10.4041 11.4084 10.104 12.083C9.75673 13.0408 9.58649 14.043 9.6 15.05V27.95C9.62511 28.9629 9.83592 29.9653 10.224 30.917C10.5098 31.6115 10.9603 32.2422 11.5445 32.7655C12.1287 33.2889 12.8328 33.6925 13.608 33.9485C14.6323 34.2848 15.7097 34.4735 16.8 34.5075H31.2C32.3322 34.4976 33.4534 34.3083 34.512 33.9485C35.2872 33.6925 35.9913 33.2889 36.5755 32.7655C37.1597 32.2422 37.6103 31.6115 37.896 30.917C38.2977 29.9687 38.5089 28.9642 38.52 27.95V15.05C38.5196 14.0349 38.308 13.0287 37.896 12.083V12.1045ZM24 29.713C22.7972 29.713 21.6062 29.5004 20.4952 29.0874C19.3842 28.6744 18.3751 28.0691 17.5257 27.3062C16.6763 26.5432 16.0033 25.6377 15.5451 24.6414C15.087 23.645 14.8528 22.5775 14.856 21.5C14.856 19.8747 15.3943 18.286 16.4028 16.9349C17.4112 15.5838 18.8445 14.5311 20.5211 13.9101C22.1978 13.2892 24.0424 13.1278 25.8214 13.4464C27.6005 13.7651 29.234 14.5494 30.5152 15.7002C31.7965 16.8509 32.6677 18.3164 33.0188 19.9109C33.3698 21.5055 33.1848 23.1576 32.4872 24.6579C31.7896 26.1583 30.6108 27.4395 29.1 28.3393C27.5892 29.2392 25.8143 29.7173 24 29.713ZM33.6 14.8995C33.0695 14.8492 32.5785 14.6248 32.2216 14.2695C31.8648 13.9142 31.6674 13.4532 31.6674 12.9753C31.6674 12.4973 31.8648 12.0363 32.2216 11.681C32.5785 11.3257 33.0695 11.1013 33.6 11.051C34.1305 11.1013 34.6215 11.3257 34.9784 11.681C35.3352 12.0363 35.5326 12.4973 35.5326 12.9753C35.5326 13.4532 35.3352 13.9142 34.9784 14.2695C34.6215 14.6248 34.1305 14.8492 33.6 14.8995Z" fill="white"/>
</svg>
