<svg width="50" height="42" viewBox="0 0 50 42" fill="none" xmlns="http://www.w3.org/2000/svg">
<path d="M25 0C27.1375 0 29.33 0.0577502 31.455 0.15225L33.965 0.27825L36.3675 0.427875L38.6175 0.588L40.6725 0.756C42.903 0.934215 45.002 1.93314 46.5999 3.57683C48.1978 5.22052 49.192 7.40354 49.4075 9.74137L49.5075 10.857L49.695 13.2457C49.87 15.7211 50 18.4196 50 21C50 23.5804 49.87 26.2789 49.695 28.7543L49.5075 31.143L49.4075 32.2586C49.1919 34.5969 48.1973 36.7802 46.5989 38.424C45.0005 40.0677 42.9009 41.0664 40.67 41.244L38.62 41.4094L36.37 41.5721L33.965 41.7217L31.455 41.8477C29.3046 41.9456 27.1524 41.9963 25 42C22.8476 41.9963 20.6954 41.9456 18.545 41.8477L16.035 41.7217L13.6325 41.5721L11.3825 41.4094L9.3275 41.244C7.09703 41.0658 4.998 40.0669 3.40011 38.4232C1.80222 36.7795 0.807977 34.5965 0.5925 32.2586L0.4925 31.143L0.305 28.7543C0.114582 26.1742 0.0128491 23.5878 0 21C0 18.4196 0.13 15.7211 0.305 13.2457L0.4925 10.857L0.5925 9.74137C0.807893 7.40395 1.80178 5.22126 3.39916 3.57763C4.99654 1.93399 7.09498 0.934805 9.325 0.756L11.3775 0.588L13.6275 0.427875L16.0325 0.27825L18.5425 0.15225C20.6938 0.0544089 22.8467 0.00364765 25 0ZM25 5.25C22.9375 5.25 20.815 5.30775 18.75 5.397L16.305 5.52038L13.9575 5.66475L11.7525 5.82225L9.7325 5.98763C8.67049 6.06569 7.66922 6.53658 6.90665 7.31662C6.14408 8.09665 5.66959 9.13531 5.5675 10.248C5.275 13.4216 5 17.3723 5 21C5 24.6277 5.275 28.5784 5.5675 31.752C5.78 34.041 7.51 35.8207 9.7325 36.0124L11.7525 36.1751L13.9575 36.3326L16.305 36.4796L18.75 36.603C20.815 36.6923 22.9375 36.75 25 36.75C27.0625 36.75 29.185 36.6923 31.25 36.603L33.695 36.4796L36.0425 36.3352L38.2475 36.1777L40.2675 36.0124C41.3295 35.9343 42.3308 35.4634 43.0933 34.6834C43.8559 33.9033 44.3304 32.8647 44.4325 31.752C44.725 28.5784 45 24.6277 45 21C45 17.3723 44.725 13.4216 44.4325 10.248C44.3304 9.13531 43.8559 8.09665 43.0933 7.31662C42.3308 6.53658 41.3295 6.06569 40.2675 5.98763L38.2475 5.82487L36.0425 5.66737L33.695 5.52038L31.25 5.397C29.1678 5.30316 27.0841 5.25415 25 5.25ZM20 14.6344C19.9998 14.3778 20.0594 14.1251 20.1734 13.8982C20.2875 13.6713 20.4526 13.4771 20.6544 13.3325C20.8562 13.1878 21.0886 13.0972 21.3314 13.0683C21.5742 13.0395 21.82 13.0734 22.0475 13.167L22.25 13.272L32.75 19.635C32.9591 19.7617 33.136 19.9395 33.2656 20.1533C33.3953 20.3671 33.4739 20.6106 33.4947 20.8631C33.5156 21.1156 33.4781 21.3697 33.3854 21.6038C33.2928 21.8378 33.1477 22.0449 32.9625 22.2075L32.75 22.365L22.25 28.7306C22.0384 28.8593 21.8001 28.9317 21.5557 28.9415C21.3114 28.9513 21.0685 28.8983 20.8481 28.787C20.6278 28.6757 20.4367 28.5096 20.2915 28.303C20.1463 28.0965 20.0514 27.8558 20.015 27.6019L20 27.3656V14.6344Z" fill="white"/>
</svg>
