<svg width="1440" height="732" viewBox="0 0 1440 732" fill="none" xmlns="http://www.w3.org/2000/svg">
<g clip-path="url(#clip0_665_589)">
<rect width="1440" height="732" fill="white"/>
<path fill-rule="evenodd" clip-rule="evenodd" d="M1346.37 538.932C1342.73 536.245 1338.06 536.291 1334.12 537.568C1330.14 538.852 1326.29 541.52 1323.27 545.087C1320.26 548.655 1318.38 552.778 1317.97 556.699C1317.56 560.576 1318.59 564.841 1322.23 567.528C1325.87 570.215 1330.53 570.17 1334.48 568.892C1338.46 567.608 1342.31 564.94 1345.32 561.373C1348.34 557.805 1350.22 553.682 1350.63 549.761C1351.04 545.884 1350.01 541.619 1346.37 538.932ZM1383.12 566.074C1379.48 563.387 1374.81 563.433 1370.87 564.711C1366.89 565.994 1363.04 568.662 1360.02 572.229C1357.01 575.797 1355.13 579.92 1354.72 583.841C1354.31 587.718 1355.34 591.983 1358.98 594.67C1362.61 597.357 1367.28 597.312 1371.23 596.034C1375.21 594.75 1379.06 592.082 1382.07 588.515C1385.09 584.947 1386.97 580.824 1387.38 576.903C1387.79 573.026 1386.76 568.761 1383.12 566.074ZM1297.16 554.817C1293.52 552.13 1288.85 552.176 1284.91 553.454C1280.93 554.737 1277.07 557.406 1274.06 560.973C1271.05 564.54 1269.17 568.664 1268.76 572.585C1268.35 576.461 1269.38 580.727 1273.01 583.414C1276.65 586.101 1281.32 586.055 1285.26 584.777C1289.25 583.494 1293.1 580.826 1296.11 577.258C1299.12 573.691 1301.01 569.568 1301.42 565.646C1301.83 561.77 1300.8 557.505 1297.16 554.817ZM1337.58 584.674C1328.76 578.16 1318.34 577.938 1309.34 580.566C1300.47 583.147 1292.5 588.601 1287.71 594.27C1282.14 600.876 1282.34 608.479 1285.02 614.935C1287.65 621.289 1292.81 627.05 1298.35 631.143C1303.89 635.236 1311.07 638.602 1318.3 639.515C1325.62 640.447 1333.59 638.875 1339.16 632.269C1343.95 626.6 1347.78 618.085 1348.4 609.413C1349.06 600.616 1346.41 591.193 1337.58 584.674ZM1378.01 614.53C1374.37 611.843 1369.7 611.889 1365.76 613.167C1361.78 614.45 1357.92 617.118 1354.91 620.685C1351.9 624.253 1350.02 628.376 1349.61 632.297C1349.2 636.174 1350.23 640.439 1353.86 643.126C1357.5 645.813 1362.17 645.768 1366.11 644.49C1370.1 643.206 1373.95 640.538 1376.96 636.971C1379.97 633.403 1381.86 629.28 1382.27 625.359C1382.68 621.482 1381.65 617.217 1378.01 614.53Z" fill="#F4F4F4"/>
<path fill-rule="evenodd" clip-rule="evenodd" d="M1399.27 655.215C1397.12 653.558 1394.29 653.383 1391.87 653.927C1389.43 654.473 1387.04 655.799 1385.15 657.662C1383.25 659.526 1382.03 661.749 1381.71 663.922C1381.38 666.07 1381.93 668.497 1384.08 670.154C1386.24 671.811 1389.07 671.986 1391.49 671.442C1393.93 670.896 1396.31 669.571 1398.21 667.707C1400.1 665.843 1401.33 663.621 1401.65 661.448C1401.97 659.3 1401.43 656.873 1399.27 655.215ZM1421.05 671.956C1418.89 670.299 1416.06 670.124 1413.64 670.669C1411.2 671.215 1408.81 672.54 1406.92 674.404C1405.02 676.267 1403.8 678.49 1403.48 680.663C1403.16 682.811 1403.7 685.238 1405.85 686.895C1408.01 688.553 1410.84 688.728 1413.26 688.183C1415.7 687.637 1418.09 686.312 1419.98 684.448C1421.88 682.585 1423.1 680.362 1423.42 678.189C1423.74 676.041 1423.2 673.614 1421.05 671.956ZM1369.12 661.977C1366.96 660.319 1364.13 660.144 1361.71 660.689C1359.27 661.235 1356.89 662.56 1354.99 664.424C1353.1 666.287 1351.87 668.51 1351.55 670.683C1351.23 672.831 1351.77 675.258 1353.93 676.916C1356.08 678.573 1358.91 678.748 1361.33 678.203C1363.77 677.658 1366.16 676.332 1368.05 674.469C1369.95 672.605 1371.17 670.382 1371.49 668.209C1371.82 666.061 1371.27 663.634 1369.12 661.977ZM1393.07 680.392C1387.84 676.374 1381.53 675.803 1376.02 676.885C1370.59 677.946 1365.65 680.651 1362.63 683.612C1359.12 687.063 1359.1 691.319 1360.6 695.041C1362.08 698.703 1365.1 702.143 1368.38 704.668C1371.66 707.193 1375.95 709.381 1380.32 710.202C1384.75 711.037 1389.61 710.501 1393.11 707.05C1396.13 704.088 1398.61 699.495 1399.16 694.678C1399.73 689.791 1398.3 684.413 1393.07 680.392ZM1417.02 698.808C1414.86 697.15 1412.03 696.975 1409.61 697.52C1407.17 698.066 1404.78 699.391 1402.89 701.255C1400.99 703.118 1399.77 705.341 1399.45 707.514C1399.13 709.662 1399.67 712.089 1401.82 713.747C1403.98 715.404 1406.81 715.579 1409.23 715.034C1411.67 714.488 1414.06 713.163 1415.95 711.299C1417.85 709.436 1419.07 707.213 1419.39 705.04C1419.71 702.892 1419.17 700.465 1417.02 698.808Z" fill="#F4F4F4"/>
<path d="M19.4452 43.1624C17.1579 46.5578 16.4415 50.2934 17.296 54.3691C18.1504 58.4449 20.3471 61.7532 23.8861 64.2943C24.4253 64.682 24.8935 64.911 25.2908 64.9814C25.6881 65.0517 25.9177 65.239 25.9796 65.5432C26.0414 65.8474 25.9008 66.0879 25.5575 66.2648C25.2142 66.4417 24.8685 66.7911 24.5205 67.3131C22.2331 70.7086 21.5167 74.4441 22.3712 78.5199C23.2256 82.5956 25.4223 85.904 28.9613 88.445C32.5002 90.986 36.267 91.9636 40.2617 91.3778C44.2564 90.792 47.3974 88.8014 49.6847 85.4059C50.5764 84.0823 51.2108 82.7445 51.5879 81.3926C51.965 80.0407 52.1236 78.6171 52.0637 77.1218L76.6358 73.5183C77.1891 74.9413 77.9187 76.2346 78.8244 77.3984C79.7302 78.5622 80.8721 79.6395 82.2502 80.6303C85.7851 83.1719 89.5519 84.1495 93.5506 83.5631C97.5492 82.9767 100.69 80.9861 102.974 77.5912C105.257 74.1964 105.972 70.4599 105.119 66.3819C104.266 62.3039 102.071 58.9963 98.5328 56.4593C97.9936 56.0716 97.5261 55.8414 97.1304 55.7688C96.7346 55.6961 96.5043 55.51 96.4393 55.2104C96.3743 54.9108 96.5138 54.6694 96.8578 54.4862C97.2018 54.303 97.5486 53.9544 97.8984 53.4405C100.186 50.045 100.901 46.3086 100.044 42.2312C99.1872 38.1537 96.9917 34.8462 93.4576 32.3086C89.9235 29.771 86.1574 28.7923 82.1595 29.3723C78.1616 29.9524 75.0198 31.9442 72.7341 35.3477C71.8425 36.6713 71.2081 38.0091 70.831 39.361C70.4539 40.7129 70.2953 42.1365 70.3552 43.6318L45.7831 47.2353C45.2298 45.8124 44.5002 44.519 43.5944 43.3552C42.6887 42.1914 41.5467 41.1141 40.1687 40.1233C36.6337 37.5817 32.8677 36.603 28.8706 37.1871C24.8735 37.7712 21.7317 39.7629 19.4452 43.1624Z" fill="#F4F4F4"/>
<path d="M111.49 116.401C111.39 119.963 112.489 123.002 114.786 125.519C117.083 128.036 119.957 129.345 123.407 129.446C123.933 129.462 124.344 129.398 124.64 129.254C124.937 129.111 125.17 129.134 125.34 129.323C125.51 129.511 125.518 129.753 125.362 130.048C125.206 130.343 125.122 130.764 125.109 131.31C125.009 134.872 126.108 137.911 128.405 140.428C130.702 142.945 133.575 144.254 137.026 144.355C140.476 144.456 143.418 143.32 145.852 140.946C148.286 138.573 149.553 135.606 149.653 132.044C149.692 130.655 149.552 129.382 149.233 128.225C148.915 127.067 148.42 125.965 147.747 124.917L162.719 110.32C163.692 111.074 164.729 111.649 165.829 112.045C166.929 112.44 168.152 112.658 169.496 112.698C172.943 112.801 175.886 111.665 178.322 109.29C180.758 106.914 182.025 103.947 182.123 100.387C182.22 96.8276 181.121 93.7881 178.824 91.2686C176.527 88.7492 173.654 87.4403 170.206 87.3419C169.68 87.3262 169.269 87.3888 168.973 87.5298C168.677 87.6708 168.443 87.6493 168.273 87.4654C168.103 87.2814 168.094 87.0395 168.248 86.7395C168.401 86.4396 168.487 86.0192 168.504 85.4783C168.604 81.9164 167.504 78.8769 165.205 76.3597C162.906 73.8426 160.033 72.5337 156.588 72.433C153.142 72.3324 150.2 73.4673 147.761 75.8378C145.323 78.2083 144.056 81.1771 143.96 84.744C143.921 86.1325 144.061 87.4056 144.38 88.5632C144.698 89.7207 145.194 90.8231 145.866 91.8705L130.894 106.468C129.921 105.714 128.884 105.139 127.784 104.743C126.684 104.348 125.462 104.13 124.118 104.09C120.67 103.987 117.728 105.122 115.291 107.495C112.855 109.868 111.588 112.836 111.49 116.401Z" fill="#F4F4F4"/>
<path fill-rule="evenodd" clip-rule="evenodd" d="M1079.56 198.709C1077.53 197.151 1075.02 197.208 1072.93 197.985C1070.82 198.766 1068.83 200.361 1067.31 202.479C1065.79 204.597 1064.89 207.035 1064.78 209.345C1064.67 211.629 1065.34 214.132 1067.38 215.689C1069.41 217.247 1071.92 217.19 1074.01 216.413C1076.12 215.632 1078.11 214.038 1079.63 211.919C1081.15 209.801 1082.05 207.363 1082.16 205.053C1082.27 202.77 1081.59 200.267 1079.56 198.709ZM1100.11 214.443C1098.07 212.885 1095.56 212.942 1093.48 213.719C1091.37 214.5 1089.37 216.095 1087.85 218.213C1086.33 220.331 1085.43 222.769 1085.32 225.079C1085.21 227.363 1085.89 229.865 1087.92 231.423C1089.96 232.981 1092.47 232.924 1094.55 232.147C1096.66 231.366 1098.66 229.771 1100.18 227.653C1101.7 225.535 1102.59 223.097 1102.7 220.787C1102.81 218.504 1102.14 216.001 1100.11 214.443ZM1053.53 208.371C1051.49 206.814 1048.98 206.871 1046.9 207.648C1044.79 208.428 1042.79 210.023 1041.27 212.141C1039.75 214.26 1038.86 216.698 1038.75 219.008C1038.63 221.291 1039.31 223.794 1041.34 225.352C1043.38 226.909 1045.89 226.852 1047.97 226.075C1050.08 225.295 1052.08 223.7 1053.6 221.582C1055.12 219.463 1056.01 217.025 1056.13 214.715C1056.24 212.432 1055.56 209.929 1053.53 208.371ZM1076.13 225.679C1071.2 221.903 1065.58 221.839 1060.81 223.443C1056.11 225.019 1051.98 228.279 1049.56 231.645C1046.75 235.568 1047.07 240.039 1048.69 243.821C1050.29 247.542 1053.23 250.899 1056.33 253.272C1059.43 255.644 1063.39 257.579 1067.3 258.07C1071.27 258.571 1075.51 257.595 1078.32 253.673C1080.74 250.306 1082.56 245.272 1082.65 240.165C1082.76 234.985 1081.06 229.458 1076.13 225.679ZM1098.73 242.986C1096.69 241.428 1094.18 241.485 1092.1 242.262C1089.99 243.043 1087.99 244.638 1086.47 246.756C1084.95 248.874 1084.05 251.312 1083.94 253.622C1083.83 255.906 1084.51 258.409 1086.54 259.966C1088.58 261.524 1091.09 261.467 1093.17 260.69C1095.28 259.909 1097.28 258.315 1098.8 256.196C1100.32 254.078 1101.21 251.64 1101.32 249.33C1101.43 247.047 1100.76 244.544 1098.73 242.986Z" fill="#F4F4F4"/>
<path d="M297.311 663.983C294.634 665.358 292.844 667.488 291.94 670.372C291.036 673.257 291.266 676.114 292.63 678.944C292.837 679.376 293.056 679.682 293.285 679.863C293.515 680.044 293.596 680.242 293.527 680.456C293.458 680.671 293.282 680.776 292.999 680.77C292.716 680.765 292.37 680.869 291.961 681.081C289.284 682.456 287.494 684.586 286.59 687.47C285.686 690.355 285.916 693.212 287.28 696.042C288.644 698.872 290.711 700.785 293.481 701.783C296.251 702.781 298.974 702.592 301.651 701.218C302.694 700.682 303.577 700.049 304.301 699.318C305.024 698.588 305.633 697.737 306.127 696.766L323.167 702.903C323.015 703.997 323.022 705.07 323.188 706.121C323.355 707.171 323.703 708.248 324.234 709.351C325.595 712.18 327.662 714.093 330.435 715.092C333.208 716.091 335.931 715.902 338.605 714.527C341.278 713.151 343.068 711.02 343.974 708.135C344.88 705.249 344.651 702.393 343.286 699.566C343.078 699.134 342.86 698.828 342.632 698.646C342.405 698.464 342.323 698.266 342.388 698.053C342.453 697.841 342.629 697.735 342.915 697.736C343.2 697.738 343.547 697.635 343.954 697.428C346.631 696.054 348.421 693.923 349.324 691.037C350.227 688.15 349.998 685.294 348.636 682.468C347.273 679.642 345.207 677.728 342.437 676.725C339.667 675.723 336.943 675.912 334.265 677.292C333.221 677.828 332.338 678.461 331.614 679.191C330.891 679.922 330.282 680.772 329.788 681.744L312.748 675.607C312.9 674.512 312.893 673.44 312.727 672.389C312.561 671.338 312.212 670.262 311.682 669.159C310.32 666.33 308.254 664.416 305.483 663.416C302.712 662.417 299.988 662.606 297.311 663.983Z" fill="#F4F4F4"/>
</g>
<defs>
<clipPath id="clip0_665_589">
<rect width="1440" height="732" fill="white"/>
</clipPath>
</defs>
</svg>
