<svg width="1281" height="314" viewBox="0 0 1281 314" fill="none" xmlns="http://www.w3.org/2000/svg">
<path d="M1114.44 61.2101C1111.52 59.1297 1110.52 56.8857 1111.44 54.4779C1112.35 52.0701 1114.94 50.1529 1119.2 48.7264C1119.84 48.5087 1120.41 48.3839 1120.9 48.3518C1121.38 48.3197 1121.66 48.2138 1121.72 48.0341C1121.79 47.8543 1121.61 47.7075 1121.18 47.5935C1120.75 47.4796 1120.32 47.2627 1119.88 46.943C1116.96 44.8626 1115.96 42.6186 1116.87 40.2108C1117.79 37.803 1120.37 35.8858 1124.63 34.4593C1128.89 33.0328 1133.48 32.5437 1138.4 32.992C1143.32 33.4404 1147.23 34.7047 1150.15 36.7851C1151.29 37.5961 1152.11 38.4091 1152.62 39.2242C1153.12 40.0393 1153.37 40.8916 1153.34 41.7813L1183.6 44.539C1184.24 43.7047 1185.09 42.952 1186.16 42.281C1187.23 41.6099 1188.6 40.9962 1190.26 40.4399C1194.51 39.013 1199.1 38.5239 1204.02 38.9727C1208.95 39.4214 1212.87 40.6858 1215.78 42.7657C1218.69 44.8457 1219.69 47.0902 1218.78 49.4994C1217.87 51.9086 1215.28 53.8253 1211.02 55.2494C1210.38 55.4671 1209.81 55.5927 1209.33 55.6262C1208.84 55.6596 1208.57 55.7648 1208.5 55.9418C1208.43 56.1187 1208.61 56.266 1209.03 56.3838C1209.46 56.5015 1209.9 56.7179 1210.34 57.0328C1213.26 59.1132 1214.26 61.3578 1213.34 63.7665C1212.43 66.1753 1209.84 68.092 1205.59 69.5165C1201.34 70.9411 1196.75 71.4309 1191.83 70.9859C1186.9 70.5409 1182.98 69.2759 1180.07 67.1907C1178.93 66.3797 1178.11 65.5667 1177.6 64.7516C1177.1 63.9366 1176.85 63.0842 1176.88 62.1946L1146.62 59.4368C1145.98 60.2711 1145.13 61.0238 1144.06 61.6949C1142.99 62.366 1141.62 62.9797 1139.96 63.5359C1135.71 64.9629 1131.12 65.4527 1126.2 65.0053C1121.28 64.5579 1117.36 63.2929 1114.44 61.2101Z" fill="white"/>
<path d="M1210.98 14.566C1210.88 12.7801 1211.93 11.258 1214.14 9.99969C1216.35 8.74134 1219.12 8.08951 1222.45 8.04422C1222.95 8.03713 1223.35 8.06975 1223.64 8.14209C1223.92 8.21443 1224.15 8.20341 1224.31 8.10903C1224.48 8.01465 1224.48 7.89339 1224.33 7.74524C1224.18 7.5971 1224.1 7.38619 1224.08 7.11254C1223.98 5.32672 1225.03 3.80463 1227.24 2.54627C1229.45 1.28792 1232.22 0.636092 1235.55 0.590795C1238.88 0.545499 1241.72 1.11954 1244.08 2.3129C1246.43 3.50627 1247.66 4.99587 1247.77 6.78169C1247.81 7.47786 1247.68 8.11586 1247.38 8.69568C1247.07 9.2755 1246.6 9.82742 1245.95 10.3514L1260.45 17.6921C1261.39 17.3155 1262.38 17.0289 1263.45 16.8323C1264.51 16.6357 1265.68 16.5284 1266.98 16.5103C1270.31 16.4638 1273.15 17.0378 1275.51 18.2324C1277.87 19.4269 1279.1 20.9165 1279.21 22.7012C1279.31 24.4858 1278.26 26.0079 1276.05 27.2675C1273.84 28.527 1271.07 29.1788 1267.75 29.2229C1267.24 29.23 1266.84 29.198 1266.55 29.1268C1266.27 29.0557 1266.04 29.0661 1265.88 29.1581C1265.71 29.25 1265.71 29.3713 1265.86 29.5219C1266.01 29.6725 1266.09 29.8834 1266.11 30.1546C1266.22 31.9404 1265.16 33.4625 1262.95 34.7209C1260.74 35.9793 1257.97 36.6311 1254.65 36.6763C1251.32 36.7215 1248.48 36.1481 1246.12 34.956C1243.76 33.7639 1242.52 32.2737 1242.42 30.4854C1242.38 29.7892 1242.51 29.1513 1242.81 28.5714C1243.12 27.9916 1243.59 27.4397 1244.24 26.9157L1229.74 19.575C1228.81 19.9516 1227.81 20.2382 1226.75 20.4348C1225.69 20.6314 1224.51 20.7387 1223.21 20.7569C1219.88 20.8033 1217.04 20.2299 1214.68 19.0366C1212.32 17.8432 1211.09 16.353 1210.98 14.566Z" fill="white"/>
<path d="M661.075 109.228C660.2 107.907 660.389 106.646 661.641 105.446C662.893 104.245 664.871 103.431 667.574 103.004C667.986 102.939 668.325 102.916 668.591 102.936C668.857 102.956 669.037 102.922 669.129 102.832C669.221 102.742 669.173 102.651 668.984 102.558C668.795 102.465 668.634 102.317 668.502 102.115C667.628 100.794 667.816 99.5328 669.069 98.3321C670.321 97.1314 672.298 96.3175 675.001 95.8903C677.704 95.4631 680.282 95.5559 682.735 96.1687C685.188 96.7814 686.852 97.7483 687.726 99.0692C688.067 99.5842 688.241 100.076 688.248 100.545C688.255 101.014 688.11 101.482 687.813 101.95L702.901 105.719C703.501 105.327 704.192 104.995 704.973 104.723C705.753 104.451 706.67 104.232 707.723 104.065C710.423 103.637 713.001 103.73 715.457 104.343C717.912 104.957 719.576 105.923 720.448 107.244C721.32 108.564 721.13 109.825 719.879 111.027C718.627 112.228 716.65 113.042 713.949 113.468C713.537 113.533 713.198 113.556 712.932 113.537C712.667 113.518 712.487 113.552 712.394 113.64C712.3 113.728 712.348 113.82 712.536 113.915C712.724 114.009 712.886 114.157 713.02 114.357C713.895 115.678 713.705 116.939 712.451 118.14C711.197 119.341 709.22 120.155 706.521 120.582C703.822 121.008 701.244 120.916 698.788 120.305C696.332 119.693 694.668 118.726 693.796 117.403C693.455 116.888 693.281 116.396 693.274 115.927C693.267 115.458 693.412 114.99 693.71 114.522L678.621 110.753C678.021 111.145 677.331 111.477 676.55 111.749C675.769 112.021 674.853 112.24 673.8 112.407C671.099 112.835 668.522 112.743 666.067 112.13C663.612 111.518 661.948 110.55 661.075 109.228Z" fill="white"/>
<path fill-rule="evenodd" clip-rule="evenodd" d="M43.6392 245.155C38.8389 246.181 36.3516 248.413 35.5539 250.623C34.7397 252.853 35.4529 255.384 37.5673 257.751C39.6817 260.118 42.9938 262.093 46.8927 263.316C50.7455 264.527 55.7878 265.155 60.5881 264.129C65.3885 263.103 67.8757 260.871 68.6735 258.661C69.4877 256.431 68.7745 253.9 66.6601 251.533C64.5457 249.166 61.2335 247.191 57.3347 245.968C53.4818 244.757 48.4395 244.129 43.6392 245.155ZM92.1272 234.792C87.3269 235.818 84.8396 238.05 84.0419 240.26C83.2277 242.49 83.9409 245.021 86.0553 247.388C88.1697 249.755 91.4818 251.73 95.3807 252.953C99.2335 254.164 104.276 254.792 109.076 253.766C113.876 252.74 116.364 250.508 117.162 248.298C117.976 246.068 117.262 243.537 115.148 241.17C113.034 238.803 109.722 236.828 105.823 235.605C101.97 234.394 96.9275 233.766 92.1272 234.792ZM33.614 272.719C28.8136 273.745 26.3264 275.977 25.5286 278.186C24.7144 280.417 25.4276 282.948 27.542 285.315C29.6564 287.682 32.9686 289.657 36.8674 290.88C40.7203 292.09 45.7626 292.719 50.5629 291.693C55.3632 290.667 57.8505 288.435 58.6482 286.225C59.4624 283.995 58.7492 281.464 56.6348 279.097C54.5204 276.73 51.2083 274.754 47.3094 273.531C43.4566 272.321 38.4143 271.693 33.614 272.719ZM86.9508 261.319C75.3136 263.806 69.4213 268.704 67.2986 273.671C65.1929 278.567 66.598 283.786 69.9581 287.547C73.8733 291.93 81.9758 293.825 90.2154 294.245C98.323 294.659 107.181 293.715 114.493 292.152C121.805 290.589 129.243 288.056 134.126 284.86C139.085 281.62 141.757 277.422 137.841 273.039C134.481 269.277 127.607 265.228 118.832 262.657C109.943 260.038 98.5976 258.83 86.9508 261.319ZM140.288 249.92C135.487 250.946 133 253.178 132.202 255.388C131.388 257.618 132.101 260.149 134.216 262.516C136.33 264.883 139.642 266.858 143.541 268.081C147.394 269.291 152.436 269.92 157.237 268.894C162.037 267.868 164.524 265.636 165.322 263.426C166.136 261.196 165.423 258.665 163.308 256.298C161.194 253.931 157.882 251.956 153.983 250.733C150.13 249.522 145.088 248.894 140.288 249.92Z" fill="white"/>
<path fill-rule="evenodd" clip-rule="evenodd" d="M227.24 276.5C224.871 275.887 222.253 276.112 220.192 276.66C218.108 277.212 216.266 278.158 215.004 279.326C213.742 280.494 213.182 281.772 213.424 282.924C213.662 284.064 214.755 285.251 217.124 285.863C219.493 286.475 222.111 286.251 224.173 285.702C226.256 285.151 228.098 284.205 229.36 283.037C230.622 281.869 231.182 280.591 230.94 279.438C230.702 278.299 229.609 277.112 227.24 276.5ZM251.168 282.685C248.799 282.072 246.181 282.297 244.119 282.845C242.036 283.397 240.193 284.343 238.931 285.511C237.669 286.679 237.109 287.957 237.352 289.109C237.59 290.249 238.683 291.436 241.052 292.048C243.421 292.66 246.039 292.436 248.1 291.887C250.184 291.336 252.026 290.39 253.288 289.222C254.55 288.054 255.11 286.776 254.868 285.623C254.629 284.484 253.536 283.297 251.168 282.685ZM201.503 283.322C199.134 282.71 196.516 282.935 194.455 283.483C192.372 284.034 190.529 284.98 189.267 286.148C188.005 287.316 187.445 288.594 187.688 289.747C187.926 290.886 189.019 292.073 191.388 292.686C193.756 293.298 196.374 293.073 198.436 292.525C200.519 291.974 202.362 291.027 203.624 289.859C204.886 288.691 205.446 287.414 205.203 286.261C204.965 285.122 203.872 283.935 201.503 283.322ZM227.824 290.126C222.081 288.641 216.198 289.049 211.459 290.217C206.784 291.365 202.964 293.303 200.959 295.16C198.622 297.322 199.654 299.512 201.937 301.258C204.182 302.976 207.777 304.408 211.386 305.341C214.994 306.274 219.436 306.922 223.606 306.859C227.836 306.796 232.121 305.981 234.457 303.819C236.463 301.962 237.584 299.326 236.889 296.79C236.199 294.216 233.571 291.611 227.824 290.126ZM254.144 296.929C251.775 296.317 249.157 296.542 247.096 297.09C245.012 297.641 243.17 298.587 241.908 299.755C240.646 300.923 240.086 302.201 240.328 303.354C240.566 304.493 241.659 305.68 244.028 306.293C246.397 306.905 249.015 306.68 251.077 306.132C253.16 305.581 255.002 304.634 256.264 303.466C257.526 302.298 258.086 301.021 257.844 299.868C257.606 298.729 256.513 297.542 254.144 296.929Z" fill="white"/>
<path fill-rule="evenodd" clip-rule="evenodd" d="M1205.14 222.714C1202.77 222.102 1200.15 222.326 1198.09 222.874C1196.01 223.426 1194.17 224.372 1192.91 225.54C1191.64 226.708 1191.08 227.986 1191.33 229.138C1191.56 230.278 1192.66 231.465 1195.03 232.077C1197.39 232.689 1200.01 232.465 1202.07 231.917C1204.16 231.365 1206 230.419 1207.26 229.251C1208.52 228.083 1209.08 226.805 1208.84 225.653C1208.6 224.513 1207.51 223.326 1205.14 222.714ZM1229.07 228.899C1226.7 228.287 1224.08 228.511 1222.02 229.059C1219.94 229.611 1218.09 230.557 1216.83 231.725C1215.57 232.893 1215.01 234.171 1215.25 235.323C1215.49 236.463 1216.58 237.65 1218.95 238.262C1221.32 238.874 1223.94 238.65 1226 238.102C1228.08 237.55 1229.93 236.604 1231.19 235.436C1232.45 234.268 1233.01 232.99 1232.77 231.838C1232.53 230.698 1231.44 229.511 1229.07 228.899ZM1179.4 229.536C1177.04 228.924 1174.42 229.149 1172.36 229.697C1170.27 230.248 1168.43 231.195 1167.17 232.363C1165.91 233.531 1165.35 234.808 1165.59 235.961C1165.83 237.1 1166.92 238.287 1169.29 238.9C1171.66 239.512 1174.28 239.287 1176.34 238.739C1178.42 238.188 1180.26 237.242 1181.53 236.074C1182.79 234.906 1183.35 233.628 1183.1 232.475C1182.87 231.336 1181.77 230.149 1179.4 229.536ZM1205.72 236.34C1199.98 234.856 1194.1 235.263 1189.36 236.431C1184.69 237.579 1180.87 239.517 1178.86 241.374C1176.52 243.537 1177.56 245.726 1179.84 247.472C1182.08 249.19 1185.68 250.622 1189.29 251.555C1192.9 252.488 1197.34 253.136 1201.51 253.073C1205.74 253.011 1210.02 252.196 1212.36 250.033C1214.36 248.176 1215.49 245.541 1214.79 243.004C1214.1 240.43 1211.47 237.826 1205.72 236.34ZM1232.05 243.143C1229.68 242.531 1227.06 242.756 1225 243.304C1222.91 243.855 1221.07 244.802 1219.81 245.97C1218.55 247.138 1217.99 248.415 1218.23 249.568C1218.47 250.707 1219.56 251.894 1221.93 252.507C1224.3 253.119 1226.92 252.894 1228.98 252.346C1231.06 251.795 1232.9 250.849 1234.17 249.681C1235.43 248.513 1235.99 247.235 1235.75 246.082C1235.51 244.943 1234.41 243.756 1232.05 243.143Z" fill="white"/>
</svg>
