<svg width="1440" height="1306" viewBox="0 0 1440 1306" fill="none" xmlns="http://www.w3.org/2000/svg">
<g clip-path="url(#clip0_660_1724)">
<rect width="1440" height="1306" fill="#F4F4F4"/>
<path fill-rule="evenodd" clip-rule="evenodd" d="M1342.56 987.472C1338.82 984.409 1334.85 984.892 1331.8 986.864C1328.71 988.847 1326.07 992.567 1324.35 997.346C1322.64 1002.13 1322.02 1007.5 1322.61 1012.49C1323.19 1017.43 1325.08 1022.72 1328.83 1025.78C1332.57 1028.84 1336.54 1028.36 1339.59 1026.39C1342.68 1024.41 1345.32 1020.69 1347.03 1015.91C1348.75 1011.13 1349.36 1005.75 1348.78 1000.76C1348.2 995.828 1346.3 990.535 1342.56 987.472ZM1380.36 1018.41C1376.61 1015.35 1372.65 1015.83 1369.59 1017.8C1366.51 1019.78 1363.86 1023.5 1362.15 1028.28C1360.44 1033.06 1359.82 1038.44 1360.41 1043.43C1360.99 1048.36 1362.88 1053.66 1366.62 1056.72C1370.37 1059.78 1374.33 1059.3 1377.39 1057.33C1380.47 1055.34 1383.12 1051.62 1384.83 1046.84C1386.54 1042.06 1387.16 1036.69 1386.57 1031.7C1386 1026.76 1384.1 1021.47 1380.36 1018.41ZM1304.43 1012.01C1300.69 1008.95 1296.72 1009.43 1293.67 1011.4C1290.58 1013.38 1287.94 1017.1 1286.23 1021.88C1284.51 1026.66 1283.9 1032.04 1284.48 1037.03C1285.06 1041.96 1286.96 1047.26 1290.7 1050.32C1294.44 1053.38 1298.41 1052.9 1301.46 1050.93C1304.55 1048.94 1307.19 1045.22 1308.91 1040.45C1310.62 1035.67 1311.24 1030.29 1310.65 1025.3C1310.07 1020.37 1308.17 1015.07 1304.43 1012.01ZM1346.01 1046.04C1336.94 1038.61 1328.01 1039.28 1320.97 1043.42C1314.03 1047.49 1308.54 1055.1 1305.82 1062.69C1302.65 1071.54 1304.64 1081.13 1308.46 1089.04C1312.22 1096.82 1317.99 1103.63 1323.69 1108.29C1329.39 1112.96 1336.32 1116.56 1342.69 1117.05C1349.16 1117.56 1355.56 1114.85 1358.74 1106C1361.46 1098.41 1362.68 1087.31 1361.14 1076.3C1359.6 1065.13 1355.09 1053.47 1346.01 1046.04ZM1387.59 1080.07C1383.84 1077.01 1379.88 1077.49 1376.82 1079.46C1373.74 1081.44 1371.09 1085.16 1369.38 1089.94C1367.67 1094.72 1367.05 1100.1 1367.64 1105.09C1368.22 1110.02 1370.11 1115.32 1373.85 1118.38C1377.6 1121.44 1381.56 1120.96 1384.62 1118.99C1387.7 1117 1390.35 1113.28 1392.06 1108.5C1393.77 1103.72 1394.39 1098.35 1393.8 1093.36C1393.23 1088.42 1391.33 1083.13 1387.59 1080.07Z" fill="white"/>
<path fill-rule="evenodd" clip-rule="evenodd" d="M1416.87 1139.2C1415.65 1136.63 1413.15 1135.96 1410.72 1136.33C1408.27 1136.69 1405.52 1138.11 1402.98 1140.34C1400.43 1142.56 1398.35 1145.37 1397.1 1148.25C1395.86 1151.1 1395.28 1154.46 1396.51 1157.02C1397.73 1159.59 1400.22 1160.26 1402.66 1159.89C1405.11 1159.53 1407.86 1158.11 1410.4 1155.88C1412.95 1153.66 1415.03 1150.85 1416.28 1147.97C1417.52 1145.12 1418.1 1141.76 1416.87 1139.2ZM1429.26 1165.11C1428.03 1162.54 1425.54 1161.87 1423.1 1162.24C1420.65 1162.6 1417.9 1164.02 1415.36 1166.25C1412.82 1168.47 1410.73 1171.28 1409.48 1174.16C1408.24 1177.01 1407.66 1180.37 1408.89 1182.93C1410.11 1185.5 1412.61 1186.17 1415.04 1185.8C1417.5 1185.44 1420.25 1184.02 1422.79 1181.79C1425.33 1179.57 1427.42 1176.76 1428.67 1173.88C1429.91 1171.03 1430.48 1167.67 1429.26 1165.11ZM1386.53 1143.7C1385.3 1141.14 1382.81 1140.47 1380.38 1140.83C1377.92 1141.2 1375.17 1142.62 1372.63 1144.84C1370.09 1147.06 1368 1149.88 1366.75 1152.76C1365.51 1155.6 1364.93 1158.96 1366.16 1161.53C1367.39 1164.09 1369.88 1164.76 1372.31 1164.4C1374.77 1164.03 1377.52 1162.61 1380.06 1160.39C1382.6 1158.16 1384.69 1155.35 1385.94 1152.47C1387.18 1149.62 1387.76 1146.27 1386.53 1143.7ZM1400.15 1172.2C1397.18 1165.99 1391.7 1164.25 1386.22 1164.87C1380.83 1165.46 1375.15 1168.36 1371.11 1171.89C1366.41 1176.01 1364.51 1181.74 1364.23 1186.99C1363.96 1192.16 1365.18 1197.26 1367.05 1201.17C1368.92 1205.07 1371.85 1208.68 1375.45 1210.46C1379.1 1212.26 1383.74 1212.28 1388.45 1208.16C1392.49 1204.63 1396.76 1198.82 1399.38 1192.4C1402.05 1185.9 1403.12 1178.43 1400.15 1172.2ZM1413.77 1200.71C1412.55 1198.14 1410.05 1197.47 1407.62 1197.84C1405.16 1198.2 1402.41 1199.62 1399.87 1201.84C1397.33 1204.07 1395.24 1206.88 1393.99 1209.76C1392.75 1212.61 1392.18 1215.96 1393.4 1218.53C1394.63 1221.09 1397.12 1221.76 1399.55 1221.4C1402.01 1221.03 1404.76 1219.61 1407.3 1217.39C1409.84 1215.17 1411.93 1212.36 1413.18 1209.47C1414.42 1206.63 1415 1203.27 1413.77 1200.71Z" fill="white"/>
<path d="M17.6663 202.259C15.35 207.427 14.6245 213.113 15.4898 219.317C16.3551 225.52 18.5796 230.556 22.1633 234.423C22.7094 235.013 23.1836 235.362 23.5859 235.469C23.9882 235.576 24.2206 235.861 24.2833 236.324C24.346 236.787 24.2035 237.153 23.8559 237.423C23.5083 237.692 23.1582 238.224 22.8058 239.018C20.4895 244.186 19.764 249.872 20.6293 256.076C21.4946 262.279 23.7191 267.315 27.3028 271.183C30.8865 275.05 34.701 276.538 38.7462 275.647C42.7914 274.755 45.9722 271.725 48.2885 266.557C49.1914 264.542 49.8338 262.506 50.2157 260.448C50.5976 258.391 50.7582 256.224 50.6975 253.948L75.5806 248.463C76.1409 250.629 76.8797 252.597 77.7969 254.369C78.7142 256.14 79.8705 257.78 81.266 259.288C84.8457 263.156 88.6602 264.644 92.7094 263.752C96.7587 262.859 99.9394 259.83 102.252 254.662C104.564 249.495 105.288 243.808 104.425 237.601C103.561 231.394 101.338 226.359 97.7547 222.498C97.2087 221.908 96.7353 221.558 96.3345 221.447C95.9338 221.336 95.7005 221.053 95.6347 220.597C95.5689 220.141 95.7102 219.774 96.0585 219.495C96.4068 219.216 96.7581 218.685 97.1123 217.903C99.4286 212.735 100.153 207.048 99.2851 200.842C98.4174 194.635 96.1941 189.601 92.6153 185.739C89.0364 181.876 85.2227 180.387 81.1742 181.27C77.1257 182.152 73.9441 185.184 71.6296 190.364C70.7266 192.379 70.0842 194.415 69.7023 196.473C69.3204 198.531 69.1598 200.698 69.2205 202.974L44.3375 208.458C43.7771 206.292 43.0383 204.324 42.1211 202.553C41.2039 200.781 40.0475 199.141 38.652 197.633C35.0723 193.765 31.2586 192.275 27.2109 193.164C23.1633 194.053 19.9817 197.085 17.6663 202.259Z" fill="white"/>
<path d="M110.876 313.733C110.775 319.155 111.887 323.781 114.213 327.612C116.539 331.443 119.449 333.436 122.943 333.589C123.476 333.613 123.892 333.516 124.192 333.298C124.492 333.079 124.729 333.114 124.901 333.401C125.073 333.689 125.081 334.057 124.923 334.506C124.765 334.955 124.68 335.595 124.667 336.426C124.566 341.847 125.678 346.474 128.004 350.305C130.33 354.136 133.24 356.128 136.734 356.282C140.228 356.435 143.207 354.706 145.672 351.094C148.137 347.482 149.42 342.965 149.521 337.543C149.561 335.43 149.419 333.492 149.097 331.73C148.774 329.968 148.272 328.29 147.591 326.696L162.753 304.478C163.738 305.626 164.788 306.501 165.902 307.103C167.016 307.705 168.254 308.036 169.615 308.098C173.106 308.255 176.086 306.525 178.553 302.91C181.02 299.294 182.303 294.778 182.402 289.36C182.501 283.942 181.387 279.315 179.061 275.48C176.735 271.646 173.826 269.653 170.335 269.504C169.802 269.48 169.386 269.575 169.086 269.79C168.786 270.004 168.549 269.971 168.377 269.691C168.204 269.411 168.196 269.043 168.351 268.587C168.507 268.13 168.593 267.49 168.611 266.667C168.712 261.246 167.598 256.619 165.27 252.788C162.942 248.957 160.033 246.964 156.544 246.811C153.055 246.658 150.075 248.385 147.606 251.994C145.136 255.602 143.853 260.12 143.757 265.549C143.717 267.663 143.859 269.601 144.181 271.362C144.504 273.124 145.006 274.802 145.687 276.396L130.525 298.614C129.539 297.467 128.49 296.592 127.376 295.99C126.261 295.388 125.024 295.056 123.663 294.995C120.171 294.838 117.192 296.565 114.725 300.177C112.258 303.789 110.975 308.308 110.876 313.733Z" fill="white"/>
<path fill-rule="evenodd" clip-rule="evenodd" d="M1091.2 439.013C1089.14 436.642 1086.59 436.728 1084.48 437.911C1082.35 439.099 1080.33 441.527 1078.79 444.751C1077.25 447.975 1076.34 451.686 1076.23 455.202C1076.12 458.677 1076.8 462.487 1078.86 464.858C1080.92 467.229 1083.46 467.142 1085.57 465.959C1087.71 464.771 1089.73 462.344 1091.27 459.12C1092.81 455.895 1093.72 452.185 1093.83 448.669C1093.94 445.193 1093.26 441.383 1091.2 439.013ZM1112 462.961C1109.94 460.59 1107.4 460.676 1105.29 461.859C1103.15 463.047 1101.13 465.475 1099.59 468.699C1098.05 471.923 1097.15 475.634 1097.03 479.15C1096.92 482.625 1097.6 486.435 1099.66 488.806C1101.72 491.177 1104.27 491.09 1106.38 489.907C1108.51 488.719 1110.54 486.292 1112.07 483.068C1113.61 479.844 1114.52 476.133 1114.63 472.617C1114.75 469.141 1114.06 465.332 1112 462.961ZM1064.83 453.72C1062.77 451.349 1060.23 451.435 1058.12 452.618C1055.99 453.806 1053.96 456.233 1052.42 459.458C1050.88 462.682 1049.98 466.393 1049.87 469.909C1049.75 473.384 1050.44 477.194 1052.5 479.565C1054.56 481.936 1057.1 481.849 1059.21 480.666C1061.34 479.478 1063.37 477.051 1064.91 473.827C1066.45 470.602 1067.35 466.891 1067.46 463.376C1067.58 459.9 1066.89 456.09 1064.83 453.72ZM1087.72 480.063C1082.73 474.315 1077.04 474.218 1072.21 476.66C1067.45 479.058 1063.26 484.02 1060.82 489.144C1057.97 495.114 1058.3 501.921 1059.94 507.676C1061.56 513.341 1064.53 518.45 1067.67 522.061C1070.81 525.672 1074.82 528.617 1078.78 529.364C1082.8 530.127 1087.1 528.642 1089.95 522.671C1092.39 517.548 1094.23 509.884 1094.32 502.112C1094.43 494.227 1092.72 485.815 1087.72 480.063ZM1110.61 506.406C1108.55 504.035 1106 504.121 1103.89 505.304C1101.76 506.492 1099.73 508.919 1098.19 512.144C1096.66 515.368 1095.75 519.079 1095.64 522.595C1095.52 526.07 1096.21 529.88 1098.27 532.251C1100.33 534.622 1102.87 534.535 1104.98 533.352C1107.12 532.164 1109.14 529.737 1110.68 526.513C1112.22 523.288 1113.12 519.577 1113.24 516.062C1113.35 512.586 1112.66 508.776 1110.61 506.406Z" fill="white"/>
<path d="M284.36 1127.04C280.788 1129.8 278.264 1133.65 276.788 1138.6C275.313 1143.56 275.29 1148.26 276.72 1152.71C276.938 1153.39 277.183 1153.86 277.457 1154.12C277.73 1154.38 277.811 1154.7 277.699 1155.07C277.588 1155.43 277.351 1155.64 276.99 1155.68C276.629 1155.72 276.175 1155.96 275.629 1156.38C272.056 1159.14 269.532 1162.99 268.057 1167.94C266.582 1172.89 266.559 1177.6 267.988 1182.05C269.418 1186.51 271.848 1189.32 275.277 1190.48C278.707 1191.65 282.208 1190.85 285.781 1188.09C287.174 1187.02 288.373 1185.81 289.378 1184.47C290.384 1183.13 291.256 1181.61 291.996 1179.91L313.093 1187.07C312.777 1188.91 312.667 1190.69 312.763 1192.4C312.859 1194.12 313.185 1195.85 313.741 1197.58C315.167 1202.04 317.597 1204.85 321.03 1206.01C324.463 1207.18 327.964 1206.38 331.534 1203.62C335.103 1200.86 337.626 1197.01 339.104 1192.05C340.582 1187.1 340.605 1182.4 339.174 1177.95C338.956 1177.27 338.712 1176.8 338.441 1176.54C338.17 1176.28 338.088 1175.96 338.194 1175.6C338.301 1175.23 338.537 1175.03 338.902 1174.98C339.267 1174.93 339.722 1174.7 340.265 1174.28C343.838 1171.52 346.361 1167.67 347.836 1162.71C349.31 1157.76 349.333 1153.06 347.906 1148.61C346.478 1144.16 344.049 1141.35 340.62 1140.18C337.191 1139 333.688 1139.8 330.113 1142.57C328.72 1143.65 327.521 1144.85 326.515 1146.19C325.51 1147.54 324.638 1149.06 323.898 1150.76L302.801 1143.6C303.117 1141.75 303.227 1139.97 303.131 1138.26C303.035 1136.54 302.709 1134.82 302.153 1133.08C300.727 1128.63 298.298 1125.82 294.868 1124.65C291.437 1123.48 287.934 1124.28 284.36 1127.04Z" fill="white"/>
</g>
<defs>
<clipPath id="clip0_660_1724">
<rect width="1440" height="1306" fill="white"/>
</clipPath>
</defs>
</svg>
