<svg width="1440" height="2723" viewBox="0 0 1440 2723" fill="none" xmlns="http://www.w3.org/2000/svg">
<rect width="1440" height="2723" fill="#F4F4F4"/>
<path d="M109.254 83.0636C106.711 89.598 106.289 96.4418 107.987 103.595C109.685 110.748 113.047 116.267 118.073 120.15C118.838 120.743 119.488 121.064 120.022 121.114C120.557 121.164 120.886 121.457 121.01 121.991C121.134 122.525 120.982 122.984 120.554 123.367C120.126 123.751 119.719 124.444 119.332 125.448C116.79 131.982 116.367 138.826 118.065 145.979C119.764 153.133 123.125 158.651 128.151 162.534C133.176 166.418 138.284 167.451 143.473 165.633C148.662 163.815 152.528 159.639 155.07 153.105C156.062 150.558 156.712 148.035 157.02 145.535C157.328 143.036 157.338 140.45 157.05 137.777L188.969 126.596C189.898 129.045 191.042 131.227 192.4 133.142C193.758 135.058 195.416 136.773 197.373 138.288C202.393 142.173 207.5 143.206 212.695 141.386C217.889 139.567 221.755 135.391 224.292 128.858C226.83 122.326 227.251 115.481 225.554 108.323C223.858 101.165 220.498 95.6484 215.474 91.7721C214.708 91.1794 214.059 90.8558 213.527 90.8013C212.994 90.7467 212.664 90.4567 212.537 89.9313C212.409 89.4059 212.559 88.9458 212.988 88.5509C213.416 88.156 213.825 87.4637 214.214 86.4741C216.757 79.9397 217.178 73.0946 215.476 65.9387C213.775 58.7828 210.415 53.2658 205.396 49.3877C200.377 45.5096 195.271 44.4745 190.077 46.2824C184.882 48.0903 181.016 52.2685 178.476 58.817C177.485 61.3642 176.835 63.8876 176.527 66.387C176.219 68.8863 176.209 71.4725 176.497 74.1455L144.578 85.3259C143.649 82.8774 142.505 80.6954 141.147 78.7797C139.789 76.864 138.131 75.1489 136.174 73.6344C131.154 69.7492 126.047 68.7141 120.855 70.5291C115.662 72.344 111.795 76.5222 109.254 83.0636Z" fill="white"/>
<path d="M26.9532 413.583C27.7955 426.415 31.9749 437.019 39.4914 445.396C47.008 453.773 55.8256 457.639 65.9443 456.995C67.4869 456.898 68.6686 456.549 69.4896 455.947C70.3107 455.345 71 455.358 71.5576 455.987C72.1151 456.616 72.2134 457.484 71.8523 458.589C71.4912 459.695 71.3785 461.231 71.5144 463.197C72.3567 476.029 76.5361 486.633 84.0527 495.01C91.5692 503.387 100.387 507.253 110.506 506.609C120.624 505.964 128.864 501.022 135.224 491.782C141.584 482.543 144.343 471.507 143.501 458.675C143.173 453.672 142.359 449.137 141.059 445.07C139.759 441.002 137.96 437.184 135.66 433.616L174.784 376.78C177.869 379.207 181.082 380.97 184.424 382.071C187.767 383.171 191.409 383.597 195.351 383.35C205.463 382.715 213.703 377.772 220.069 368.523C226.436 359.274 229.195 348.239 228.346 335.416C227.498 322.593 223.315 311.989 215.798 303.603C208.281 295.218 199.466 291.351 189.355 292.004C187.813 292.101 186.63 292.446 185.809 293.039C184.987 293.632 184.298 293.623 183.742 293.012C183.185 292.4 183.084 291.533 183.437 290.41C183.79 289.287 183.906 287.751 183.785 285.802C182.943 272.97 178.76 262.366 171.236 253.989C163.713 245.613 154.899 241.747 144.794 242.39C134.689 243.034 126.449 247.971 120.075 257.203C113.7 266.435 110.941 277.476 111.799 290.324C112.127 295.326 112.941 299.861 114.24 303.929C115.54 307.997 117.34 311.815 119.639 315.383L80.5159 372.219C77.4309 369.792 74.2173 368.029 70.8751 366.928C67.5329 365.828 63.8907 365.401 59.9486 365.649C49.8362 366.284 41.5965 371.222 35.2294 380.462C28.8623 389.703 26.1036 400.743 26.9532 413.583Z" fill="white"/>
<path d="M1358.27 901.791C1352.83 902.737 1348.41 906.194 1345.02 912.163C1341.63 918.131 1340.18 924.994 1340.69 932.75C1340.77 933.932 1340.95 934.832 1341.22 935.449C1341.5 936.065 1341.51 936.595 1341.25 937.038C1341 937.481 1340.63 937.576 1340.15 937.325C1339.67 937.073 1339.02 937.023 1338.18 937.173C1332.74 938.119 1328.32 941.576 1324.93 947.545C1321.54 953.513 1320.1 960.375 1320.61 968.132C1321.12 975.888 1323.41 982.101 1327.5 986.771C1331.58 991.44 1336.34 993.301 1341.79 992.355C1343.91 991.986 1345.82 991.255 1347.53 990.162C1349.23 989.069 1350.81 987.598 1352.28 985.749L1377.39 1014.47C1376.43 1016.9 1375.75 1019.41 1375.36 1022C1374.97 1024.59 1374.88 1027.4 1375.07 1030.42C1375.58 1038.17 1377.88 1044.39 1381.96 1049.06C1386.05 1053.73 1390.81 1055.59 1396.25 1054.64C1401.69 1053.69 1406.11 1050.23 1409.51 1044.26C1412.9 1038.3 1414.34 1031.44 1413.83 1023.68C1413.75 1022.5 1413.58 1021.6 1413.31 1020.99C1413.04 1020.37 1413.02 1019.84 1413.27 1019.4C1413.52 1018.96 1413.88 1018.86 1414.37 1019.1C1414.86 1019.35 1415.51 1019.4 1416.34 1019.26C1421.79 1018.32 1426.2 1014.86 1429.6 1008.88C1432.99 1002.91 1434.43 996.049 1433.92 988.303C1433.41 980.557 1431.11 974.344 1427.03 969.663C1422.95 964.983 1418.19 963.122 1412.74 964.08C1410.61 964.449 1408.7 965.18 1407 966.273C1405.3 967.366 1403.71 968.837 1402.25 970.686L1377.13 941.964C1378.1 939.538 1378.77 937.029 1379.16 934.436C1379.55 931.843 1379.65 929.036 1379.45 926.014C1378.95 918.262 1376.65 912.049 1372.57 907.375C1368.48 902.7 1363.72 900.839 1358.27 901.791Z" fill="white"/>
<path fill-rule="evenodd" clip-rule="evenodd" d="M1347.25 2544.46C1342.42 2542.78 1337.71 2545.48 1334.27 2549.47C1330.78 2553.49 1328.02 2559.36 1326.5 2566C1324.97 2572.64 1324.83 2579.42 1326.09 2585.08C1327.34 2590.69 1330.2 2596.02 1335.03 2597.69C1339.87 2599.37 1344.57 2596.68 1348.02 2592.68C1351.5 2588.66 1354.26 2582.79 1355.79 2576.15C1357.31 2569.51 1357.45 2562.74 1356.19 2557.07C1354.95 2551.47 1352.09 2546.13 1347.25 2544.46ZM1396.07 2561.38C1391.23 2559.7 1386.53 2562.39 1383.08 2566.39C1379.6 2570.41 1376.84 2576.28 1375.31 2582.92C1373.79 2589.56 1373.65 2596.33 1374.91 2602C1376.15 2607.6 1379.01 2612.94 1383.85 2614.61C1388.68 2616.29 1393.39 2613.59 1396.83 2609.6C1400.32 2605.58 1403.08 2599.71 1404.6 2593.07C1406.13 2586.43 1406.27 2579.65 1405.01 2573.99C1403.77 2568.38 1400.9 2563.05 1396.07 2561.38ZM1304.22 2594.2C1299.38 2592.52 1294.68 2595.22 1291.23 2599.21C1287.75 2603.23 1284.99 2609.1 1283.46 2615.74C1281.94 2622.38 1281.8 2629.16 1283.06 2634.83C1284.3 2640.43 1287.16 2645.76 1292 2647.44C1296.83 2649.11 1301.54 2646.42 1304.98 2642.42C1308.47 2638.4 1311.23 2632.53 1312.75 2625.89C1314.28 2619.25 1314.42 2612.48 1313.16 2606.81C1311.92 2601.21 1309.05 2595.87 1304.22 2594.2ZM1357.91 2612.81C1346.2 2608.75 1335.55 2614.31 1327.56 2623.02C1319.68 2631.6 1313.95 2643.65 1311.52 2654.2C1308.7 2666.5 1312.16 2676.92 1317.63 2684.36C1323.01 2691.69 1330.69 2696.77 1338.05 2699.32C1345.42 2701.87 1354.13 2702.49 1361.83 2699.68C1369.65 2696.85 1377.04 2690.18 1379.86 2677.89C1382.28 2667.33 1382.52 2653.37 1379.44 2641C1376.35 2628.44 1369.64 2616.87 1357.91 2612.81ZM1411.61 2631.42C1406.77 2629.74 1402.07 2632.43 1398.62 2636.43C1395.14 2640.45 1392.38 2646.32 1390.85 2652.96C1389.33 2659.6 1389.19 2666.38 1390.45 2672.04C1391.69 2677.65 1394.55 2682.98 1399.39 2684.65C1404.22 2686.33 1408.93 2683.63 1412.37 2679.64C1415.86 2675.62 1418.62 2669.75 1420.14 2663.11C1421.67 2656.47 1421.81 2649.69 1420.55 2644.03C1419.31 2638.42 1416.44 2633.09 1411.61 2631.42Z" fill="white"/>
<path fill-rule="evenodd" clip-rule="evenodd" d="M40.3829 1025.65C36.4908 1029.08 34.9232 1035.14 34.815 1040.84C34.6979 1046.59 35.9849 1052.83 38.4437 1058.41C40.9026 1063.99 44.2968 1068.37 48.0011 1070.76C51.6621 1073.12 56.201 1073.8 60.0931 1070.37C63.9852 1066.94 65.5528 1060.89 65.6611 1055.19C65.7781 1049.43 64.4912 1043.19 62.0323 1037.61C59.5735 1032.03 56.1793 1027.65 52.475 1025.27C48.814 1022.9 44.275 1022.22 40.3829 1025.65ZM79.6973 990.987C75.8052 994.419 74.2376 1000.47 74.1293 1006.17C74.0123 1011.93 75.2992 1018.17 77.7581 1023.75C80.2169 1029.33 83.6111 1033.71 87.3154 1036.09C90.9764 1038.45 95.5154 1039.14 99.4075 1035.71C103.3 1032.28 104.867 1026.22 104.975 1020.52C105.093 1014.77 103.806 1008.53 101.347 1002.95C98.8878 997.37 95.4936 992.988 91.7893 990.603C88.1283 988.242 83.5894 987.555 79.6973 990.987ZM38.9683 1096.76C35.0762 1100.19 33.5086 1106.25 33.4003 1111.95C33.2833 1117.7 34.5702 1123.94 37.0291 1129.52C39.4879 1135.1 42.8821 1139.48 46.5864 1141.87C50.2474 1144.23 54.7863 1144.92 58.6785 1141.48C62.5706 1138.05 64.1382 1132 64.2464 1126.3C64.3635 1120.54 63.0765 1114.3 60.6177 1108.72C58.1588 1103.14 54.7646 1098.76 51.0603 1096.38C47.3993 1094.02 42.8604 1093.33 38.9683 1096.76ZM82.2141 1058.63C72.7786 1066.95 68.9619 1080.31 68.4329 1093.19C67.8998 1105.87 70.4967 1118.75 74.4042 1127.62C78.9573 1137.95 86.4847 1141.28 93.7413 1140.88C100.882 1140.48 108.315 1136.53 114.243 1131.31C120.172 1126.08 125.954 1118.39 129.344 1109.48C132.789 1100.45 133.997 1089.42 129.444 1079.09C125.537 1070.22 118.505 1061.26 110.216 1056.35C101.816 1051.33 91.6574 1050.31 82.2141 1058.63ZM125.46 1020.5C121.568 1023.93 120 1029.99 119.892 1035.69C119.775 1041.44 121.062 1047.68 123.521 1053.26C125.98 1058.84 129.374 1063.22 133.078 1065.61C136.739 1067.97 141.278 1068.66 145.17 1065.23C149.062 1061.79 150.63 1055.74 150.738 1050.04C150.855 1044.28 149.568 1038.04 147.109 1032.47C144.65 1026.89 141.256 1022.5 137.552 1020.12C133.891 1017.76 129.352 1017.07 125.46 1020.5Z" fill="white"/>
</svg>
