<svg xmlns="http://www.w3.org/2000/svg" viewBox="0 0 1000 322.6" style="enable-background:new 0 0 1000 322.6" xml:space="preserve"><path d="M205.6 260.5h46.8V124.2h-46.8v136.3zm62.9-229H237V63h31.5V31.5zM91.9 46.8H46.8v39.5h41.9c26.6 0 41.9 12.9 41.9 37.1s-15.3 37.9-41.9 37.9H46.8V87.1H0v173.4h46.8v-59.7h44.4c54 0 85.5-29 85.5-79-.1-46.8-30.7-75-84.8-75zM300 0h-94.4v94.4H300V0zm-15.3 78.2h-62.9V15.3h62.9v62.9zm274.2-31.4h-42.7v39.5h40.3c26.6 0 41.9 12.9 41.9 37.1s-15.3 37.9-41.9 37.9h-40.3V87.1h-46.8v173.4h46.8v-59.7h42.7c54 0 85.5-29 85.5-79 0-46.8-31.5-75-85.5-75zm392.7 50-40.3 101.6L871 96.8h-48.4l64.5 163.7-25 62.1h49.2L1000 96.8h-48.4zM741.9 96c-28.2 0-50 6.5-74.2 18.5l14.5 32.3c16.9-9.7 33.9-14.5 49.2-14.5 22.6 0 33.9 9.7 33.9 27.4v3.2h-45.2c-40.3 0-62.1 18.5-62.1 49.2 0 29.8 21 50.8 56.5 50.8 22.6 0 38.7-8.1 51.6-21.8v17.7h46V152.4c-1.6-34.7-26.6-56.4-70.2-56.4zm27.5 109.6c-4.8 13.7-18.5 25-37.9 25-16.1 0-25.8-8.1-25.8-21s8.9-18.5 26.6-18.5h37.1v14.5zM371.8 225c-22.6 0-38.7-17.7-38.7-44.4 0-25.8 16.1-43.5 38.7-43.5 16.1 0 28.2 6.5 37.1 17.7l31.5-22.6c-14.5-21.8-39.5-34.7-71-34.7-49.2-.8-83.1 33.1-83.1 83.1s33.9 83.1 83.1 83.1c33.9 0 58.9-13.7 72.6-36.3l-32.3-21.8c-8.1 12.9-21 19.4-37.9 19.4z" style="fill:#21c25e"/></svg>