<svg width="40" height="35" viewBox="0 0 40 40" fill="none" xmlns="http://www.w3.org/2000/svg">
<path d="M8.33398 33.3334V31.6667C8.33398 28.5726 9.56315 25.6051 11.7511 23.4172C13.939 21.2292 16.9065 20.0001 20.0007 20.0001M20.0007 20.0001C23.0948 20.0001 26.0623 21.2292 28.2502 23.4172C30.4382 25.6051 31.6673 28.5726 31.6673 31.6667V33.3334M20.0007 20.0001C21.7688 20.0001 23.4645 19.2977 24.7147 18.0475C25.9649 16.7972 26.6673 15.1015 26.6673 13.3334C26.6673 11.5653 25.9649 9.86961 24.7147 8.61937C23.4645 7.36913 21.7688 6.66675 20.0007 6.66675C18.2325 6.66675 16.5368 7.36913 15.2866 8.61937C14.0364 9.86961 13.334 11.5653 13.334 13.3334C13.334 15.1015 14.0364 16.7972 15.2866 18.0475C16.5368 19.2977 18.2325 20.0001 20.0007 20.0001Z" stroke="white" stroke-width="1.5" stroke-linecap="round" stroke-linejoin="round"/>
</svg>