<?xml version="1.0" standalone="no"?>
<!DOCTYPE svg PUBLIC "-//W3C//DTD SVG 20010904//EN"
 "http://www.w3.org/TR/2001/REC-SVG-20010904/DTD/svg10.dtd">
<svg version="1.0" xmlns="http://www.w3.org/2000/svg"
 width="10rem" height="10rem" viewBox="0 0 429.000000 429.000000"
 preserveAspectRatio="xMidYMid meet">

<g transform="translate(0.000000,429.000000) scale(0.100000,-0.100000)"
fill="#000000" stroke="none">
<path d="M102 3823 l3 -348 345 0 345 0 3 348 2 347 -350 0 -350 0 2 -347z
m596 0 l-3 -248 -245 0 -245 0 -3 248 -2 247 250 0 250 0 -2 -247z"/>
<path d="M302 3823 l3 -148 148 -3 147 -3 0 151 0 150 -150 0 -151 0 3 -147z"/>
<path d="M998 4123 l-3 -48 -47 -3 -48 -3 0 -100 0 -99 50 0 50 0 0 -50 0 -50
-50 0 -50 0 -2 -197 -3 -198 -97 -3 -98 -3 0 -49 0 -50 -49 0 -50 0 -3 -47 -3
-48 -195 0 -195 0 -3 47 -3 47 48 3 48 3 3 48 3 47 -101 0 -101 0 3 -97 3 -98
48 0 48 0 -3 -50 -3 -50 -47 -3 -48 -3 0 -94 0 -94 48 -3 47 -3 3 -97 3 -98
49 0 50 0 0 -50 0 -49 -98 -3 -97 -3 -3 -47 -3 -48 50 0 51 0 0 -49 0 -50 -47
-3 -48 -3 0 -45 0 -45 98 -3 97 -3 0 -49 0 -50 -50 0 -50 0 0 -100 0 -100 -50
0 -51 0 3 -147 3 -148 48 -3 47 -3 0 -100 0 -99 -51 0 -50 0 3 -47 3 -48 47
-3 47 -3 3 -47 3 -47 45 0 45 0 3 47 3 48 49 0 49 0 3 -48 3 -47 97 -3 97 -3
3 -47 3 -47 47 -3 47 -3 3 -47 3 -47 95 0 95 0 3 47 3 48 49 0 49 0 3 -47 3
-48 148 -3 147 -3 0 -49 0 -50 49 0 50 0 3 -47 3 -48 45 0 45 0 3 -53 3 -53
40 3 c54 3 66 22 54 84 -4 18 -11 21 -50 19 l-45 -2 0 49 c0 51 0 51 61 48
l37 -1 -2 48 -1 48 -47 3 -47 3 -3 -48 -3 -48 -47 -3 -48 -3 0 100 0 101 44 0
c48 0 56 9 56 65 0 33 1 34 48 37 28 2 47 8 48 16 1 6 2 28 3 47 l1 35 145 0
145 0 0 -150 0 -150 -50 0 -50 0 0 100 0 100 -95 0 -95 0 -1 -67 c0 -38 -2
-83 -3 -100 l-4 -33 99 0 98 0 3 -48 3 -47 48 -3 47 -3 0 -95 c0 -97 -3 -103
-44 -95 -6 1 -20 0 -33 -4 -22 -5 -23 -9 -23 -100 l0 -95 50 0 50 0 0 95 c0
69 3 95 13 96 6 1 28 2 47 3 l35 1 3 98 3 97 -51 0 -50 0 0 49 0 50 48 3 47 3
3 98 3 97 49 0 49 0 3 -97 3 -98 48 -3 48 -3 -3 -47 -3 -47 -47 -3 -48 -3 0
-45 0 -44 38 0 c60 0 63 -6 60 -111 l-3 -94 -45 0 -45 0 -5 50 -5 49 -47 2
-48 2 0 -99 0 -99 100 0 100 0 0 -100 0 -100 -49 0 -50 0 -3 48 -3 47 -45 0
-45 0 -3 -48 -3 -48 -47 3 -47 3 -3 47 -3 48 -145 0 c-108 0 -144 -3 -145 -12
-1 -7 -2 -29 -2 -48 l-1 -35 97 -3 97 -3 0 -99 0 -100 -48 0 -48 0 0 48 1 47
-47 3 c-27 2 -48 -1 -49 -5 0 -4 -2 -27 -3 -50 l-3 -42 51 -3 c32 -2 51 -8 52
-15 1 -7 2 -29 3 -48 l1 -35 195 0 195 0 0 50 0 49 -97 3 -98 3 0 45 0 45 48
3 47 3 0 50 0 49 50 0 50 0 0 -50 0 -50 50 0 50 0 0 -100 0 -100 50 0 50 0 0
100 0 100 50 0 50 0 0 -100 0 -100 50 0 49 0 3 98 3 97 48 3 47 3 0 -50 0 -51
50 0 50 0 0 -50 0 -50 50 0 50 0 0 50 0 50 100 0 100 0 0 -50 0 -50 50 0 50 0
0 50 0 50 50 0 50 0 0 -50 0 -51 148 3 147 3 3 48 3 47 93 0 c103 0 106 -2
106 -66 l0 -34 95 0 94 0 3 147 3 148 48 3 48 3 -3 47 -3 47 -45 5 -45 5 0 45
0 45 98 3 97 3 0 -51 0 -50 50 0 51 0 -3 98 -3 97 -30 1 c-16 1 -60 2 -97 3
l-67 1 -3 48 -3 47 -40 -2 c-46 -1 -55 8 -55 58 0 44 9 49 93 49 98 0 107 -5
107 -55 0 -47 7 -53 60 -51 l35 1 3 247 2 247 -47 3 -48 3 -3 48 -3 47 -50 0
-50 0 3 -47 3 -48 48 -3 47 -3 0 -149 0 -149 -97 -3 -98 -3 -1 -45 -1 -45 -46
-3 c-34 -3 -47 0 -47 10 -1 7 -2 51 -3 98 l-2 85 95 5 95 5 3 48 3 47 -195 0
-195 0 -3 48 -3 47 -147 3 -148 3 0 49 0 50 -100 0 -100 0 0 49 0 50 48 3 47
3 3 48 3 47 100 0 99 0 0 -51 0 -50 48 3 47 3 0 45 0 45 -47 3 -48 3 0 50 0
49 -100 0 -100 0 0 -50 0 -50 -50 0 -50 0 0 -50 0 -50 -50 0 -50 0 0 50 0 50
-50 0 -50 0 0 -100 0 -100 -100 0 -100 0 0 100 0 100 50 0 50 0 0 100 0 100
50 0 50 0 0 50 0 50 -50 0 -50 0 0 50 0 50 100 0 100 0 0 -51 0 -50 48 3 47 3
3 48 3 47 50 0 49 0 0 -100 0 -100 150 0 150 0 0 -49 0 -50 48 -3 47 -3 3 -98
3 -98 46 3 46 3 -1 125 c-2 189 -24 170 204 170 l193 0 3 -47 3 -48 48 -3 47
-3 0 50 0 51 -50 0 -50 0 0 49 0 50 -47 3 -48 3 -3 148 -3 147 -94 0 -95 0 0
-50 0 -50 45 0 45 0 0 -100 0 -100 -44 0 -45 0 -3 48 -3 47 -47 3 -47 3 -6 53
c-4 29 -6 63 -5 77 1 13 2 79 1 147 l-1 122 -45 0 -45 0 0 50 0 50 45 0 c29 0
45 5 46 13 1 6 2 28 3 47 2 34 4 35 46 38 27 2 46 -1 52 -10 5 -7 7 -51 6 -98
l-2 -85 97 -3 97 -3 0 50 0 50 -47 3 -48 3 -3 97 -3 97 -46 3 -47 3 -1 45 0
45 -50 5 c-46 5 -50 7 -48 30 5 58 -4 70 -52 70 l-44 0 -3 48 -3 47 -47 3 -48
3 0 -50 0 -51 50 0 50 0 0 -50 0 -50 -50 0 -50 0 0 45 c0 39 -3 45 -24 51 -13
3 -35 4 -47 2 -21 -3 -24 -9 -27 -50 l-3 -48 -49 0 -49 0 -3 98 -3 97 -35 2
c-19 1 -41 2 -47 2 -9 1 -13 18 -13 49 l0 47 200 -3 200 -3 0 -45 0 -45 48 3
47 3 -1 40 -1 40 -46 3 -47 3 0 50 0 49 44 0 c48 0 56 9 56 66 l0 34 49 0 49
0 -2 48 -2 47 -147 3 -146 3 -3 -98 -3 -98 -45 0 -45 0 -3 48 -3 47 -49 0 -49
0 -3 -47 -3 -48 -45 0 -45 0 -3 48 -3 47 -150 0 -149 0 0 50 0 50 -50 0 -50 0
0 -51 0 -50 -47 3 -48 3 -3 48 -3 47 -50 0 -49 0 0 100 0 100 49 0 50 0 3 -47
3 -48 45 0 45 0 3 48 3 47 49 0 49 0 3 -47 3 -48 48 -3 47 -3 0 -50 0 -50 148
3 147 3 3 47 3 47 47 3 47 3 3 98 3 97 -51 0 -50 0 0 99 0 100 48 3 47 3 3 98
3 97 -50 0 -50 0 -3 48 -3 47 -247 3 -248 2 0 -100 0 -100 50 0 51 0 -3 -147
-3 -148 -47 -3 -48 -3 0 100 0 100 -147 3 -148 3 -3 48 -3 47 100 0 101 0 0
50 0 50 -50 0 -50 0 0 50 0 50 -100 0 -100 0 0 -49 0 -50 -47 -3 -48 -3 0 -45
0 -45 48 -3 47 -3 0 -50 0 -49 -100 0 -100 0 0 -50 0 -50 200 0 200 0 0 -100
0 -100 -49 0 -50 0 -3 -47 -3 -48 -48 -3 -47 -3 0 100 0 100 -147 3 -148 3 -3
148 -3 148 -47 -3 -47 -3 -3 -48 -3 -48 -47 3 -47 3 -3 47 -3 47 -97 3 -97 3
1 45 0 45 47 3 47 3 0 50 0 50 -97 -3 -96 -3 -1 -45 -1 -45 -47 -3 -47 -3 -3
48 -3 48 -47 3 -47 3 -3 -98 -3 -98 -47 -3 -47 -3 -3 98 -3 98 -147 3 -147 3
-3 -48z m2290 -100 l-3 -48 -147 -3 -148 -3 0 51 0 50 151 0 150 0 -3 -47z
m-1988 -102 l0 -50 48 -3 47 -3 3 -47 3 -47 47 -3 47 -3 0 -45 0 -45 -97 -3
-97 -3 -3 -97 -3 -97 -47 -3 -48 -3 0 50 0 51 -49 0 -50 0 -3 -47 -3 -48 -47
-3 -48 -3 0 100 0 100 98 3 97 3 3 48 3 47 -50 0 -51 0 0 50 0 50 -50 0 -50 0
0 50 0 50 150 0 150 0 0 -49z m295 -1 l0 -45 -47 -3 -48 -3 0 51 0 51 48 -3
47 -3 0 -45z m297 -197 l3 -48 48 -3 47 -3 0 -50 0 -49 50 0 49 0 3 -147 3
-148 98 -3 97 -3 0 -50 0 -50 48 3 47 3 3 47 3 47 47 3 47 3 3 48 3 47 50 0
50 0 -3 -97 -3 -98 -47 -3 -48 -3 0 -43 c0 -48 9 -56 66 -56 l34 0 0 -94 0
-95 48 -3 47 -3 3 -47 3 -48 99 0 99 0 3 48 3 47 48 3 47 3 0 45 c0 24 -4 45
-10 45 -5 1 -14 3 -20 4 -5 1 -24 3 -41 4 -30 1 -30 2 -27 48 l3 47 45 0 45 1
3 48 3 47 100 0 100 0 -3 -47 -3 -48 -47 -3 -48 -3 0 -45 0 -44 50 0 50 0 0
-100 0 -100 50 0 50 0 0 -50 0 -50 50 0 50 0 0 51 0 50 48 -3 47 -3 3 -47 3
-48 50 0 49 0 0 51 0 50 48 -3 47 -3 3 -97 3 -98 -51 0 -50 0 0 -50 0 -50 -50
0 -50 0 0 -50 0 -50 51 0 50 0 -3 -47 -3 -48 -47 -3 -47 -3 -3 -97 -3 -97 -47
-3 -48 -3 0 -49 0 -49 98 -3 97 -3 0 -95 0 -95 -47 -3 -47 -3 -3 48 -3 48 -47
3 -48 3 0 50 0 49 -99 0 -100 0 -3 48 -3 47 -47 3 -48 3 0 -50 0 -51 -50 0
-50 0 0 50 0 50 50 0 50 0 0 50 0 50 100 0 100 0 0 50 0 50 -49 0 -50 0 -3 48
-3 47 -47 3 -48 3 0 -50 0 -51 -50 0 -50 0 0 50 0 50 50 0 50 0 0 50 0 51 98
-3 97 -3 3 -97 3 -98 99 0 100 0 0 50 0 50 -50 0 -50 0 0 100 0 100 -50 0 -50
0 0 51 0 50 -47 -3 -48 -3 -3 -47 -3 -48 -49 0 -49 0 -3 48 -3 47 -47 3 -48 3
0 50 0 49 -50 0 -50 0 0 -99 0 -100 48 -3 47 -3 3 -47 3 -47 -48 -3 -48 -3 -3
-97 -3 -98 -49 0 -50 0 0 -50 0 -50 50 0 50 0 0 -50 0 -50 -100 0 -100 0 0 50
0 50 -50 0 -50 0 0 -149 0 -150 -47 -3 -48 -3 -3 -47 -3 -48 50 0 51 0 0 -50
0 -50 50 0 50 0 0 -50 0 -50 -200 0 -200 0 0 -51 0 -50 -47 3 -48 3 -3 48 -3
47 -50 0 -49 0 0 -100 0 -100 50 0 50 0 0 -50 0 -50 -50 0 -50 0 0 49 0 50
-47 3 -48 3 0 95 0 95 48 3 47 3 0 49 0 49 -47 3 -48 3 -3 48 -3 48 -97 -3
-97 -3 -3 -47 -3 -47 -46 -3 -47 -3 0 -45 0 -45 47 -3 47 -3 0 -50 0 -49 -197
0 -198 0 0 -47 0 -48 -47 -3 -47 -3 -3 -97 -3 -97 -47 -3 -48 -3 0 50 0 51
-50 0 -50 0 0 50 0 50 -100 0 -100 0 0 -100 0 -100 -100 0 -100 0 0 50 0 50
-50 0 -50 0 0 50 0 50 50 0 50 0 0 50 0 50 50 0 50 0 0 -50 0 -50 50 0 50 0 0
50 0 50 100 0 100 0 0 50 0 50 50 0 50 0 0 -50 0 -51 98 3 97 3 1 95 2 95 48
0 49 0 3 -48 3 -48 47 3 47 3 3 98 3 97 44 0 c39 0 45 3 51 24 3 13 4 34 2 47
-2 19 2 25 22 27 36 5 70 41 70 74 0 27 -2 28 -45 28 l-45 0 0 -50 0 -50 -149
0 -150 0 -3 -47 -3 -48 -47 -3 -47 -3 -3 -47 -3 -47 -47 -3 -47 -3 -3 98 -3
98 -97 3 -97 3 -3 -148 -3 -148 -247 -3 -248 -2 0 -100 0 -100 -50 0 -50 0 0
100 0 100 50 0 50 0 0 50 0 50 -150 0 -150 0 0 50 0 50 100 0 100 0 0 50 0 50
50 0 50 0 0 100 0 100 -50 0 -50 0 0 -50 0 -50 -50 0 -50 0 0 -50 0 -50 -50 0
-50 0 0 50 0 50 50 0 50 0 0 100 0 100 49 0 50 0 3 48 3 47 45 0 45 0 3 -97 3
-98 149 0 150 0 0 50 0 50 -50 0 -50 0 0 50 0 50 -50 0 -50 0 0 50 0 50 -100
0 -100 0 0 150 0 150 -50 0 -51 0 3 98 3 97 48 3 47 3 0 95 0 94 50 0 50 0 0
-145 0 -145 50 0 49 0 3 97 3 97 48 3 47 4 0 -51 0 -50 50 0 50 0 0 51 0 51
-37 -2 c-63 -3 -63 -3 -63 45 l0 45 50 0 50 0 0 49 0 50 48 3 47 3 3 98 3 97
49 0 49 0 3 -47 3 -48 95 0 95 0 3 47 3 47 97 3 97 3 1 95 2 95 48 0 49 0 5
-95 5 -95 190 0 190 0 3 47 3 47 -48 3 -48 3 -3 98 -3 97 -93 0 -94 0 -4 46
c-2 25 -1 47 1 50 2 2 69 4 147 4 l143 0 3 -47z m1296 0 l-3 -48 -45 0 -45 0
-3 48 -3 47 51 0 51 0 -3 -47z m-1493 -203 l0 -45 -47 -3 c-29 -2 -48 1 -49 7
-1 6 -1 20 -1 31 0 62 -1 61 50 58 l47 -3 0 -45z m595 0 l0 -50 51 0 50 0 -3
-47 -3 -48 -45 0 -45 0 -3 47 -3 47 -47 3 -47 3 -3 48 -3 47 50 0 51 0 0 -50z
m798 3 l-3 -48 -47 -3 -48 -3 0 50 0 51 51 0 50 0 -3 -47z m200 0 l-3 -48 -45
0 -45 0 -3 48 -3 47 51 0 51 0 -3 -47z m-2490 -300 l-3 -48 -47 -3 -47 -3 -3
-47 -3 -47 -45 0 -45 0 -3 48 -3 47 50 0 51 0 0 50 0 50 51 0 50 0 -3 -47z
m2090 -50 l-3 -98 -47 -3 -48 -3 0 100 0 101 50 0 51 0 -3 -97z m-100 -147 l3
-46 -50 0 -51 0 0 44 c0 49 3 51 57 50 38 -1 38 -1 41 -48z m2 -1196 l0 -50
-50 0 -50 0 0 50 0 50 50 0 50 0 0 -50z m-100 -500 l0 -51 98 3 97 3 3 48 3
47 50 0 49 0 0 -50 0 -50 150 0 151 0 -3 -97 -3 -98 -48 -3 -48 -3 3 -47 3
-47 48 -3 48 -3 -3 -47 c-3 -51 3 -47 -80 -51 -14 -1 -18 -10 -18 -45 0 -47
-8 -55 -50 -51 -14 1 -31 3 -37 4 -8 1 -13 17 -13 46 l0 45 -50 0 -50 0 0 -45
c0 -29 5 -45 13 -46 6 -1 28 -2 47 -3 34 -2 35 -2 38 -49 l3 -47 50 0 49 0 0
44 c0 48 7 54 60 52 l35 -1 3 -147 3 -147 47 -3 47 -3 3 -97 3 -98 49 0 50 0
0 50 0 50 49 0 50 0 3 48 3 47 45 0 45 0 0 -45 0 -45 -47 -3 -47 -3 -3 -47 -3
-47 -47 -3 -48 -3 0 -50 0 -49 -50 0 -50 0 0 50 0 50 -50 0 -50 0 0 -50 0 -50
-50 0 -50 0 0 50 0 50 51 0 50 0 -3 48 -3 47 -97 3 -98 3 0 -51 0 -50 -50 0
-50 0 0 50 0 50 -50 0 -50 0 0 -50 0 -50 -50 0 -50 0 0 -50 0 -50 -50 0 -50 0
0 100 0 100 -200 0 -200 0 0 -50 0 -50 -50 0 -50 0 0 50 0 50 49 0 50 0 3 47
3 48 48 3 48 3 -3 47 -3 47 -48 3 -48 3 3 47 3 47 45 1 45 0 5 100 5 99 45 0
45 0 3 97 3 97 -48 3 -48 3 -3 48 -3 47 50 0 51 0 0 50 0 49 -97 3 -98 3 -3
48 -3 47 200 0 201 0 0 -50z m-402 -197 l-3 -48 -47 -3 -48 -3 0 50 0 51 51 0
50 0 -3 -47z m1200 -33 c4 -112 0 -122 -51 -118 l-42 3 -3 98 -3 98 48 -3 48
-3 3 -75z m199 -50 c5 -58 -4 -70 -52 -70 l-45 0 0 51 0 50 48 -3 c42 -3 47
-6 49 -28z m-5 -174 c9 -12 11 -257 3 -278 -4 -10 -36 -12 -150 -10 l-145 3 0
144 c0 105 3 145 13 148 27 11 272 5 279 -7z m196 -138 c3 -46 2 -48 -25 -49
-29 -1 -56 1 -61 6 -1 1 -5 18 -7 38 -6 42 12 58 60 54 28 -2 30 -5 33 -49z"/>
<path d="M1200 3819 l0 -50 48 3 47 3 3 48 3 47 -50 0 -51 0 0 -51z"/>
<path d="M1894 3556 c-3 -8 -4 -29 -2 -48 3 -32 5 -33 51 -36 l47 -3 0 50 0
51 -45 0 c-30 0 -47 -5 -51 -14z"/>
<path d="M1400 3370 c-1 -3 -1 -69 0 -147 1 -169 17 -155 -170 -151 l-125 3
-3 48 -3 47 -100 0 -100 0 3 -47 3 -48 48 -3 47 -3 0 -195 0 -194 -49 0 -50 0
-3 48 -3 47 -95 0 -95 0 -3 -47 -3 -48 100 0 101 0 0 -50 0 -50 -149 0 -150 0
-3 48 -3 47 -47 3 -48 3 0 50 0 50 -47 -3 -48 -3 -3 -47 -3 -48 50 0 51 0 0
-100 0 -100 50 0 50 0 0 -50 0 -50 50 0 50 0 0 -50 0 -50 50 0 50 0 0 50 0 50
-51 0 -50 0 3 48 3 47 95 0 95 0 3 -47 3 -47 47 -3 47 -3 3 -97 3 -98 -51 0
-50 0 0 -50 0 -50 50 0 50 0 0 50 0 50 50 0 50 0 0 100 0 100 50 0 50 0 0 50
0 50 50 0 50 0 0 -99 0 -100 48 -3 47 -3 3 -47 3 -48 50 0 49 0 0 -49 0 -50
48 -3 47 -3 0 -45 0 -45 48 -3 c48 -3 49 -3 50 43 1 53 -1 55 -48 55 -45 0
-45 0 -45 34 0 57 -8 66 -56 66 l-43 0 -3 98 -3 97 -47 3 -47 3 -3 47 -3 47
-47 3 -48 3 0 50 0 50 98 -3 97 -3 3 -47 3 -48 145 0 144 0 0 -100 0 -100 -45
0 -45 0 0 -50 0 -50 45 0 45 0 0 50 0 50 49 0 50 0 3 48 c5 73 26 61 82 -47
42 -82 46 -95 32 -103 -9 -5 -16 -16 -16 -23 0 -12 19 -15 100 -15 82 0 100 3
100 15 0 12 13 15 55 15 30 0 55 4 55 8 0 4 -22 50 -50 102 -27 52 -50 95 -50
97 0 2 10 3 23 3 13 0 41 19 67 46 42 42 43 45 23 50 -22 6 -23 9 -25 203 l-3
196 -47 3 -47 3 -3 47 c-3 49 -2 49 -65 51 l-33 1 0 95 0 95 -34 0 c-64 0 -66
3 -66 105 l0 93 -50 4 -50 3 0 -52 0 -53 -51 0 -50 0 3 -47 3 -48 48 -3 47 -3
0 -145 0 -144 49 0 50 0 3 48 3 47 48 3 47 2 0 -150 0 -150 50 0 50 0 0 -100
0 -100 -50 0 -50 0 0 50 0 49 -97 3 -98 3 -3 140 c-2 96 -6 142 -15 147 -7 4
-29 8 -49 8 l-37 0 -3 48 c-3 49 -2 49 -64 51 -29 1 -30 3 -30 44 l1 42 -47 3
-47 3 -3 97 -3 97 -47 3 -47 3 -3 51 -3 51 -48 1 c-26 0 -47 -1 -47 -4z m195
-338 c0 -22 3 -44 7 -48 4 -3 26 -6 48 -6 47 1 55 -11 46 -64 -7 -35 -7 -35
-54 -32 l-46 3 3 48 3 49 -39 -2 c-63 -3 -63 -3 -63 44 0 44 0 45 38 49 55 5
57 4 57 -41z m-297 -104 l3 -48 -50 0 -51 0 0 43 c0 24 3 47 7 51 4 4 25 6 48
4 l40 -3 3 -47z m200 -1 l3 -47 -50 0 -51 0 0 43 c0 24 3 47 7 51 4 4 25 5 47
3 41 -4 41 -4 44 -50z m292 -98 l0 -50 -47 3 -47 3 -1 40 c-1 22 0 43 2 48 2
4 24 7 49 7 l44 0 0 -51z m-492 -151 l3 -98 -101 0 -100 0 0 -50 0 -50 -50 0
-50 0 0 50 0 50 50 0 50 0 0 93 c0 52 3 97 7 101 4 4 48 5 98 4 l90 -3 3 -97z
m298 78 c3 -13 4 -34 2 -47 -3 -22 1 -24 44 -27 41 -3 49 -7 54 -28 3 -13 3
-35 0 -49 -6 -24 -8 -25 -101 -25 l-94 0 -3 48 -3 47 -47 3 -48 3 0 43 c0 23
3 46 7 49 3 4 46 7 94 7 85 0 89 -1 95 -24z"/>
<path d="M1202 3223 l3 -48 45 0 45 0 3 48 3 47 -51 0 -51 0 3 -47z"/>
<path d="M2190 3072 l0 -98 38 2 c20 1 43 2 50 3 9 1 12 27 12 96 l0 95 -50 0
-50 0 0 -98z"/>
<path d="M843 3072 l-43 -3 0 -44 c0 -43 0 -43 39 -47 22 -2 45 -2 50 0 12 4
15 89 4 94 -5 2 -27 2 -50 0z"/>
<path d="M2990 2831 l0 -51 51 0 50 0 -3 48 -3 47 -47 3 -48 3 0 -50z"/>
<path d="M2397 2773 c-4 -3 -7 -48 -7 -100 l0 -93 49 0 50 0 3 48 3 47 48 3
47 3 0 -50 0 -51 50 0 50 0 0 -49 0 -50 -47 -3 -48 -3 -3 -47 -3 -47 -47 -3
-47 -3 -3 -97 -3 -98 -49 0 -50 0 0 40 c0 22 -3 40 -7 39 -5 0 -23 -18 -42
-40 l-33 -39 41 0 41 0 0 -50 0 -50 50 0 50 0 0 50 0 50 50 0 50 0 0 50 0 50
50 0 50 0 0 100 0 100 50 0 51 0 -3 98 -3 97 -97 3 -98 3 0 49 0 50 -93 0
c-52 0 -97 -3 -100 -7z"/>
<path d="M3390 2630 l0 -50 50 0 50 0 0 50 0 50 -50 0 -50 0 0 -50z"/>
<path d="M1198 2133 l-3 -48 -47 -3 -48 -3 0 -50 0 -50 98 3 97 3 0 95 0 95
-47 3 -47 3 -3 -48z"/>
<path d="M1797 2173 c-4 -3 -7 -48 -7 -100 l0 -93 29 0 c19 0 36 9 52 29 21
25 24 37 21 100 l-4 71 -42 0 c-24 0 -46 -3 -49 -7z"/>
<path d="M3290 2131 l0 -51 51 0 50 0 -3 48 -3 47 -47 3 -48 3 0 -50z"/>
<path d="M2122 1997 c-127 -128 -132 -134 -132 -175 l0 -42 50 0 50 0 0 45 c0
55 23 71 51 37 9 -12 24 -22 33 -22 14 0 16 -18 16 -130 l0 -130 50 0 50 0 0
50 0 50 50 0 50 0 0 50 0 50 -51 0 c-49 0 -50 1 -47 28 3 26 6 27 65 30 l62 3
-72 144 c-39 80 -76 145 -82 145 -5 0 -70 -60 -143 -133z"/>
<path d="M1400 2041 c0 -23 0 -44 0 -48 0 -5 21 -8 48 -8 l47 0 0 45 0 45 -47
3 -48 3 0 -40z"/>
<path d="M600 1830 l0 -150 100 0 100 0 0 50 0 50 -50 0 -50 0 0 50 0 50 150
0 150 0 0 50 0 50 -200 0 -200 0 0 -150z"/>
<path d="M1100 1429 l0 -50 48 3 47 3 3 48 3 47 -50 0 -51 0 0 -51z"/>
<path d="M700 1329 l0 -50 48 3 47 3 3 48 3 47 -50 0 -51 0 0 -51z"/>
<path d="M2590 1230 l0 -50 -50 0 -50 0 0 -51 0 -50 48 3 47 3 3 47 3 47 47 3
47 3 3 48 3 47 -50 0 -51 0 0 -50z"/>
<path d="M2990 1080 l0 -100 -50 0 -50 0 0 50 0 50 -51 0 -50 0 3 -47 3 -48
48 -3 47 -3 0 -43 c0 -47 11 -56 73 -56 26 0 27 2 27 49 l0 50 48 3 47 3 3 47
3 47 47 3 47 3 3 48 3 47 -100 0 -101 0 0 -100z"/>
<path d="M2590 886 l0 -95 -47 -3 -48 -3 -3 -47 -3 -48 35 0 c64 0 66 -3 66
-106 l0 -93 48 -3 47 -3 3 -47 3 -48 100 0 99 0 0 50 0 50 50 0 50 0 0 -50 0
-50 51 0 50 0 -3 48 -3 47 -47 3 -47 3 -3 47 -3 47 -45 0 -45 0 -3 -47 -3 -48
-50 0 -49 0 0 195 c0 215 6 196 -65 199 -29 1 -30 3 -33 49 l-3 47 -50 0 -49
0 0 -94z"/>
<path d="M3513 783 c-20 -4 -23 -11 -23 -47 0 -23 2 -45 4 -47 3 -2 25 -3 50
-1 l46 4 0 38 c0 50 -20 63 -77 53z"/>
<path d="M1994 4156 c-3 -8 -4 -29 -2 -48 l3 -33 98 -3 97 -3 0 51 0 50 -95 0
c-73 0 -97 -3 -101 -14z"/>
<path d="M3490 3820 l0 -350 345 0 345 0 0 350 0 350 -345 0 -345 0 0 -350z
m590 0 l0 -250 -245 0 -245 0 0 250 0 250 245 0 245 0 0 -250z"/>
<path d="M3689 3966 c-2 -2 -3 -70 -1 -150 l3 -146 145 0 144 0 0 150 0 150
-143 0 c-79 0 -146 -2 -148 -4z"/>
<path d="M402 3323 l3 -48 45 0 45 0 3 48 3 47 -51 0 -51 0 3 -47z"/>
<path d="M3887 3363 c-9 -8 -9 -56 -1 -77 5 -13 24 -16 100 -16 l93 0 3 -47 3
-48 45 0 45 0 3 48 3 47 -50 0 -51 0 0 50 0 50 -93 0 c-52 0 -97 -3 -100 -7z"/>
<path d="M3790 3258 c-1 -12 -1 -335 0 -365 0 -9 16 -13 45 -13 l45 0 0 38 c0
39 11 64 26 61 5 -1 24 -1 42 0 l32 1 0 95 0 95 -44 0 c-48 0 -56 9 -56 66 0
34 0 34 -45 34 -29 0 -45 -4 -45 -12z"/>
<path d="M4086 2965 c-3 -9 -6 -32 -6 -51 l0 -34 51 0 50 0 -3 47 -3 47 -41 4
c-31 2 -43 -1 -48 -13z"/>
<path d="M4087 2774 c-4 -4 -7 -27 -7 -50 l0 -43 -47 -3 -48 -3 -3 -47 -3 -48
50 0 50 0 3 48 3 47 48 3 48 3 -3 47 -3 47 -40 3 c-23 2 -44 0 -48 -4z"/>
<path d="M4087 2473 c-4 -3 -7 -71 -7 -150 l0 -143 50 0 50 0 0 150 0 150 -43
0 c-24 0 -47 -3 -50 -7z"/>
<path d="M4084 2066 c-3 -8 -4 -29 -2 -48 3 -32 5 -33 51 -36 l47 -3 0 50 0
51 -45 0 c-30 0 -47 -5 -51 -14z"/>
<path d="M2990 1729 l0 -50 48 3 47 3 3 48 3 47 -50 0 -51 0 0 -51z"/>
<path d="M4084 1566 c-3 -8 -4 -29 -2 -48 3 -32 5 -33 51 -36 l47 -3 0 50 0
51 -45 0 c-30 0 -47 -5 -51 -14z"/>
<path d="M3788 1463 c-2 -10 -2 -33 0 -50 4 -32 6 -33 48 -33 l44 0 0 50 0 50
-44 0 c-34 0 -45 -4 -48 -17z"/>
<path d="M102 1133 l3 -48 45 0 45 0 3 48 3 47 -51 0 -51 0 3 -47z"/>
<path d="M302 1033 l3 -148 45 0 45 0 5 98 c3 53 8 97 13 97 4 0 25 0 47 0
l40 0 0 -95 0 -95 50 0 50 0 0 95 0 95 -50 0 -50 0 0 50 0 50 -100 0 -101 0 3
-147z"/>
<path d="M100 935 l0 -45 50 0 50 0 0 45 0 45 -50 0 -50 0 0 -45z"/>
<path d="M702 934 l3 -46 77 0 c123 0 118 5 118 -104 l0 -93 48 -3 47 -3 3
-97 3 -97 -48 -3 -48 -3 -3 -47 -3 -48 100 0 101 0 0 50 0 50 50 0 51 0 -3
-97 -3 -98 -147 -3 -148 -3 0 -99 0 -100 150 0 150 0 0 50 0 50 50 0 51 0 -3
148 -3 147 -47 3 -47 3 -3 47 -3 47 -45 1 -45 0 -3 97 c-2 87 -1 97 15 98 10
1 23 2 28 4 6 1 20 3 33 3 21 2 22 6 22 97 l0 95 -49 0 -50 0 -3 -47 -3 -48
-45 0 -45 0 -3 48 -3 47 -150 0 -150 0 3 -46z"/>
<path d="M1599 978 c-5 -15 -5 -75 0 -83 8 -14 89 -15 94 -1 4 9 3 43 -2 79
-1 6 -90 11 -92 5z"/>
<path d="M107 783 c-4 -3 -7 -161 -7 -350 l0 -343 350 0 350 0 -2 348 -3 347
-341 3 c-187 1 -343 -1 -347 -5z m591 -345 l2 -248 -250 0 -250 0 0 243 c0
134 3 247 7 251 4 3 115 5 247 4 l241 -3 3 -247z"/>
<path d="M307 584 c-4 -4 -7 -72 -7 -151 l0 -143 150 0 151 0 -3 148 -3 147
-141 3 c-77 1 -143 -1 -147 -4z"/>
<path d="M1307 784 c-4 -4 -7 -26 -7 -50 0 -42 0 -42 40 -46 55 -5 62 1 58 53
-3 44 -3 44 -43 47 -23 2 -44 0 -48 -4z"/>
<path d="M1500 640 l0 -50 95 0 c106 0 115 5 98 63 l-9 32 -92 3 -92 3 0 -51z"/>
<path d="M1400 451 c0 -23 0 -44 0 -48 0 -5 21 -8 48 -8 l47 0 0 45 0 45 -47
3 -48 3 0 -40z"/>
<path d="M3984 377 c-2 -7 -3 -74 -2 -148 l3 -134 47 -3 47 -3 3 98 3 98 48 3
47 3 0 50 0 49 -95 0 c-69 0 -97 -4 -101 -13z"/>
<path d="M1399 286 c-2 -2 -3 -25 -1 -50 l4 -45 46 -3 47 -3 3 -48 3 -48 47 3
47 3 0 45 0 45 -47 3 c-28 2 -48 8 -49 15 0 7 -1 28 -2 47 -2 34 -3 35 -47 38
-25 2 -48 1 -51 -2z"/>
</g>
</svg>
