<svg width="50" height="50" viewBox="0 0 66 56" fill="none" xmlns="http://www.w3.org/2000/svg">
<path d="M16.104 16.1046C15.7898 15.9643 15.4371 15.8939 15.0802 15.9004C14.7233 15.9068 14.3746 15.9898 14.0681 16.1412C13.7616 16.2927 13.5078 16.5074 13.3315 16.7643C13.1553 17.0213 13.0626 17.3118 13.0625 17.6073V39.2373C13.0625 39.6902 13.2798 40.1245 13.6666 40.4448C14.0534 40.765 14.578 40.9449 15.125 40.9449C15.672 40.9449 16.1966 40.765 16.5834 40.4448C16.9702 40.1245 17.1875 39.6902 17.1875 39.2373V20.467L32.021 27.079C32.6315 27.3522 33.3685 27.3522 33.979 27.079L48.8125 20.467V39.2373C48.8125 39.6902 49.0298 40.1245 49.4166 40.4448C49.8034 40.765 50.328 40.9449 50.875 40.9449C51.422 40.9449 51.9466 40.765 52.3334 40.4448C52.7202 40.1245 52.9375 39.6902 52.9375 39.2373V17.6073C52.9374 17.3118 52.8447 17.0213 52.6685 16.7643C52.4922 16.5074 52.2384 16.2927 51.9319 16.1412C51.6254 15.9898 51.2766 15.9068 50.9198 15.9004C50.5629 15.8939 50.2102 15.9643 49.896 16.1046L33 23.6364L16.104 16.1046Z" fill="#5BB656"/>
<path fill-rule="evenodd" clip-rule="evenodd" d="M47.6024 9.00541C37.8868 8.28588 28.113 8.28588 18.3974 9.00541L14.2229 9.31278C12.0484 9.47354 10.0029 10.2365 8.41665 11.4783C6.8304 12.7202 5.79605 14.3684 5.48063 16.157C4.11062 23.9131 4.11062 31.7931 5.48063 39.5492C5.79673 41.3377 6.83173 42.9857 8.41848 44.2272C10.0052 45.4686 12.0511 46.231 14.2256 46.3912L18.3946 46.7008C28.1131 47.4203 37.8866 47.4203 47.6051 46.7008L51.7769 46.3912C53.9509 46.2305 55.9962 45.4679 57.5823 44.2265C59.1685 42.9851 60.2032 41.3373 60.5191 39.5492C61.8891 31.7931 61.8891 23.9131 60.5191 16.157C60.2036 14.3681 59.1688 12.7195 57.582 11.4776C55.9952 10.2357 53.9491 9.47305 51.7741 9.31278L47.6024 9.00541ZM18.7659 12.407C28.2381 11.7042 37.7672 11.7042 47.2394 12.407L51.4111 12.7167C52.6617 12.8086 53.8384 13.247 54.751 13.9608C55.6637 14.6747 56.259 15.6225 56.4409 16.651C57.753 24.0796 57.753 31.6266 56.4409 39.0552C56.259 40.0837 55.6637 41.0315 54.751 41.7454C53.8384 42.4593 52.6617 42.8976 51.4111 42.9896L47.2394 43.2992C37.7684 44.0005 28.2369 44.0005 18.7659 43.2992L14.5941 42.9896C13.3435 42.8976 12.1669 42.4593 11.2542 41.7454C10.3416 41.0315 9.74624 40.0837 9.56438 39.0552C8.25223 31.6266 8.25223 24.0796 9.56438 16.651C9.74624 15.6225 10.3416 14.6747 11.2542 13.9608C12.1669 13.247 13.3435 12.8086 14.5941 12.7167L18.7659 12.407Z" fill="#5BB656"/>
</svg>
