<svg width="65" height="65" viewBox="0 0 65 65" fill="none" xmlns="http://www.w3.org/2000/svg">
<path d="M63.6305 57.0638C64.5024 57.9356 64.9923 59.1181 64.9923 60.3511C64.9923 61.584 64.5024 62.7665 63.6305 63.6384C62.7586 64.5102 61.5761 65 60.3431 65C59.11 65 57.9275 64.5102 57.0556 63.6384L32.5 39.0765L7.93669 63.6306C7.06479 64.5025 5.88225 64.9923 4.64921 64.9923C3.41616 64.9923 2.23362 64.5025 1.36172 63.6306C0.489826 62.7588 1.29922e-08 61.5763 0 60.3433C-1.29922e-08 59.1104 0.489826 57.9279 1.36172 57.056L25.925 32.5019L1.36946 7.94008C0.49756 7.06824 0.00773542 5.88577 0.00773543 4.6528C0.00773545 3.41982 0.49756 2.23735 1.36946 1.36551C2.24135 0.493664 3.42389 0.00386676 4.65694 0.00386675C5.88999 0.00386674 7.07253 0.493664 7.94443 1.36551L32.5 25.9274L57.0633 1.36164C57.9352 0.489796 59.1177 -2.05413e-08 60.3508 0C61.5838 2.05413e-08 62.7664 0.489796 63.6383 1.36164C64.5102 2.23348 65 3.41595 65 4.64893C65 5.8819 64.5102 7.06437 63.6383 7.93622L39.075 32.5019L63.6305 57.0638Z" fill="#0FA958"/>
</svg>
