<svg width="25" height="40" viewBox="0 0 40 40" fill="none" xmlns="http://www.w3.org/2000/svg">
<path d="M13.8462 21.5993C13.8462 22.074 13.7108 22.538 13.4572 22.9327C13.2037 23.3274 12.8433 23.6351 12.4216 23.8167C11.9999 23.9984 11.5359 24.0459 11.0883 23.9533C10.6406 23.8607 10.2294 23.6321 9.90668 23.2964C9.58394 22.9608 9.36415 22.5331 9.27511 22.0676C9.18607 21.602 9.23177 21.1194 9.40643 20.6808C9.5811 20.2423 9.87688 19.8674 10.2564 19.6037C10.6359 19.34 11.082 19.1992 11.5385 19.1992C12.1505 19.1992 12.7375 19.4521 13.1702 19.9022C13.603 20.3523 13.8462 20.9628 13.8462 21.5993ZM28.4615 19.1992C28.0051 19.1992 27.559 19.34 27.1795 19.6037C26.8 19.8674 26.5042 20.2423 26.3295 20.6808C26.1548 21.1194 26.1091 21.602 26.1982 22.0676C26.2872 22.5331 26.507 22.9608 26.8298 23.2964C27.1525 23.6321 27.5637 23.8607 28.0113 23.9533C28.459 24.0459 28.923 23.9984 29.3447 23.8167C29.7663 23.6351 30.1267 23.3274 30.3803 22.9327C30.6339 22.538 30.7692 22.074 30.7692 21.5993C30.7692 20.9628 30.5261 20.3523 30.0933 19.9022C29.6605 19.4521 29.0736 19.1992 28.4615 19.1992ZM40 3.19864V20.7993C40 31.3857 31.0288 40 20 40C8.97115 40 0 31.3857 0 20.7993V3.19864C0.000281897 2.56593 0.180893 1.94751 0.519009 1.42152C0.857125 0.895538 1.33757 0.4856 1.89963 0.243513C2.46169 0.00142546 3.08013 -0.0619448 3.67681 0.0614098C4.27349 0.184764 4.82161 0.489307 5.25192 0.936553C5.27885 0.964554 5.30192 0.990555 5.325 1.01856L8.65385 4.9987C12.0576 2.78079 15.993 1.6045 20.0096 1.6045C24.0262 1.6045 27.9617 2.78079 31.3654 4.9987L34.675 1.01856C34.6981 0.990555 34.7212 0.964554 34.7481 0.936553C35.1784 0.489307 35.7265 0.184764 36.3232 0.0614098C36.9199 -0.0619448 37.5383 0.00142546 38.1004 0.243513C38.6624 0.4856 39.1429 0.895538 39.481 1.42152C39.8191 1.94751 39.9997 2.56593 40 3.19864ZM36.9231 3.19864L32.7769 8.15882C32.5233 8.46398 32.1682 8.65826 31.7827 8.70276C31.3973 8.74727 31.0099 8.63871 30.6981 8.39883C29.7594 7.67715 28.7523 7.05724 27.6923 6.54876V11.1989C27.6923 11.6233 27.5302 12.0303 27.2417 12.3303C26.9532 12.6304 26.5619 12.799 26.1538 12.799C25.7458 12.799 25.3545 12.6304 25.066 12.3303C24.7775 12.0303 24.6154 11.6233 24.6154 11.1989V5.40872C23.6061 5.13867 22.5769 4.9567 21.5385 4.8647V11.1989C21.5385 11.6233 21.3764 12.0303 21.0879 12.3303C20.7993 12.6304 20.408 12.799 20 12.799C19.592 12.799 19.2007 12.6304 18.9121 12.3303C18.6236 12.0303 18.4615 11.6233 18.4615 11.1989V4.8647C17.4231 4.9567 16.3939 5.13867 15.3846 5.40872V11.1989C15.3846 11.6233 15.2225 12.0303 14.934 12.3303C14.6455 12.6304 14.2542 12.799 13.8462 12.799C13.4381 12.799 13.0468 12.6304 12.7583 12.3303C12.4698 12.0303 12.3077 11.6233 12.3077 11.1989V6.54876C11.2477 7.05724 10.2406 7.67715 9.30192 8.39883C8.99081 8.63942 8.60384 8.74898 8.2184 8.70559C7.83296 8.6622 7.47749 8.46907 7.22308 8.16482L3.07692 3.19864V20.7993C3.07692 29.1316 9.84808 35.9999 18.4615 36.7339V32.6617L15.8346 29.9296C15.6918 29.781 15.5785 29.6045 15.5013 29.4103C15.4241 29.2161 15.3844 29.008 15.3844 28.7979C15.3845 28.5877 15.4244 28.3797 15.5018 28.1855C15.5792 27.9914 15.6926 27.8151 15.8356 27.6665C16.1243 27.3666 16.5157 27.1982 16.9238 27.1983C17.1258 27.1984 17.3259 27.2399 17.5125 27.3204C17.6992 27.4009 17.8687 27.5189 18.0115 27.6675L20 29.7356L21.9885 27.6675C22.1313 27.5189 22.3008 27.4009 22.4875 27.3204C22.6741 27.2399 22.8742 27.1984 23.0762 27.1983C23.2783 27.1982 23.4784 27.2395 23.6651 27.3199C23.8518 27.4002 24.0215 27.518 24.1644 27.6665C24.3074 27.8151 24.4208 27.9914 24.4982 28.1855C24.5756 28.3797 24.6155 28.5877 24.6156 28.7979C24.6157 29.008 24.5759 29.2161 24.4987 29.4103C24.4215 29.6045 24.3082 29.781 24.1654 29.9296L21.5385 32.6617V36.7339C30.1519 35.9958 36.9231 29.1336 36.9231 20.7993V3.19864Z" fill="#5BB656"/>
</svg>
