<svg width="30" height="40" viewBox="0 0 40 40" fill="none" xmlns="http://www.w3.org/2000/svg">
<g clip-path="url(#clip0_472_718)">
<path d="M33.4267 31.5H13.9352C8.80066 31.5 6.23516 31.5 4.66891 29.5452C1.69916 25.8352 5.08366 15.9652 7.13291 12.25C7.82766 16.45 14.9834 16.3328 17.5892 15.75C15.8532 12.2518 18.1702 11.0845 19.3287 10.5H19.3322C24.4999 16.625 35.5512 19.957 38.2584 26.6332C39.4292 29.5172 36.0937 31.5 33.4267 31.5Z" stroke="#5BB656" stroke-width="1.5" stroke-linecap="round" stroke-linejoin="round"/>
<path d="M3.5 24.5C10.7887 27.0025 15.2793 27.727 21.0385 25.907C22.7833 25.3557 23.6548 25.0793 24.199 25.116C24.7415 25.1545 25.8528 25.6707 28.0718 26.7067C30.842 27.9982 34.6447 28.742 38.5 26.8765M23.625 16.625L26.25 14M27.125 19.25L29.75 16.625" stroke="#5BB656" stroke-width="1.5" stroke-linecap="round" stroke-linejoin="round"/>
</g>
<defs>
<clipPath id="clip0_472_718">
<rect width="40" height="40" fill="white"/>
</clipPath>
</defs>
</svg>
