<svg width="28" height="40" viewBox="0 0 28 40" fill="none" xmlns="http://www.w3.org/2000/svg">
<path d="M17.2555 2.52836L14.4349 17.3478L24.653 17.3821L10.7443 37.4721L13.5649 21.1684L3.34738 21.1327L17.2555 2.52836ZM17.2574 0.0283984C17.1899 0.0283984 17.1224 0.0308594 17.0562 0.0358203C16.6149 0.0714844 16.3224 0.218984 15.9755 0.452109C15.7802 0.582318 15.6041 0.739262 15.4524 0.918359C15.4069 0.972123 15.3639 1.02802 15.3236 1.08586L1.3155 19.6252C0.762378 20.3834 0.681128 21.384 1.10613 22.2203C1.5305 23.0565 2.38863 23.5865 3.32925 23.5934L10.5455 23.6459L8.27675 37.0128C8.06113 38.1615 8.67363 39.3065 9.75175 39.7678C10.0651 39.9024 10.4026 39.9718 10.7436 39.9715C11.5292 39.9715 12.1748 39.604 12.6593 38.9403L26.6849 18.8502C27.238 18.0921 27.3187 17.0902 26.8943 16.2552C26.4699 15.4189 25.6118 14.8889 24.6711 14.8821L17.4549 14.8696L19.6993 3.11645C19.7468 2.92402 19.7707 2.72653 19.7705 2.52832C19.7705 1.17582 18.6936 0.0733203 17.3461 0.0295703C17.3162 0.0283203 17.2867 0.0283984 17.2574 0.0283984Z" fill="#5BB656"/>
</svg>
