<svg width="38" height="38" viewBox="0 0 38 38" fill="none" xmlns="http://www.w3.org/2000/svg">
<path d="M38 12.2737C38 26.1312 20.3928 37.3478 19.6429 37.811C19.4453 37.9351 19.2244 38 19 38C18.7756 38 18.5547 37.9351 18.3571 37.811C17.6072 37.3478 0 26.1312 0 12.2737C0.00314304 9.01966 1.11228 5.89992 3.08408 3.59894C5.05588 1.29797 7.72931 0.00366774 10.5179 0C14.021 0 17.0881 1.75791 19 4.72934C20.9119 1.75791 23.979 0 27.4821 0C30.2707 0.00366774 32.9441 1.29797 34.9159 3.59894C36.8877 5.89992 37.9969 9.01966 38 12.2737Z" fill="#5BB656"/>
</svg>
