<svg width="38" height="38" viewBox="0 0 38 38" fill="none" xmlns="http://www.w3.org/2000/svg">
<path d="M38 15.0269C38 16.1218 37.7214 17.1922 37.1995 18.1026C36.6775 19.0131 35.9357 19.7226 35.0677 20.1417C34.1998 20.5607 33.2447 20.6703 32.3233 20.4567C31.4019 20.2431 30.5555 19.7158 29.8912 18.9416C29.2269 18.1673 28.7746 17.1809 28.5913 16.1069C28.408 15.033 28.5021 13.9199 28.8616 12.9083C29.2211 11.8966 29.8299 11.032 30.611 10.4237C31.3922 9.81535 32.3105 9.49066 33.25 9.49066C34.5098 9.49066 35.718 10.0739 36.6088 11.1122C37.4996 12.1504 38 13.5586 38 15.0269ZM9.5 15.0269C9.5 13.9319 9.22142 12.8615 8.69948 11.9511C8.17755 11.0407 7.4357 10.3311 6.56775 9.91208C5.6998 9.49305 4.74473 9.38342 3.82332 9.59703C2.90191 9.81065 2.05554 10.3379 1.39124 11.1122C0.726946 11.8864 0.274552 12.8729 0.091272 13.9468C-0.0920077 15.0207 0.0020581 16.1339 0.361574 17.1455C0.721091 18.1571 1.32991 19.0217 2.11104 19.6301C2.89218 20.2384 3.81054 20.5631 4.75 20.5631C6.00978 20.5631 7.21796 19.9798 8.10876 18.9416C8.99956 17.9033 9.5 16.4952 9.5 15.0269ZM12.8929 11.0724C13.8323 11.0724 14.7507 10.7477 15.5318 10.1394C16.313 9.53109 16.9218 8.66645 17.2813 7.65484C17.6408 6.64322 17.7349 5.53008 17.5516 4.45616C17.3683 3.38224 16.9159 2.39578 16.2516 1.62152C15.5873 0.847269 14.7409 0.319995 13.8195 0.106379C12.8981 -0.107237 11.9431 0.00239875 11.0751 0.421422C10.2072 0.840445 9.46531 1.55004 8.94338 2.46046C8.42144 3.37089 8.14286 4.44126 8.14286 5.53622C8.14286 7.00451 8.6433 8.41267 9.5341 9.45091C10.4249 10.4892 11.6331 11.0724 12.8929 11.0724ZM25.1071 11.0724C26.0466 11.0724 26.965 10.7477 27.7461 10.1394C28.5272 9.53109 29.1361 8.66645 29.4956 7.65484C29.8551 6.64322 29.9492 5.53008 29.7659 4.45616C29.5826 3.38224 29.1302 2.39578 28.4659 1.62152C27.8016 0.847269 26.9552 0.319995 26.0338 0.106379C25.1124 -0.107237 24.1573 0.00239875 23.2894 0.421422C22.4214 0.840445 21.6796 1.55004 21.1577 2.46046C20.6357 3.37089 20.3571 4.44126 20.3571 5.53622C20.3571 7.00451 20.8576 8.41267 21.7484 9.45091C22.6392 10.4892 23.8474 11.0724 25.1071 11.0724ZM29.0293 23.1058C28.3399 22.6625 27.7323 22.0652 27.2413 21.348C26.7502 20.6308 26.3853 19.8077 26.1674 18.926C25.7162 17.1173 24.7735 15.5282 23.481 14.3974C22.1885 13.2666 20.6161 12.6553 19 12.6553C17.3839 12.6553 15.8115 13.2666 14.519 14.3974C13.2265 15.5282 12.2838 17.1173 11.8326 18.926C11.3967 20.7002 10.3748 22.2006 8.99107 23.0979C7.66365 23.935 6.61358 25.2641 6.00693 26.8749C5.40029 28.4856 5.2717 30.2861 5.64151 31.9916C6.01133 33.6971 6.85842 35.2102 8.04883 36.2916C9.23923 37.373 10.705 37.961 12.2143 37.9626C13.1187 37.9655 14.0144 37.755 14.8471 37.3438C17.5022 36.0678 20.4825 36.0678 23.1376 37.3438C24.7457 38.1589 26.5622 38.2168 28.2061 37.5053C29.8501 36.7938 31.1939 35.3681 31.9558 33.5272C32.7177 31.6863 32.8385 29.573 32.2929 27.6306C31.7473 25.6881 30.5777 24.0672 29.0293 23.1078V23.1058Z" fill="#5BB656"/>
</svg>
