<svg width="52" height="41" viewBox="0 0 52 41" fill="none" xmlns="http://www.w3.org/2000/svg">
<path d="M51.9498 35.5752V5.42515C51.9498 2.64465 49.9063 0.400146 47.3748 0.400146H4.64434C2.11284 0.400146 0.0693359 2.64465 0.0693359 5.42515V35.5752C0.0693359 38.3557 2.11284 40.6002 4.64434 40.6002H47.3748C49.9063 40.6002 51.9498 38.3557 51.9498 35.5752ZM47.9543 5.05665C48.9608 6.16215 48.4118 7.30115 47.8628 7.87065L35.4798 20.3326L47.3748 33.9337C47.7408 34.4027 47.9848 35.1397 47.5578 35.6422C47.1613 36.1782 46.2463 36.1446 45.8498 35.8096L32.5213 23.3141L25.9943 29.8466L19.4978 23.3141L6.16934 35.8096C5.77284 36.1446 4.85784 36.1782 4.46134 35.6422C4.03434 35.1397 4.27834 34.4027 4.64434 33.9337L16.5393 20.3326L4.15634 7.87065C3.60734 7.30115 3.05834 6.16215 4.06484 5.05665C5.07134 3.95115 6.10834 4.48715 6.96234 5.29115L25.9943 22.1751L45.0568 5.29115C45.9108 4.48715 46.9478 3.95115 47.9543 5.05665Z" fill="white"/>
</svg>
