<svg width="30" height="40" viewBox="0 0 40 40" fill="none" xmlns="http://www.w3.org/2000/svg">
<g clip-path="url(#clip0_472_752)">
<path fill-rule="evenodd" clip-rule="evenodd" d="M25 8.16998C25.4526 8.00996 25.937 7.9609 26.4125 8.02691C26.8881 8.09293 27.3408 8.2721 27.7327 8.54938C28.1246 8.82665 28.4442 9.19393 28.6648 9.62036C28.8853 10.0468 29.0003 10.5199 29 11V21.15L30.056 19.83C30.5892 19.1693 31.3563 18.7393 32.1982 18.6291C33.04 18.5189 33.8919 18.737 34.5772 19.2381C35.2626 19.7392 35.7287 20.485 35.8789 21.3206C36.0291 22.1562 35.8519 23.0175 35.384 23.726L31.926 28.914C30.7484 30.6824 29.1001 32.0865 27.167 32.968L27.997 42.917C28.0085 43.0549 27.9912 43.1936 27.9463 43.3245C27.9014 43.4554 27.8299 43.5755 27.7362 43.6773C27.6425 43.7791 27.5286 43.8603 27.4019 43.9159C27.2752 43.9714 27.1384 44 27 44H15C14.8616 44 14.7248 43.9714 14.5981 43.9159C14.4714 43.8603 14.3575 43.7791 14.2638 43.6773C14.1701 43.5755 14.0986 43.4554 14.0537 43.3245C14.0088 43.1936 13.9915 43.0549 14.003 42.917L14.811 33.233C13.6634 32.6457 12.7003 31.7529 12.0279 30.6531C11.3554 29.5533 10.9997 28.2891 11 27V13C10.9997 12.5199 11.1147 12.0468 11.3352 11.6204C11.5558 11.1939 11.8754 10.8267 12.2673 10.5494C12.6592 10.2721 13.1119 10.0929 13.5875 10.0269C14.063 9.9609 14.5474 10.01 15 10.17V8.99998C14.9999 8.51048 15.1195 8.02838 15.3485 7.59574C15.5774 7.16309 15.9088 6.79305 16.3136 6.51789C16.7185 6.24274 17.1845 6.07082 17.6711 6.01715C18.1576 5.96348 18.6499 6.02968 19.105 6.20998C19.2972 5.50973 19.7367 4.9029 20.3422 4.502C20.9476 4.1011 21.6779 3.93332 22.3976 4.02977C23.1173 4.12622 23.7777 4.48036 24.2562 5.02652C24.7347 5.57269 24.999 6.27384 25 6.99998V8.16998ZM22 5.99998C21.7348 5.99998 21.4804 6.10534 21.2929 6.29288C21.1054 6.48041 21 6.73477 21 6.99998V20H19V8.99998C19 8.73477 18.8946 8.48041 18.7071 8.29288C18.5196 8.10534 18.2652 7.99998 18 7.99998C17.7348 7.99998 17.4804 8.10534 17.2929 8.29288C17.1054 8.48041 17 8.73477 17 8.99998V20H15V13C15 12.7348 14.8946 12.4804 14.7071 12.2929C14.5196 12.1053 14.2652 12 14 12C13.7348 12 13.4804 12.1053 13.2929 12.2929C13.1054 12.4804 13 12.7348 13 13V27C12.9996 28.014 13.3076 29.0042 13.8831 29.8392C14.4585 30.6741 15.2742 31.3144 16.222 31.675C16.4245 31.7523 16.5964 31.8932 16.7118 32.0766C16.8272 32.2601 16.8799 32.476 16.862 32.692L16.087 42H25.913L25.113 32.409C25.0948 32.1923 25.1478 31.9756 25.2638 31.7918C25.3798 31.6079 25.5526 31.4668 25.756 31.39C27.5955 30.6943 29.1712 29.4404 30.262 27.804L33.72 22.617C33.9059 22.3374 33.9767 21.9969 33.9178 21.6663C33.859 21.3358 33.6748 21.0407 33.4038 20.8425C33.1328 20.6443 32.7958 20.5583 32.463 20.6023C32.1301 20.6464 31.8271 20.8171 31.617 21.079L28.781 24.625C28.6516 24.7869 28.475 24.9045 28.2758 24.9617C28.0765 25.0188 27.8645 25.0127 27.6689 24.944C27.4733 24.8754 27.3039 24.7477 27.184 24.5786C27.0642 24.4094 26.9999 24.2073 27 24V11C27 10.7348 26.8946 10.4804 26.7071 10.2929C26.5196 10.1053 26.2652 9.99998 26 9.99998C25.7348 9.99998 25.4804 10.1053 25.2929 10.2929C25.1054 10.4804 25 10.7348 25 11V20H23V6.99998C23 6.73477 22.8946 6.48041 22.7071 6.29288C22.5196 6.10534 22.2652 5.99998 22 5.99998Z" fill="#5BB656"/>
<path d="M7 14H9V16H7V14ZM7 16V29C6.99961 30.289 7.35515 31.5531 8.02743 32.6529C8.69971 33.7527 9.66261 34.6456 10.81 35.233L10.247 42H12.255L12.863 34.693C12.8812 34.4769 12.8285 34.2607 12.7131 34.0771C12.5977 33.8934 12.4256 33.7523 12.223 33.675C11.275 33.3146 10.4591 32.6744 9.88347 31.8394C9.30783 31.0044 8.99971 30.0142 9 29V16H7Z" fill="#5BB656"/>
</g>
<defs>
<clipPath id="clip0_472_752">
<rect width="40" height="40" fill="white"/>
</clipPath>
</defs>
</svg>
