<svg width="42" height="42" viewBox="0 0 52 49" fill="none" xmlns="http://www.w3.org/2000/svg">
<path d="M25.8933 0.828247C18.8865 0.828247 18.0054 0.858084 15.2524 0.971464C12.4994 1.09081 10.6243 1.49062 8.98148 2.08139C7.25752 2.6791 5.6964 3.61918 4.40819 4.83533C3.09268 6.02624 2.0758 7.46945 1.42926 9.0632C0.790223 10.5789 0.354518 12.3154 0.228648 14.8515C0.106005 17.4026 0.0737305 18.2142 0.0737305 24.7007C0.0737305 31.1812 0.106005 31.9928 0.228648 34.5379C0.357746 37.08 0.790223 38.8135 1.42926 40.3322C2.09088 41.9016 2.97198 43.2323 4.40819 44.56C5.84118 45.8878 7.28062 46.7053 8.97825 47.314C10.6243 47.9048 12.4962 48.3075 15.246 48.4239C18.0022 48.5373 18.8801 48.5671 25.8933 48.5671C32.9065 48.5671 33.7812 48.5373 36.5374 48.4239C39.284 48.3046 41.1656 47.9048 42.8083 47.314C44.5311 46.7159 46.0911 45.7758 47.3784 44.56C48.8146 43.2323 49.6957 41.9016 50.3573 40.3322C50.9931 38.8135 51.4289 37.08 51.5579 34.5379C51.6806 31.9928 51.7129 31.1812 51.7129 24.6977C51.7129 18.2142 51.6806 17.4026 51.5579 14.8545C51.4289 12.3154 50.9931 10.5789 50.3573 9.0632C49.7108 7.46945 48.6939 6.02624 47.3784 4.83533C46.0902 3.61918 44.5291 2.6791 42.8051 2.08139C41.1591 1.49062 39.2807 1.08783 36.5342 0.971464C33.778 0.858084 32.9033 0.828247 25.8868 0.828247H25.8933ZM23.5792 5.13071H25.8965C32.7904 5.13071 33.6069 5.1516 36.3276 5.26796C38.845 5.37239 40.2135 5.76325 41.1236 6.08848C42.3275 6.52111 43.1892 7.04027 44.0929 7.8757C44.9966 8.71113 45.5549 9.50479 46.0229 10.6207C46.3779 11.4591 46.7975 12.7242 46.9104 15.0515C47.0363 17.5667 47.0621 18.3216 47.0621 24.6917C47.0621 31.0619 47.0363 31.8197 46.9104 34.335C46.7975 36.6622 46.3747 37.9243 46.0229 38.7657C45.606 39.8008 44.9457 40.7373 44.0896 41.5077C43.186 42.3432 42.3275 42.8594 41.1204 43.292C40.2167 43.6202 38.8483 44.0081 36.3276 44.1155C33.6069 44.2289 32.7904 44.2557 25.8965 44.2557C19.0027 44.2557 18.1829 44.2289 15.4622 44.1155C12.9448 44.0081 11.5796 43.6202 10.6694 43.292C9.54897 42.9079 8.5348 42.2984 7.70019 41.5077C6.84257 40.7368 6.18112 39.7991 5.76372 38.7628C5.41193 37.9243 4.98913 36.6593 4.87617 34.332C4.75353 31.8167 4.72771 31.0619 4.72771 24.6858C4.72771 18.3096 4.75353 17.5607 4.87617 15.0455C4.99236 12.7182 5.41193 11.4531 5.76695 10.6117C6.23493 9.49882 6.7965 8.70218 7.70019 7.86675C8.60387 7.03132 9.46237 6.51514 10.6694 6.08251C11.5796 5.7543 12.9448 5.36642 15.4622 5.25901C17.844 5.15757 18.7671 5.12773 23.5792 5.12475V5.13071ZM39.6777 9.09304C39.2708 9.09304 38.8679 9.16713 38.492 9.31108C38.1161 9.45502 37.7746 9.66601 37.4869 9.93198C37.1992 10.198 36.9709 10.5137 36.8152 10.8612C36.6595 11.2088 36.5794 11.5812 36.5794 11.9574C36.5794 12.3335 36.6595 12.706 36.8152 13.0535C36.9709 13.401 37.1992 13.7168 37.4869 13.9828C37.7746 14.2487 38.1161 14.4597 38.492 14.6037C38.8679 14.7476 39.2708 14.8217 39.6777 14.8217C40.4995 14.8217 41.2875 14.5199 41.8686 13.9828C42.4496 13.4456 42.7761 12.717 42.7761 11.9574C42.7761 11.1977 42.4496 10.4692 41.8686 9.93198C41.2875 9.39482 40.4995 9.09304 39.6777 9.09304ZM25.8965 12.4407C24.1378 12.4154 22.3912 12.7137 20.7584 13.3184C19.1255 13.923 17.6392 14.8219 16.3857 15.9627C15.1323 17.1036 14.1369 18.4635 13.4574 19.9634C12.778 21.4632 12.4281 23.0731 12.4281 24.6992C12.4281 26.3253 12.778 27.9351 13.4574 29.435C14.1369 30.9349 15.1323 32.2948 16.3857 33.4356C17.6392 34.5764 19.1255 35.4753 20.7584 36.08C22.3912 36.6847 24.1378 36.983 25.8965 36.9576C29.3775 36.9074 32.6974 35.5938 35.1399 33.3004C37.5823 31.0069 38.9512 27.9176 38.9512 24.6992C38.9512 21.4808 37.5823 18.3914 35.1399 16.098C32.6974 13.8045 29.3775 12.4909 25.8965 12.4407ZM25.8965 16.7402C27.0269 16.7402 28.1462 16.946 29.1905 17.3459C30.2348 17.7458 31.1837 18.332 31.983 19.0709C32.7823 19.8098 33.4163 20.687 33.8489 21.6525C34.2815 22.6179 34.5041 23.6527 34.5041 24.6977C34.5041 25.7427 34.2815 26.7774 33.8489 27.7429C33.4163 28.7083 32.7823 29.5856 31.983 30.3245C31.1837 31.0634 30.2348 31.6495 29.1905 32.0494C28.1462 32.4493 27.0269 32.6552 25.8965 32.6552C23.6137 32.6552 21.4243 31.8168 19.81 30.3245C18.1958 28.8322 17.2889 26.8081 17.2889 24.6977C17.2889 22.5872 18.1958 20.5632 19.81 19.0709C21.4243 17.5786 23.6137 16.7402 25.8965 16.7402Z" fill="#5BB656"/>
</svg>
