<svg width="30" height="30" viewBox="0 0 256 256" fill="none" xmlns="http://www.w3.org/2000/svg">
<path d="M238.001 88.18C237.623 101.6 232.111 114.364 222.601 123.84L187.851 158.59C182.973 163.494 177.171 167.381 170.78 170.026C164.389 172.671 157.537 174.022 150.621 174H150.571C143.539 173.995 136.579 172.58 130.103 169.84C123.627 167.1 117.766 163.091 112.865 158.047C107.965 153.004 104.125 147.03 101.572 140.478C99.0185 133.926 97.8043 126.929 98.0007 119.9C98.0424 118.337 98.6929 116.851 99.8136 115.76C100.934 114.67 102.437 114.059 104.001 114.06H104.171C105.76 114.104 107.267 114.778 108.361 115.933C109.454 117.088 110.044 118.63 110.001 120.22C109.846 125.648 110.78 131.051 112.75 136.112C114.719 141.172 117.683 145.786 121.466 149.681C125.249 153.576 129.775 156.673 134.776 158.789C139.777 160.905 145.151 161.997 150.581 162C155.918 162.013 161.205 160.968 166.137 158.925C171.068 156.882 175.545 153.883 179.311 150.1L214.061 115.36C221.4 107.687 225.444 97.4465 225.328 86.8294C225.211 76.2123 220.943 66.0627 213.437 58.5529C205.932 51.0431 195.784 46.7698 185.167 46.6478C174.55 46.5258 164.307 50.5647 156.631 57.9L145.631 68.9C144.505 70.0258 142.978 70.6583 141.386 70.6583C139.793 70.6583 138.267 70.0258 137.141 68.9C136.015 67.7742 135.382 66.2472 135.382 64.655C135.382 63.0628 136.015 61.5358 137.141 60.41L148.141 49.41C153.027 44.5217 158.829 40.6439 165.214 37.9983C171.6 35.3526 178.444 33.9909 185.356 33.9909C192.268 33.9909 199.112 35.3526 205.497 37.9983C211.883 40.6439 217.684 44.5217 222.571 49.41C227.64 54.4861 231.623 60.5415 234.276 67.207C236.928 73.8726 238.196 81.0086 238.001 88.18ZM110.381 187.08L99.3807 198.08C95.6124 201.874 91.1277 204.882 86.187 206.929C81.2464 208.975 75.9483 210.019 70.6007 210C62.5673 209.994 54.716 207.607 48.0389 203.14C41.3618 198.674 36.1587 192.328 33.0872 184.905C30.0157 177.482 29.2136 169.315 30.7824 161.436C32.3511 153.557 36.2202 146.32 41.9007 140.64L76.6207 105.9C82.3695 100.136 89.7172 96.2322 97.7113 94.6941C105.705 93.1561 113.977 94.0549 121.454 97.274C128.932 100.493 135.269 105.884 139.646 112.748C144.023 119.612 146.237 127.633 146.001 135.77C145.958 137.36 146.548 138.902 147.641 140.057C148.734 141.212 150.241 141.886 151.831 141.93H152.001C153.565 141.931 155.067 141.32 156.188 140.23C157.308 139.139 157.959 137.653 158.001 136.09C158.299 125.554 155.427 115.17 149.757 106.285C144.086 97.3997 135.878 90.4218 126.196 86.2552C116.514 82.0886 105.803 80.9253 95.4525 82.9159C85.1015 84.9066 75.5868 89.9594 68.1407 97.42L33.3807 132.16C26.0241 139.519 21.0138 148.893 18.9829 159.098C16.952 169.303 17.9917 179.881 21.9706 189.495C25.9495 199.11 32.6891 207.329 41.3376 213.115C49.9861 218.9 60.1555 221.992 70.5607 222C77.4763 222.02 84.3272 220.668 90.7163 218.021C97.1054 215.374 102.906 211.485 107.781 206.58L118.781 195.58C119.345 195.024 119.794 194.362 120.101 193.632C120.408 192.902 120.567 192.118 120.57 191.326C120.573 190.534 120.419 189.75 120.117 189.017C119.815 188.285 119.371 187.62 118.81 187.06C118.25 186.501 117.584 186.057 116.852 185.756C116.119 185.455 115.334 185.302 114.542 185.306C113.75 185.309 112.967 185.47 112.237 185.778C111.507 186.086 110.846 186.535 110.291 187.1L110.381 187.08Z" fill="#5BB656"/>
</svg>
