<svg width="47" height="35" viewBox="0 0 71 62" fill="none" xmlns="http://www.w3.org/2000/svg">
<path d="M35.7296 48.7542L20.6076 29.7768C18.1324 27.1797 16.5384 24.0111 16.0112 20.64C15.4841 17.2689 16.0455 13.8342 17.6301 10.7357C19.2147 7.63721 21.7572 5.00257 24.9616 3.13861C28.1659 1.27464 31.9003 0.258067 35.7296 0.207275C41.0378 0.253892 46.1089 2.16812 49.8322 5.5307C53.5555 8.89329 55.6275 13.4301 55.5944 18.1476C55.5964 22.2629 54.0199 26.2559 51.1248 29.4679L35.7296 48.7542ZM35.7296 4.62064C31.7364 4.66139 27.9247 6.10877 25.1313 8.64497C22.3379 11.1812 20.7913 14.5989 20.831 18.1476C20.8498 21.3862 22.1608 24.514 24.5309 26.9743L35.7296 41.075L47.2263 26.6874C49.4117 24.2633 50.6106 21.2537 50.6282 18.1476C50.6679 14.5989 49.1213 11.1812 46.3279 8.64497C43.5346 6.10877 39.7228 4.66139 35.7296 4.62064Z" fill="#5BB656"/>
<path d="M35.7294 20.0674C38.4721 20.0674 40.6956 18.0915 40.6956 15.6541C40.6956 13.2167 38.4721 11.2407 35.7294 11.2407C32.9866 11.2407 30.7632 13.2167 30.7632 15.6541C30.7632 18.0915 32.9866 20.0674 35.7294 20.0674Z" fill="#5BB656"/>
<path d="M65.5268 22.274H60.5606V26.6874H65.5268V57.5809H5.9325V26.6874H10.8987V22.274H5.9325C4.61538 22.274 3.35221 22.739 2.42087 23.5667C1.48953 24.3944 0.966309 25.5169 0.966309 26.6874V57.5809C0.966309 58.7514 1.48953 59.874 2.42087 60.7016C3.35221 61.5293 4.61538 61.9943 5.9325 61.9943H65.5268C66.8439 61.9943 68.1071 61.5293 69.0384 60.7016C69.9698 59.874 70.493 58.7514 70.493 57.5809V26.6874C70.493 25.5169 69.9698 24.3944 69.0384 23.5667C68.1071 22.739 66.8439 22.274 65.5268 22.274Z" fill="#5BB656"/>
</svg>
