<svg width="38" height="38" viewBox="0 0 38 38" fill="none" xmlns="http://www.w3.org/2000/svg">
<path d="M33.7778 9.90998C32.9427 9.90998 32.1264 10.2006 31.432 10.7451C30.7377 11.2895 30.1965 12.0634 29.877 12.9688C29.5574 13.8742 29.4738 14.8705 29.6367 15.8316C29.7996 16.7928 30.2017 17.6757 30.7922 18.3687C31.3827 19.0617 32.135 19.5336 32.9541 19.7248C33.7731 19.9159 34.622 19.8178 35.3936 19.4428C36.1651 19.0678 36.8245 18.4327 37.2884 17.6178C37.7524 16.803 38 15.845 38 14.865C38 13.5508 37.5552 12.2905 36.7633 11.3613C35.9715 10.432 34.8976 9.90998 33.7778 9.90998ZM33.7778 18.1683C33.2211 18.1683 32.6768 17.9746 32.214 17.6116C31.7511 17.2486 31.3903 16.7327 31.1772 16.1291C30.9642 15.5255 30.9084 14.8613 31.017 14.2205C31.1257 13.5797 31.3937 12.9911 31.7874 12.5292C32.1811 12.0672 32.6826 11.7526 33.2286 11.6251C33.7747 11.4977 34.3406 11.5631 34.855 11.8131C35.3693 12.0631 35.8089 12.4865 36.1182 13.0297C36.4275 13.573 36.5926 14.2116 36.5926 14.865C36.5926 15.7411 36.296 16.5813 35.7682 17.2008C35.2403 17.8203 34.5243 18.1683 33.7778 18.1683ZM8.44445 14.865C8.44445 13.885 8.19682 12.927 7.73287 12.1121C7.26893 11.2973 6.60951 10.6622 5.838 10.2872C5.06649 9.91213 4.21754 9.814 3.39851 10.0052C2.57948 10.1964 1.82715 10.6683 1.23666 11.3613C0.646174 12.0542 0.244046 12.9371 0.0811307 13.8983C-0.0817847 14.8595 0.00182943 15.8558 0.321399 16.7612C0.640969 17.6666 1.18214 18.4404 1.87648 18.9849C2.57082 19.5294 3.38715 19.82 4.22222 19.82C5.34203 19.82 6.41597 19.2979 7.20779 18.3687C7.99961 17.4394 8.44445 16.1791 8.44445 14.865ZM4.22222 18.1683C3.66551 18.1683 3.12129 17.9746 2.6584 17.6116C2.1955 17.2486 1.83472 16.7327 1.62167 16.1291C1.40863 15.5255 1.35289 14.8613 1.4615 14.2205C1.57011 13.5797 1.83819 12.9911 2.23185 12.5292C2.62551 12.0672 3.12706 11.7526 3.67308 11.6251C4.2191 11.4977 4.78507 11.5631 5.29941 11.8131C5.81375 12.0631 6.25336 12.4865 6.56266 13.0297C6.87195 13.573 7.03704 14.2116 7.03704 14.865C7.03704 15.7411 6.74048 16.5813 6.2126 17.2008C5.68472 17.8203 4.96876 18.1683 4.22222 18.1683ZM12.6667 9.90998C13.5017 9.90998 14.3181 9.61938 15.0124 9.07492C15.7067 8.53046 16.2479 7.75659 16.5675 6.85119C16.8871 5.94578 16.9707 4.9495 16.8078 3.98832C16.6448 3.02715 16.2427 2.14425 15.6522 1.45129C15.0617 0.758317 14.3094 0.2864 13.4904 0.095211C12.6714 -0.0959784 11.8224 0.00214693 11.0509 0.377178C10.2794 0.75221 9.61996 1.3873 9.15602 2.20215C8.69207 3.01699 8.44445 3.97499 8.44445 4.95499C8.44445 6.26914 8.88929 7.52946 9.68111 8.4587C10.4729 9.38794 11.5469 9.90998 12.6667 9.90998ZM12.6667 1.65167C13.2234 1.65167 13.7676 1.8454 14.2305 2.20838C14.6934 2.57135 15.0542 3.08726 15.2672 3.69086C15.4803 4.29447 15.536 4.95866 15.4274 5.59944C15.3188 6.24022 15.0507 6.82882 14.657 7.2908C14.2634 7.75278 13.7618 8.06739 13.2158 8.19485C12.6698 8.32231 12.1038 8.25689 11.5895 8.00687C11.0751 7.75685 10.6355 7.33345 10.3262 6.79022C10.0169 6.24699 9.85185 5.60833 9.85185 4.95499C9.85185 4.0789 10.1484 3.23868 10.6763 2.61919C11.2042 1.99969 11.9201 1.65167 12.6667 1.65167ZM25.3333 9.90998C26.1684 9.90998 26.9847 9.61938 27.6791 9.07492C28.3734 8.53046 28.9146 7.75659 29.2342 6.85119C29.5537 5.94578 29.6373 4.9495 29.4744 3.98832C29.3115 3.02715 28.9094 2.14425 28.3189 1.45129C27.7284 0.758317 26.9761 0.2864 26.157 0.095211C25.338 -0.0959784 24.4891 0.00214693 23.7176 0.377178C22.946 0.75221 22.2866 1.3873 21.8227 2.20215C21.3587 3.01699 21.1111 3.97499 21.1111 4.95499C21.1111 6.26914 21.556 7.52946 22.3478 8.4587C23.1396 9.38794 24.2135 9.90998 25.3333 9.90998ZM25.3333 1.65167C25.8901 1.65167 26.4343 1.8454 26.8972 2.20838C27.3601 2.57135 27.7208 3.08726 27.9339 3.69086C28.1469 4.29447 28.2027 4.95866 28.0941 5.59944C27.9855 6.24022 27.7174 6.82882 27.3237 7.2908C26.93 7.75278 26.4285 8.06739 25.8825 8.19485C25.3365 8.32231 24.7705 8.25689 24.2561 8.00687C23.7418 7.75685 23.3022 7.33345 22.9929 6.79022C22.6836 6.24699 22.5185 5.60833 22.5185 4.95499C22.5185 4.0789 22.8151 3.23868 23.343 2.61919C23.8708 1.99969 24.5868 1.65167 25.3333 1.65167ZM29.0594 24.0235C27.4536 22.9827 26.2658 21.236 25.7573 19.1676C25.332 17.4505 24.4433 15.9419 23.2247 14.8684C22.0062 13.7948 20.5237 13.2145 19 13.2145C17.4763 13.2145 15.9938 13.7948 14.7753 14.8684C13.5567 15.9419 12.668 17.4505 12.2427 19.1676C11.7358 21.234 10.5506 22.9798 8.94759 24.0214C7.51898 24.9314 6.44323 26.4513 5.94299 28.2663C5.44275 30.0813 5.55633 32.0526 6.26023 33.7721C6.96412 35.4916 8.20442 36.8276 9.72442 37.5037C11.2444 38.1797 12.9277 38.144 14.4259 37.404C17.3528 35.9877 20.6384 35.9877 23.5653 37.404C25.064 38.1542 26.7514 38.1978 28.2767 37.5256C29.802 36.8534 31.0479 35.5172 31.7554 33.7948C32.4629 32.0723 32.5774 30.0962 32.0754 28.2771C31.5733 26.4581 30.4931 24.9361 29.0594 24.0276V24.0235ZM26.037 36.3366C25.372 36.3391 24.7135 36.1825 24.1019 35.8762C20.8281 34.2906 17.1526 34.2906 13.8788 35.8762C13.2733 36.18 12.6215 36.3366 11.963 36.3366C10.866 36.337 9.8004 35.9078 8.93493 35.1169C8.06945 34.326 7.45368 33.2187 7.18521 31.9706C6.91675 30.7225 7.01096 29.4049 7.4529 28.2267C7.89484 27.0485 8.65923 26.0772 9.62491 25.4666C10.5811 24.847 11.4238 24.0122 12.1049 23.01C12.7859 22.0078 13.2919 20.8578 13.5938 19.6259C13.9339 18.2519 14.6448 17.0446 15.6197 16.1856C16.5946 15.3265 17.7808 14.862 19 14.862C20.2192 14.862 21.4054 15.3265 22.3803 16.1856C23.3552 17.0446 24.0661 18.2519 24.4062 19.6259C24.709 20.8587 25.2161 22.0094 25.8983 23.012C26.5806 24.0145 27.4246 24.8494 28.3821 25.4687C29.3474 26.0801 30.1112 27.0521 30.5524 28.2307C30.9936 29.4093 31.0869 30.727 30.8176 31.9749C30.5484 33.2228 29.9319 34.3295 29.0659 35.1196C28.1999 35.9097 27.134 36.338 26.037 36.3366Z" fill="#5BB656"/>
</svg>
