<svg width="38" height="38" viewBox="0 0 38 38" fill="none" xmlns="http://www.w3.org/2000/svg">
<path d="M27.7963 0C24.0244 0 20.7733 2.10446 19 5.59054C17.2267 2.10446 13.9756 0 10.2037 0C7.49851 0.00382577 4.90505 1.26705 2.9922 3.51258C1.07934 5.75811 0.00325899 8.8026 0 11.9783C0 17.8827 3.16667 24.0536 9.39444 30.3153C12.2701 33.1876 15.3749 35.7279 18.6657 37.9009C18.7684 37.9659 18.8833 38 19 38C19.1167 38 19.2316 37.9659 19.3343 37.9009C22.6251 35.7279 25.7299 33.1876 28.6056 30.3153C34.8333 24.0536 38 17.8827 38 11.9783C37.9967 8.8026 36.9207 5.75811 35.0078 3.51258C33.0949 1.26705 30.5015 0.00382577 27.7963 0ZM19 36.228C16.537 34.5759 1.40741 23.971 1.40741 11.9783C1.4102 9.24062 2.33785 6.61604 3.98687 4.68024C5.63589 2.74443 7.87164 1.65545 10.2037 1.65217C13.9175 1.65217 17.0384 3.98793 18.3491 7.74663C18.4021 7.89814 18.4923 8.02773 18.6082 8.11893C18.7241 8.21014 18.8605 8.25883 19 8.25883C19.1395 8.25883 19.2759 8.21014 19.3918 8.11893C19.5077 8.02773 19.5979 7.89814 19.6509 7.74663C20.9616 3.98793 24.0825 1.65217 27.7963 1.65217C30.1284 1.65545 32.3641 2.74443 34.0131 4.68024C35.6622 6.61604 36.5898 9.24062 36.5926 11.9783C36.5926 23.9565 21.463 34.5841 19 36.228Z" fill="#5BB656"/>
</svg>
