<svg width="30" height="40" viewBox="0 0 40 40" fill="none" xmlns="http://www.w3.org/2000/svg">
<g clip-path="url(#clip0_472_692)">
<path d="M25.556 28.8889C25.556 29.1836 25.4389 29.4662 25.2306 29.6746C25.0222 29.8829 24.7396 30 24.4449 30H8.88932C8.64488 30 8.41155 30.2222 8.21155 30.3667L4.44488 33.3333V15.5556C4.44488 15.2609 4.56194 14.9783 4.77032 14.7699C4.97869 14.5615 5.2613 14.4445 5.55599 14.4445H9.84488V12.2222H5.55599C4.67193 12.2222 3.82409 12.5734 3.19897 13.1985C2.57385 13.8237 2.22266 14.6715 2.22266 15.5556V35.5556C2.22431 35.7619 2.2834 35.9637 2.3933 36.1384C2.5032 36.3131 2.65956 36.4537 2.84488 36.5445C3.02341 36.6256 3.22025 36.6581 3.41541 36.6386C3.61056 36.6191 3.79707 36.5483 3.95599 36.4333L9.67821 32.2222H24.6115C25.0327 32.2347 25.4519 32.1605 25.8432 32.0044C26.2345 31.8483 26.5895 31.6134 26.8864 31.3145C27.1833 31.0155 27.4156 30.6588 27.569 30.2664C27.7224 29.8741 27.7936 29.4544 27.7782 29.0333V27.7778H25.556V28.8889Z" fill="#5BB656"/>
<path d="M34.4449 4.44446H15.556C14.6719 4.44446 13.8241 4.79565 13.199 5.42077C12.5738 6.04589 12.2227 6.89374 12.2227 7.77779V21.1111C12.2227 21.9952 12.5738 22.843 13.199 23.4681C13.8241 24.0933 14.6719 24.4445 15.556 24.4445H30.6115L35.9227 28.5667C36.0805 28.6834 36.2665 28.7562 36.4617 28.7777C36.6569 28.7992 36.8543 28.7685 37.0338 28.6889C37.2229 28.5988 37.3826 28.4572 37.4947 28.2803C37.6067 28.1033 37.6665 27.8983 37.6671 27.6889V7.77779C37.6676 6.91266 37.3317 6.08122 36.7304 5.4592C36.1291 4.83718 35.3095 4.4733 34.4449 4.44446ZM35.556 25.4889L31.6671 22.4556C31.4732 22.305 31.2348 22.223 30.9893 22.2222H15.556C15.2613 22.2222 14.9787 22.1052 14.7703 21.8968C14.5619 21.6884 14.4449 21.4058 14.4449 21.1111V7.77779C14.4449 7.48311 14.5619 7.20049 14.7703 6.99212C14.9787 6.78374 15.2613 6.66668 15.556 6.66668H34.4449C34.7419 6.69364 35.0188 6.82826 35.2234 7.04519C35.4281 7.26212 35.5464 7.54638 35.556 7.84446V25.4889Z" fill="#5BB656"/>
</g>
<defs>
<clipPath id="clip0_472_692">
<rect width="40" height="40" fill="white"/>
</clipPath>
</defs>
</svg>
