<svg width="1307" height="562" viewBox="0 0 1307 562" fill="none" xmlns="http://www.w3.org/2000/svg">
<path fill-rule="evenodd" clip-rule="evenodd" d="M1196.78 10.4036C1192.52 9.29333 1188.31 10.4537 1185.21 12.3509C1182.08 14.2615 1179.56 17.1655 1178.13 20.532C1176.7 23.8985 1176.5 27.4036 1177.55 30.4044C1178.58 33.3715 1181.06 36.2792 1185.32 37.3895C1189.59 38.4998 1193.79 37.3394 1196.89 35.4423C1200.03 33.5316 1202.54 30.6276 1203.97 27.2611C1205.4 23.8947 1205.61 20.3895 1204.56 17.3887C1203.52 14.4217 1201.04 11.5139 1196.78 10.4036ZM1239.85 21.6189C1235.58 20.5086 1231.38 21.6689 1228.28 23.5661C1225.14 25.4767 1222.63 28.3807 1221.2 31.7472C1219.77 35.1137 1219.56 38.6189 1220.61 41.6196C1221.65 44.5867 1224.13 47.4944 1228.39 48.6047C1232.66 49.7151 1236.86 48.5547 1239.96 46.6575C1243.1 44.7469 1245.61 41.8429 1247.04 38.4764C1248.47 35.1099 1248.67 31.6047 1247.62 28.604C1246.59 25.6369 1244.11 22.7292 1239.85 21.6189ZM1158.05 34.0336C1153.79 32.9233 1149.59 34.0837 1146.48 35.9809C1143.35 37.8915 1140.83 40.7955 1139.41 44.162C1137.98 47.5285 1137.77 51.0336 1138.82 54.0344C1139.86 57.0015 1142.33 59.9092 1146.6 61.0195C1150.86 62.1298 1155.07 60.9694 1158.17 59.0723C1161.3 57.1616 1163.82 54.2576 1165.25 50.8911C1166.67 47.5246 1166.88 44.0195 1165.83 41.0187C1164.79 38.0517 1162.32 35.1439 1158.05 34.0336ZM1205.43 46.3704C1195.09 43.6787 1185.59 46.0294 1178.41 50.1458C1171.32 54.1969 1166.1 60.1556 1163.82 65.5056C1161.18 71.7393 1164.12 77.3155 1168.88 81.4471C1173.56 85.5136 1180.32 88.5312 1186.81 90.2224C1193.31 91.9137 1201.02 92.6712 1207.88 91.6036C1214.84 90.5248 1221.47 87.4407 1224.12 81.2069C1226.39 75.857 1226.76 68.6331 1224.18 62.0653C1221.59 55.3963 1215.77 49.0643 1205.43 46.3704ZM1252.8 58.7071C1248.54 57.5968 1244.33 58.7572 1241.23 60.6543C1238.1 62.565 1235.58 65.469 1234.15 68.8355C1232.72 72.202 1232.52 75.7071 1233.57 78.7079C1234.6 81.675 1237.08 84.5827 1241.35 85.693C1245.61 86.8033 1249.81 85.6429 1252.91 83.7458C1256.05 81.8351 1258.56 78.9311 1259.99 75.5646C1261.42 72.1981 1261.63 68.693 1260.58 65.6922C1259.54 62.7252 1257.06 59.8174 1252.8 58.7071Z" fill="#F4F4F4"/>
<path fill-rule="evenodd" clip-rule="evenodd" d="M1299.49 110.122C1299.1 108.348 1297.42 107.144 1295.58 106.508C1293.72 105.862 1291.44 105.676 1289.16 105.985C1286.88 106.294 1284.81 107.068 1283.34 108.164C1281.88 109.246 1280.8 110.823 1281.2 112.597C1281.59 114.371 1283.27 115.575 1285.11 116.211C1286.97 116.857 1289.25 117.043 1291.53 116.734C1293.81 116.425 1295.88 115.651 1297.35 114.555C1298.81 113.473 1299.89 111.896 1299.49 110.122ZM1303.44 128.038C1303.05 126.264 1301.37 125.06 1299.53 124.423C1297.67 123.778 1295.39 123.592 1293.11 123.901C1290.83 124.209 1288.76 124.983 1287.29 126.079C1285.83 127.162 1284.75 128.739 1285.15 130.513C1285.54 132.287 1287.22 133.491 1289.06 134.127C1290.92 134.773 1293.2 134.959 1295.48 134.65C1297.76 134.341 1299.83 133.567 1301.3 132.471C1302.76 131.389 1303.84 129.811 1303.44 128.038ZM1276.54 102.157C1276.15 100.383 1274.46 99.1794 1272.62 98.5428C1270.77 97.8973 1268.49 97.7111 1266.2 98.0199C1263.92 98.3287 1261.85 99.1027 1260.38 100.199C1258.92 101.281 1257.85 102.859 1258.24 104.632C1258.63 106.406 1260.31 107.61 1262.15 108.246C1264.01 108.892 1266.29 109.078 1268.57 108.769C1270.86 108.461 1272.92 107.687 1274.4 106.591C1275.85 105.508 1276.93 103.931 1276.54 102.157ZM1280.88 121.864C1279.94 117.565 1276.29 114.778 1272.18 113.237C1268.14 111.714 1263.45 111.308 1259.82 111.799C1255.59 112.37 1253.09 114.756 1251.87 117.435C1250.66 120.071 1250.55 123.185 1251.15 125.887C1251.74 128.588 1253.17 131.495 1255.44 133.66C1257.75 135.858 1261.12 137.452 1265.35 136.881C1268.98 136.39 1273.22 134.775 1276.38 132.278C1279.59 129.751 1281.83 126.168 1280.88 121.864ZM1285.23 141.572C1284.84 139.798 1283.15 138.594 1281.31 137.958C1279.46 137.312 1277.18 137.126 1274.89 137.435C1272.61 137.743 1270.54 138.518 1269.07 139.613C1267.61 140.696 1266.54 142.273 1266.93 144.047C1267.32 145.821 1269 147.025 1270.85 147.661C1272.7 148.307 1274.98 148.493 1277.26 148.184C1279.55 147.875 1281.61 147.101 1283.09 146.005C1284.54 144.923 1285.62 143.346 1285.23 141.572Z" fill="#F4F4F4"/>
<path d="M19.2728 525.849C16.7459 523.005 15.8603 519.928 16.6161 516.617C17.3718 513.306 19.5672 510.661 23.2022 508.682C23.756 508.381 24.2408 508.206 24.6564 508.16C25.072 508.114 25.307 507.967 25.3615 507.72C25.4159 507.473 25.2594 507.272 24.8918 507.118C24.5243 506.963 24.1482 506.667 23.7635 506.23C21.2366 503.386 20.3511 500.309 21.1068 496.998C21.8625 493.687 24.0579 491.042 27.6929 489.063C31.3279 487.085 35.2578 486.392 39.4826 486.985C43.7075 487.579 47.0833 489.297 49.6102 492.141C50.5952 493.25 51.31 494.362 51.7545 495.48C52.199 496.597 52.4161 497.766 52.4057 498.988L78.3933 502.637C78.9256 501.489 79.6478 500.451 80.5601 499.525C81.4724 498.598 82.6363 497.749 84.0517 496.977C87.6825 494.998 91.6124 494.306 95.8414 494.899C100.07 495.493 103.446 497.212 105.969 500.055C108.492 502.898 109.376 505.976 108.622 509.289C107.868 512.602 105.674 515.246 102.04 517.222C101.486 517.524 101.002 517.699 100.588 517.747C100.174 517.795 99.9382 517.941 99.8803 518.184C99.8225 518.427 99.9778 518.629 100.346 518.789C100.715 518.949 101.092 519.244 101.478 519.674C104.005 522.518 104.89 525.596 104.131 528.909C103.373 532.221 101.179 534.865 97.5489 536.841C93.9188 538.817 89.9898 539.51 85.7617 538.922C81.5337 538.333 78.157 536.614 75.6316 533.763C74.6465 532.655 73.9318 531.542 73.4873 530.425C73.0428 529.308 72.8257 528.138 72.8361 526.916L46.8484 523.267C46.3162 524.416 45.5939 525.453 44.6817 526.38C43.7694 527.306 42.6055 528.155 41.1901 528.927C37.5593 530.906 33.6302 531.6 29.4029 531.008C25.1756 530.416 21.7989 528.696 19.2728 525.849Z" fill="#F4F4F4"/>
<path d="M108.547 481.902C108.457 479.451 109.454 477.359 111.538 475.627C113.623 473.895 116.231 472.994 119.363 472.925C119.84 472.914 120.214 472.958 120.483 473.057C120.752 473.155 120.963 473.14 121.118 473.01C121.272 472.88 121.279 472.713 121.138 472.51C120.996 472.307 120.92 472.018 120.908 471.642C120.817 469.191 121.815 467.1 123.899 465.368C125.984 463.636 128.592 462.735 131.724 462.666C134.855 462.596 137.526 463.378 139.735 465.011C141.944 466.644 143.094 468.686 143.185 471.137C143.22 472.093 143.093 472.969 142.804 473.765C142.515 474.562 142.066 475.32 141.455 476.041L155.045 486.086C155.928 485.567 156.869 485.171 157.867 484.899C158.866 484.627 159.975 484.477 161.195 484.449C164.324 484.378 166.995 485.16 169.206 486.795C171.418 488.429 172.568 490.471 172.656 492.921C172.744 495.37 171.746 497.462 169.662 499.196C167.577 500.929 164.97 501.83 161.84 501.898C161.363 501.909 160.99 501.865 160.721 501.768C160.452 501.671 160.24 501.686 160.085 501.813C159.931 501.939 159.923 502.106 160.062 502.312C160.202 502.519 160.279 502.808 160.295 503.18C160.386 505.631 159.388 507.723 157.301 509.455C155.214 511.187 152.607 512.088 149.479 512.157C146.352 512.226 143.682 511.445 141.468 509.814C139.255 508.183 138.105 506.14 138.018 503.685C137.983 502.73 138.11 501.854 138.399 501.057C138.688 500.261 139.138 499.502 139.748 498.782L126.159 488.737C125.275 489.256 124.334 489.651 123.336 489.923C122.337 490.196 121.228 490.345 120.008 490.373C116.879 490.444 114.208 489.663 111.997 488.03C109.786 486.397 108.636 484.354 108.547 481.902Z" fill="#F4F4F4"/>
<path fill-rule="evenodd" clip-rule="evenodd" d="M609.591 160.999C607.745 159.927 605.466 159.966 603.573 160.501C601.66 161.038 599.847 162.135 598.468 163.593C597.088 165.051 596.275 166.728 596.175 168.318C596.075 169.889 596.687 171.611 598.533 172.683C600.379 173.755 602.658 173.716 604.551 173.181C606.464 172.644 608.277 171.547 609.656 170.089C611.036 168.631 611.849 166.954 611.949 165.364C612.05 163.793 611.438 162.071 609.591 160.999ZM628.239 171.826C626.393 170.754 624.114 170.793 622.221 171.328C620.308 171.865 618.495 172.962 617.115 174.42C615.736 175.878 614.922 177.555 614.822 179.145C614.722 180.716 615.334 182.438 617.18 183.51C619.027 184.582 621.306 184.543 623.199 184.008C625.111 183.471 626.924 182.374 628.304 180.916C629.684 179.458 630.497 177.781 630.597 176.191C630.697 174.62 630.085 172.898 628.239 171.826ZM585.962 167.648C584.116 166.576 581.837 166.615 579.944 167.15C578.031 167.687 576.218 168.784 574.839 170.242C573.459 171.7 572.646 173.377 572.546 174.967C572.445 176.538 573.057 178.26 574.904 179.332C576.75 180.404 579.029 180.365 580.922 179.83C582.835 179.293 584.648 178.196 586.027 176.738C587.407 175.28 588.22 173.603 588.32 172.013C588.42 170.442 587.808 168.72 585.962 167.648ZM606.474 179.557C601.999 176.959 596.903 176.915 592.576 178.019C588.308 179.103 584.555 181.347 582.363 183.663C579.808 186.362 580.103 189.439 581.576 192.042C583.024 194.602 585.692 196.912 588.504 198.545C591.316 200.177 594.911 201.509 598.463 201.846C602.066 202.191 605.915 201.52 608.469 198.821C610.662 196.504 612.311 193.04 612.394 189.526C612.491 185.961 610.954 182.158 606.474 179.557ZM626.987 191.467C625.141 190.395 622.861 190.434 620.968 190.969C619.056 191.506 617.243 192.604 615.863 194.061C614.484 195.519 613.67 197.197 613.57 198.786C613.47 200.357 614.082 202.08 615.928 203.152C617.774 204.223 620.054 204.184 621.947 203.65C623.859 203.112 625.672 202.015 627.052 200.557C628.431 199.1 629.245 197.422 629.345 195.833C629.445 194.261 628.833 192.539 626.987 191.467Z" fill="#F4F4F4"/>
<path d="M803.954 441.308C801.774 440.459 800.307 439.157 799.553 437.402C798.8 435.648 798.966 433.916 800.052 432.208C800.217 431.948 800.392 431.763 800.577 431.655C800.762 431.546 800.826 431.427 800.769 431.296C800.712 431.166 800.568 431.101 800.339 431.103C800.109 431.104 799.828 431.039 799.495 430.908C797.314 430.059 795.847 428.757 795.094 427.003C794.34 425.248 794.506 423.517 795.592 421.809C796.678 420.1 798.341 418.952 800.581 418.363C802.82 417.774 805.03 417.903 807.21 418.752C808.06 419.083 808.781 419.472 809.373 419.919C809.965 420.366 810.464 420.886 810.872 421.478L824.647 417.854C824.516 417.189 824.514 416.539 824.642 415.902C824.769 415.266 825.044 414.615 825.466 413.95C826.55 412.242 828.213 411.093 830.455 410.504C832.696 409.914 834.906 410.044 837.084 410.893C839.262 411.743 840.728 413.045 841.484 414.8C842.239 416.555 842.073 418.286 840.986 419.993C840.821 420.253 840.646 420.438 840.463 420.547C840.279 420.656 840.215 420.775 840.269 420.905C840.323 421.034 840.466 421.099 840.698 421.1C840.93 421.101 841.212 421.165 841.543 421.293C843.724 422.142 845.19 423.444 845.943 425.2C846.696 426.955 846.53 428.686 845.446 430.392C844.361 432.098 842.699 433.247 840.46 433.839C838.22 434.431 836.01 434.301 833.828 433.448C832.978 433.118 832.257 432.729 831.665 432.281C831.073 431.834 830.574 431.315 830.166 430.723L816.391 434.347C816.522 435.012 816.524 435.662 816.396 436.298C816.269 436.935 815.994 437.586 815.572 438.251C814.488 439.959 812.826 441.108 810.586 441.698C808.346 442.288 806.135 442.158 803.954 441.308Z" fill="#F4F4F4"/>
</svg>
