<svg width="1277" height="762" viewBox="0 0 1277 762" fill="none" xmlns="http://www.w3.org/2000/svg">
<path fill-rule="evenodd" clip-rule="evenodd" d="M72.8152 535.778C76.6093 532.586 81.4196 532.561 85.4616 533.985C89.5448 535.414 93.4699 538.46 96.5143 542.568C99.5586 546.675 101.43 551.449 101.788 556.013C102.145 560.524 101.013 565.512 97.219 568.704C93.425 571.896 88.6146 571.921 84.5726 570.497C80.4894 569.068 76.5643 566.022 73.52 561.914C70.4756 557.807 68.6047 553.033 68.2465 548.469C67.8897 543.958 69.0211 538.97 72.8152 535.778ZM34.4914 568.022C38.2854 564.83 43.0957 564.806 47.1377 566.229C51.221 567.659 55.146 570.704 58.1904 574.812C61.2348 578.92 63.1057 583.694 63.4639 588.257C63.8207 592.768 62.6892 597.756 58.8952 600.948C55.1011 604.141 50.2908 604.165 46.2488 602.741C42.1655 601.312 38.2405 598.266 35.1961 594.159C32.1517 590.051 30.2809 585.277 29.9227 580.714C29.5659 576.202 30.6973 571.214 34.4914 568.022ZM123.264 553.473C127.058 550.281 131.868 550.257 135.91 551.68C139.993 553.11 143.918 556.155 146.963 560.263C150.007 564.371 151.878 569.145 152.236 573.708C152.593 578.219 151.462 583.207 147.668 586.399C143.874 589.592 139.063 589.616 135.021 588.192C130.938 586.763 127.013 583.717 123.969 579.61C120.924 575.502 119.053 570.728 118.695 566.165C118.338 561.653 119.47 556.665 123.264 553.473ZM81.1076 588.942C90.3053 581.203 101.048 580.771 110.277 583.685C119.378 586.546 127.5 592.77 132.338 599.297C137.975 606.903 137.638 615.767 134.773 623.336C131.956 630.785 126.543 637.585 120.764 642.447C114.985 647.31 107.527 651.352 100.067 652.537C92.5004 653.744 84.322 652.045 78.6847 644.439C73.8467 637.912 70.0475 628.051 69.546 617.955C69.0111 607.713 71.9022 596.687 81.1076 588.942ZM38.9514 624.411C42.7454 621.219 47.5557 621.194 51.5977 622.618C55.681 624.047 59.606 627.093 62.6504 631.201C65.6948 635.308 67.5657 640.082 67.9239 644.646C68.2807 649.157 67.1492 654.145 63.3552 657.337C59.5611 660.529 54.7508 660.554 50.7088 659.13C46.6255 657.701 42.7005 654.655 39.6561 650.547C36.6117 646.44 34.7409 641.666 34.3827 637.102C34.0259 632.591 35.1573 627.603 38.9514 624.411Z" fill="white" fill-opacity="0.2"/>
<path fill-rule="evenodd" clip-rule="evenodd" d="M91.3008 679.686C94.2009 678.672 97.0351 679.598 99.114 681.17C101.216 682.753 102.886 685.193 103.817 688.045C104.747 690.897 104.847 693.886 104.102 696.464C103.366 699.012 101.656 701.533 98.7561 702.546C95.8561 703.559 93.0219 702.633 90.9429 701.062C88.8408 699.479 87.1705 697.038 86.2404 694.187C85.3104 691.335 85.2101 688.346 85.9553 685.768C86.6905 683.219 88.4008 680.699 91.3008 679.686ZM62.0073 689.922C64.9073 688.908 67.7415 689.834 69.8205 691.406C71.9226 692.989 73.5929 695.429 74.523 698.281C75.453 701.133 75.5533 704.122 74.808 706.7C74.0729 709.248 72.3626 711.769 69.4626 712.782C66.5625 713.795 63.7283 712.869 61.6494 711.298C59.5473 709.715 57.8769 707.274 56.9468 704.423C56.0168 701.571 55.9165 698.582 56.6618 696.004C57.3969 693.455 59.1072 690.935 62.0073 689.922ZM117.264 699.262C120.164 698.248 122.998 699.174 125.077 700.746C127.179 702.329 128.85 704.769 129.78 707.621C130.71 710.473 130.81 713.462 130.065 716.04C129.33 718.589 127.62 721.109 124.719 722.122C121.819 723.136 118.985 722.21 116.906 720.638C114.804 719.055 113.134 716.615 112.204 713.763C111.274 710.911 111.173 707.922 111.919 705.344C112.654 702.795 114.364 700.275 117.264 699.262ZM85.0412 710.522C92.0717 708.065 98.4804 709.925 103.297 713.329C108.051 716.678 111.524 721.685 113.002 726.217C114.724 731.497 112.669 736.303 109.399 739.903C106.182 743.446 101.574 746.126 97.1561 747.67C92.7386 749.213 87.506 749.978 82.8706 749.173C78.1672 748.359 73.7132 745.828 71.991 740.547C70.513 736.015 70.3442 729.854 72.1641 724.208C73.995 718.475 78.0049 712.98 85.0412 710.522ZM52.8183 721.781C55.7184 720.768 58.5526 721.694 60.6315 723.266C62.7336 724.848 64.404 727.289 65.334 730.141C66.2641 732.992 66.3643 735.981 65.6191 738.559C64.884 741.108 63.1737 743.628 60.2736 744.641C57.3735 745.655 54.5394 744.729 52.4604 743.157C50.3583 741.574 48.688 739.134 47.7579 736.282C46.8279 733.43 46.7276 730.441 47.4729 727.864C48.208 725.315 49.9183 722.795 52.8183 721.781Z" fill="white" fill-opacity="0.2"/>
<path fill-rule="evenodd" clip-rule="evenodd" d="M357.957 79.5825C360.909 78.1237 364.124 78.999 366.636 80.7131C369.175 82.4383 371.397 85.2294 372.891 88.5763C374.385 91.9232 375.009 95.5041 374.649 98.6617C374.296 101.784 372.886 104.953 369.934 106.412C366.982 107.87 363.767 106.995 361.254 105.281C358.715 103.556 356.494 100.765 355 97.4178C353.505 94.0708 352.882 90.49 353.242 87.3324C353.595 84.2104 355.005 81.0413 357.957 79.5825ZM328.137 94.3182C331.09 92.8594 334.305 93.7348 336.817 95.4488C339.356 97.1741 341.578 99.9651 343.072 103.312C344.566 106.659 345.189 110.24 344.83 113.397C344.477 116.519 343.067 119.688 340.115 121.147C337.163 122.606 333.948 121.731 331.435 120.017C328.896 118.291 326.675 115.5 325.18 112.154C323.686 108.807 323.063 105.226 323.422 102.068C323.776 98.9462 325.185 95.7771 328.137 94.3182ZM389.323 100.924C392.275 99.4649 395.49 100.34 398.003 102.054C400.542 103.78 402.763 106.571 404.257 109.918C405.752 113.264 406.375 116.845 406.015 120.003C405.662 123.125 404.252 126.294 401.3 127.753C398.348 129.212 395.133 128.336 392.621 126.622C390.081 124.897 387.86 122.106 386.366 118.759C384.872 115.412 384.248 111.831 384.608 108.674C384.961 105.552 386.371 102.383 389.323 100.924ZM356.522 117.133C363.678 113.596 370.909 115.296 376.689 118.981C382.391 122.606 386.998 128.328 389.373 133.647C392.139 139.845 390.752 145.786 387.846 150.382C384.988 154.906 380.482 158.508 375.985 160.73C371.488 162.952 365.979 164.308 360.842 163.727C355.631 163.142 350.393 160.475 347.626 154.277C345.251 148.958 344.008 141.574 344.997 134.642C345.983 127.605 349.359 120.673 356.522 117.133ZM323.721 133.342C326.673 131.884 329.888 132.759 332.4 134.473C334.939 136.198 337.161 138.989 338.655 142.336C340.149 145.683 340.772 149.264 340.413 152.422C340.06 155.544 338.65 158.713 335.698 160.171C332.746 161.63 329.531 160.755 327.018 159.041C324.479 157.316 322.258 154.525 320.764 151.178C319.269 147.831 318.646 144.25 319.006 141.092C319.359 137.97 320.769 134.801 323.721 133.342Z" fill="white" fill-opacity="0.2"/>
<path d="M968.899 644.608C969.222 649.084 968.05 653.057 965.383 656.526C962.716 659.995 959.276 662.015 955.063 662.588C954.421 662.675 953.915 662.648 953.544 662.505C953.173 662.363 952.889 662.422 952.692 662.681C952.495 662.941 952.499 663.247 952.706 663.599C952.913 663.951 953.04 664.47 953.087 665.156C953.409 669.633 952.237 673.606 949.57 677.075C946.903 680.544 943.463 682.564 939.25 683.136C935.037 683.708 931.376 682.656 928.266 679.979C925.156 677.302 923.44 673.725 923.118 669.248C922.992 667.503 923.091 665.88 923.415 664.38C923.739 662.88 924.283 661.426 925.047 660.02L905.918 643.552C904.77 644.628 903.535 645.487 902.212 646.127C900.889 646.767 899.407 647.199 897.766 647.424C893.556 647.998 889.895 646.946 886.782 644.266C883.669 641.586 881.953 638.009 881.633 633.535C881.313 629.061 882.487 625.088 885.154 621.616C887.82 618.144 891.259 616.124 895.469 615.555C896.111 615.468 896.618 615.494 896.988 615.633C897.358 615.772 897.642 615.715 897.84 615.461C898.038 615.208 898.035 614.902 897.83 614.543C897.626 614.185 897.498 613.666 897.446 612.987C897.123 608.51 898.297 604.537 900.966 601.068C903.636 597.598 907.075 595.578 911.282 595.007C915.489 594.435 919.15 595.486 922.266 598.16C925.381 600.833 927.097 604.411 927.415 608.895C927.54 610.64 927.441 612.263 927.117 613.763C926.793 615.263 926.249 616.717 925.486 618.123L944.615 634.591C945.762 633.515 946.997 632.656 948.32 632.016C949.643 631.376 951.125 630.943 952.766 630.719C956.976 630.145 960.638 631.196 963.75 633.872C966.863 636.549 968.579 640.127 968.899 644.608Z" fill="white" fill-opacity="0.2"/>
<path d="M1125.56 93.2885C1127.42 97.1758 1127.77 101.267 1126.59 105.561C1125.41 109.855 1123.02 113.186 1119.43 115.553C1118.88 115.914 1118.42 116.112 1118.04 116.147C1117.65 116.181 1117.42 116.359 1117.33 116.68C1117.24 117 1117.36 117.273 1117.67 117.499C1117.98 117.725 1118.27 118.136 1118.56 118.733C1120.42 122.621 1120.77 126.712 1119.59 131.006C1118.41 135.3 1116.02 138.631 1112.43 140.998C1108.84 143.365 1105.18 144.027 1101.43 142.984C1097.69 141.942 1094.89 139.477 1093.02 135.59C1092.3 134.074 1091.81 132.57 1091.58 131.077C1091.34 129.585 1091.32 128.038 1091.51 126.436L1068.5 120.024C1067.85 121.496 1067.04 122.812 1066.07 123.97C1065.11 125.128 1063.93 126.168 1062.53 127.091C1058.94 129.459 1055.27 130.121 1051.53 129.078C1047.79 128.034 1044.98 125.569 1043.12 121.683C1041.26 117.797 1040.92 113.705 1042.09 109.408C1043.27 105.111 1045.66 101.781 1049.25 99.4186C1049.79 99.0574 1050.26 98.8582 1050.64 98.8209C1051.02 98.7837 1051.26 98.6073 1051.35 98.2919C1051.44 97.9765 1051.32 97.7025 1051.01 97.4699C1050.7 97.2374 1050.41 96.8268 1050.12 96.238C1048.25 92.3507 1047.91 88.2591 1049.09 83.9631C1050.28 79.6672 1052.66 76.3374 1056.25 73.9737C1059.83 71.6101 1063.5 70.9465 1067.24 71.9832C1070.99 73.0198 1073.79 75.486 1075.65 79.3818C1076.38 80.8972 1076.86 82.4013 1077.1 83.8939C1077.33 85.3866 1077.36 86.9337 1077.16 88.5354L1100.18 94.9479C1100.83 93.475 1101.64 92.1596 1102.6 91.0017C1103.57 89.8439 1104.75 88.8034 1106.15 87.8803C1109.74 85.5124 1113.4 84.8489 1117.15 85.8898C1120.89 86.9307 1123.69 89.3969 1125.56 93.2885Z" fill="white" fill-opacity="0.2"/>
<path d="M1275.44 81.3107C1275.56 87.7071 1273.6 93.2474 1269.55 97.9315C1265.5 102.616 1260.45 105.168 1254.42 105.588C1253.5 105.653 1252.78 105.566 1252.27 105.329C1251.75 105.092 1251.34 105.149 1251.04 105.5C1250.74 105.851 1250.72 106.287 1250.99 106.806C1251.26 107.326 1251.4 108.076 1251.42 109.056C1251.54 115.453 1249.58 120.993 1245.53 125.677C1241.47 130.361 1236.43 132.913 1230.4 133.334C1224.36 133.754 1219.23 131.915 1215.01 127.818C1210.79 123.72 1208.62 118.473 1208.49 112.077C1208.44 109.583 1208.71 107.285 1209.28 105.182C1209.85 103.079 1210.73 101.063 1211.93 99.1335L1185.95 73.9292C1184.24 75.3524 1182.42 76.4576 1180.49 77.2447C1178.56 78.0318 1176.42 78.5081 1174.07 78.6735C1168.04 79.0979 1162.91 77.2593 1158.69 73.1577C1154.46 69.0562 1152.29 63.8093 1152.17 57.4169C1152.05 51.0245 1154.01 45.4841 1158.06 40.7957C1162.12 36.1073 1167.16 33.5552 1173.19 33.1396C1174.11 33.0748 1174.83 33.1589 1175.34 33.3918C1175.86 33.6248 1176.27 33.57 1176.57 33.2275C1176.87 32.885 1176.88 32.4495 1176.62 31.9209C1176.36 31.3923 1176.21 30.6425 1176.19 29.6714C1176.07 23.2749 1178.03 17.7345 1182.09 13.0502C1186.14 8.3658 1191.18 5.81377 1197.21 5.39406C1203.24 4.97436 1208.36 6.81078 1212.59 10.9033C1216.83 14.9959 1219 20.245 1219.11 26.6507C1219.16 29.1442 1218.9 31.4425 1218.33 33.5455C1217.75 35.6486 1216.87 37.6648 1215.68 39.5941L1241.65 64.7984C1243.37 63.3752 1245.19 62.27 1247.12 61.4829C1249.05 60.6957 1251.19 60.2195 1253.54 60.054C1259.57 59.6297 1264.69 61.4661 1268.92 65.5633C1273.15 69.6605 1275.32 74.9096 1275.44 81.3107Z" fill="white" fill-opacity="0.2"/>
</svg>
