<svg width="1440" height="1093" viewBox="0 0 1440 1093" fill="none" xmlns="http://www.w3.org/2000/svg">
<g clip-path="url(#clip0_992_918)">
<rect width="1440" height="1093" fill="#5BB656"/>
<path fill-rule="evenodd" clip-rule="evenodd" d="M84.6116 759.64C88.9681 754.964 94.5586 755.043 99.2802 757.267C104.05 759.501 108.663 764.145 112.269 770.354C115.876 776.563 118.13 783.739 118.622 790.564C119.112 797.311 117.88 804.735 113.523 809.411C109.167 814.088 103.576 814.009 98.8548 811.784C94.0852 809.551 89.4725 804.907 85.8658 798.698C82.259 792.489 80.0051 785.313 79.5128 778.488C79.023 771.741 80.255 764.317 84.6116 759.64ZM40.6057 806.88C44.9623 802.204 50.5528 802.283 55.2744 804.507C60.044 806.741 64.6567 811.385 68.2634 817.594C71.8702 823.803 74.1241 830.979 74.6164 837.804C75.1062 844.551 73.8742 851.975 69.5176 856.651C65.1611 861.328 59.5706 861.249 54.849 859.024C50.0793 856.791 45.4667 852.147 41.8599 845.938C38.2532 839.729 35.9992 832.553 35.5069 825.728C35.0171 818.981 36.2491 811.557 40.6057 806.88ZM143.541 787.289C147.898 782.612 153.488 782.691 158.21 784.916C162.979 787.149 167.592 791.793 171.199 798.002C174.805 804.211 177.059 811.388 177.552 818.213C178.041 824.959 176.809 832.383 172.453 837.06C168.096 841.736 162.506 841.657 157.784 839.433C153.015 837.199 148.402 832.555 144.795 826.346C141.188 820.137 138.934 812.961 138.442 806.136C137.952 799.389 139.184 791.966 143.541 787.289ZM95.1346 839.253C105.696 827.915 118.175 827.529 128.949 832.104C139.575 836.596 149.119 846.089 154.851 855.956C161.529 867.453 161.285 880.685 158.081 891.922C154.931 902.98 148.753 913.007 142.116 920.131C135.48 927.254 126.88 933.113 118.23 934.702C109.455 936.324 99.9211 933.589 93.2424 922.092C87.5106 912.225 82.9308 897.404 82.1798 882.311C81.3877 867 84.5644 850.6 95.1346 839.253ZM46.7281 891.217C51.0847 886.54 56.6752 886.619 61.3968 888.844C66.1664 891.077 70.7791 895.721 74.3859 901.93C77.9926 908.139 80.2466 915.315 80.7389 922.14C81.2286 928.887 79.9966 936.311 75.6401 940.988C71.2835 945.664 65.693 945.585 60.9715 943.361C56.2018 941.127 51.5891 936.483 47.9824 930.274C44.3756 924.065 42.1217 916.889 41.6294 910.064C41.1396 903.317 42.3716 895.894 46.7281 891.217Z" fill="white" fill-opacity="0.2"/>
<path fill-rule="evenodd" clip-rule="evenodd" d="M99.0724 978.778C101.883 977.525 104.717 979.01 106.836 981.362C108.978 983.73 110.734 987.285 111.78 991.376C112.826 995.466 113.06 999.699 112.443 1003.3C111.835 1006.86 110.264 1010.32 107.454 1011.57C104.643 1012.82 101.809 1011.34 99.6903 1008.98C97.5479 1006.62 95.7918 1003.06 94.7462 998.97C93.7006 994.879 93.4662 990.646 94.0832 987.047C94.6916 983.489 96.2618 980.031 99.0724 978.778ZM70.6828 991.435C73.4933 990.182 76.3271 991.667 78.4462 994.019C80.5886 996.388 82.3448 999.942 83.3903 1004.03C84.4359 1008.12 84.6704 1012.36 84.0533 1015.96C83.4449 1019.51 81.8747 1022.97 79.0641 1024.23C76.2536 1025.48 73.4198 1023.99 71.3007 1021.64C69.1583 1019.27 67.4021 1015.72 66.3566 1011.63C65.311 1007.54 65.0765 1003.3 65.6936 999.704C66.3019 996.146 67.8722 992.688 70.6828 991.435ZM125.535 1008.07C128.346 1006.82 131.18 1008.3 133.299 1010.66C135.441 1013.03 137.197 1016.58 138.243 1020.67C139.288 1024.76 139.523 1028.99 138.906 1032.59C138.297 1036.15 136.727 1039.61 133.917 1040.86C131.106 1042.12 128.272 1040.63 126.153 1038.28C124.011 1035.91 122.255 1032.36 121.209 1028.27C120.163 1024.17 119.929 1019.94 120.546 1016.34C121.154 1012.78 122.725 1009.33 125.535 1008.07ZM94.3066 1022C101.12 1018.96 107.517 1021.99 112.416 1027.1C117.251 1032.13 120.899 1039.43 122.561 1045.93C124.497 1053.5 122.691 1060.17 119.633 1065.06C116.625 1069.87 112.208 1073.37 107.926 1075.28C103.645 1077.19 98.5258 1077.95 93.9233 1076.52C89.2535 1075.08 84.7514 1071.22 82.8153 1063.65C81.1537 1057.15 80.7077 1048.42 82.244 1040.55C83.7871 1032.56 87.4874 1025.04 94.3066 1022ZM63.078 1035.92C65.8886 1034.67 68.7223 1036.15 70.8415 1038.5C72.9839 1040.87 74.74 1044.43 75.7856 1048.52C76.8312 1052.61 77.0656 1056.84 76.4486 1060.44C75.8402 1064 74.27 1067.46 71.4594 1068.71C68.6488 1069.96 65.8151 1068.48 63.696 1066.12C61.5535 1063.76 59.7974 1060.2 58.7518 1056.11C57.7063 1052.02 57.4718 1047.79 58.0888 1044.19C58.6972 1040.63 60.2675 1037.17 63.078 1035.92Z" fill="white" fill-opacity="0.2"/>
<path fill-rule="evenodd" clip-rule="evenodd" d="M407.485 114.152C410.804 112.059 414.419 113.315 417.243 115.774C420.098 118.248 422.595 122.252 424.275 127.052C425.955 131.853 426.655 136.99 426.251 141.519C425.854 145.997 424.269 150.542 420.951 152.635C417.632 154.728 414.017 153.472 411.193 151.013C408.338 148.539 405.841 144.535 404.161 139.734C402.481 134.934 401.781 129.797 402.184 125.268C402.582 120.79 404.166 116.244 407.485 114.152ZM373.962 135.289C377.281 133.196 380.895 134.452 383.72 136.91C386.574 139.385 389.072 143.388 390.752 148.189C392.431 152.99 393.132 158.126 392.728 162.655C392.331 167.134 390.746 171.679 387.427 173.772C384.108 175.864 380.494 174.609 377.669 172.15C374.815 169.675 372.317 165.672 370.638 160.871C368.958 156.07 368.257 150.934 368.661 146.405C369.058 141.927 370.643 137.381 373.962 135.289ZM442.748 144.763C446.067 142.671 449.681 143.927 452.506 146.385C455.36 148.86 457.858 152.863 459.537 157.664C461.217 162.465 461.918 167.601 461.514 172.13C461.117 176.608 459.532 181.154 456.213 183.247C452.894 185.339 449.28 184.083 446.455 181.625C443.601 179.15 441.103 175.147 439.423 170.346C437.744 165.545 437.043 160.409 437.447 155.88C437.844 151.402 439.429 146.856 442.748 144.763ZM405.872 168.014C413.918 162.941 422.046 165.379 428.544 170.665C434.955 175.865 440.134 184.072 442.804 191.701C445.914 200.591 444.354 209.114 441.088 215.706C437.875 222.194 432.809 227.362 427.753 230.549C422.698 233.736 416.504 235.681 410.729 234.847C404.871 234.008 398.982 230.182 395.871 221.293C393.202 213.663 391.803 203.072 392.915 193.129C394.024 183.035 397.82 173.091 405.872 168.014ZM368.996 191.264C372.315 189.172 375.93 190.427 378.754 192.886C381.609 195.361 384.106 199.364 385.786 204.165C387.466 208.966 388.166 214.102 387.763 218.631C387.365 223.109 385.781 227.655 382.462 229.747C379.143 231.84 375.528 230.584 372.704 228.126C369.849 225.651 367.352 221.648 365.672 216.847C363.992 212.046 363.292 206.91 363.696 202.38C364.093 197.902 365.678 193.357 368.996 191.264Z" fill="white" fill-opacity="0.2"/>
<path d="M1094.32 924.614C1094.68 931.036 1093.36 936.734 1090.36 941.71C1087.36 946.686 1083.5 949.584 1078.76 950.405C1078.04 950.53 1077.47 950.491 1077.05 950.287C1076.64 950.082 1076.32 950.166 1076.1 950.539C1075.87 950.912 1075.88 951.351 1076.11 951.855C1076.34 952.36 1076.49 953.104 1076.54 954.089C1076.9 960.51 1075.58 966.209 1072.59 971.184C1069.59 976.16 1065.72 979.058 1060.98 979.879C1056.25 980.7 1052.13 979.19 1048.64 975.35C1045.14 971.51 1043.21 966.379 1042.85 959.958C1042.71 957.455 1042.82 955.127 1043.18 952.976C1043.55 950.824 1044.16 948.739 1045.02 946.721L1023.51 923.1C1022.22 924.644 1020.83 925.875 1019.34 926.794C1017.86 927.712 1016.19 928.332 1014.35 928.653C1009.61 929.478 1005.5 927.968 1002 924.124C998.498 920.281 996.569 915.15 996.209 908.732C995.85 902.315 997.17 896.616 1000.17 891.636C1003.17 886.656 1007.03 883.758 1011.76 882.942C1012.49 882.816 1013.06 882.854 1013.47 883.054C1013.89 883.254 1014.21 883.172 1014.43 882.808C1014.65 882.443 1014.65 882.004 1014.42 881.491C1014.19 880.977 1014.04 880.233 1013.99 879.258C1013.62 872.837 1014.94 867.138 1017.94 862.161C1020.95 857.185 1024.81 854.287 1029.54 853.468C1034.27 852.648 1038.39 854.156 1041.89 857.99C1045.39 861.825 1047.32 866.958 1047.68 873.389C1047.82 875.892 1047.71 878.219 1047.34 880.371C1046.98 882.523 1046.37 884.608 1045.51 886.626L1067.01 910.246C1068.3 908.703 1069.69 907.472 1071.18 906.553C1072.67 905.635 1074.33 905.015 1076.18 904.693C1080.91 903.869 1085.03 905.376 1088.53 909.216C1092.03 913.055 1093.96 918.188 1094.32 924.614Z" fill="white" fill-opacity="0.2"/>
<path d="M1270.43 133.812C1272.53 139.387 1272.92 145.255 1271.59 151.415C1270.27 157.575 1267.58 162.352 1263.55 165.747C1262.93 166.265 1262.41 166.549 1261.98 166.599C1261.55 166.648 1261.28 166.903 1261.19 167.363C1261.09 167.823 1261.22 168.215 1261.56 168.539C1261.91 168.863 1262.25 169.453 1262.56 170.309C1264.66 175.885 1265.05 181.753 1263.72 187.913C1262.4 194.073 1259.71 198.85 1255.68 202.245C1251.64 205.64 1247.52 206.59 1243.31 205.094C1239.11 203.599 1235.96 200.063 1233.86 194.488C1233.04 192.314 1232.5 190.157 1232.24 188.016C1231.97 185.874 1231.95 183.655 1232.16 181.358L1206.29 172.16C1205.56 174.273 1204.65 176.159 1203.56 177.82C1202.48 179.481 1201.15 180.973 1199.57 182.297C1195.54 185.694 1191.42 186.644 1187.21 185.147C1183 183.65 1179.85 180.115 1177.76 174.54C1175.66 168.966 1175.28 163.097 1176.6 156.933C1177.93 150.77 1180.61 145.993 1184.64 142.605C1185.26 142.086 1185.78 141.801 1186.21 141.747C1186.64 141.694 1186.91 141.441 1187.01 140.988C1187.1 140.536 1186.98 140.143 1186.63 139.809C1186.28 139.476 1185.95 138.887 1185.63 138.042C1183.53 132.466 1183.15 126.597 1184.47 120.435C1185.8 114.273 1188.48 109.497 1192.51 106.107C1196.54 102.716 1200.66 101.765 1204.87 103.252C1209.08 104.739 1212.24 108.276 1214.33 113.864C1215.15 116.038 1215.69 118.195 1215.96 120.336C1216.22 122.477 1216.25 124.696 1216.03 126.994L1241.9 136.192C1242.64 134.079 1243.55 132.192 1244.63 130.532C1245.72 128.871 1247.04 127.378 1248.62 126.054C1252.65 122.658 1256.77 121.706 1260.98 123.199C1265.19 124.692 1268.34 128.23 1270.43 133.812Z" fill="white" fill-opacity="0.2"/>
<path d="M1438.94 116.631C1439.08 125.806 1436.87 133.752 1432.31 140.471C1427.76 147.19 1422.09 150.851 1415.3 151.454C1414.27 151.546 1413.46 151.423 1412.88 151.082C1412.3 150.742 1411.84 150.824 1411.51 151.328C1411.17 151.831 1411.15 152.456 1411.45 153.201C1411.75 153.946 1411.91 155.022 1411.93 156.428C1412.07 165.603 1409.86 173.55 1405.31 180.269C1400.75 186.988 1395.08 190.648 1388.3 191.251C1381.51 191.854 1375.75 189.217 1371 183.34C1366.25 177.462 1363.81 169.936 1363.67 160.761C1363.62 157.184 1363.91 153.888 1364.56 150.871C1365.2 147.855 1366.19 144.963 1367.53 142.195L1338.33 106.043C1336.41 108.084 1334.36 109.669 1332.19 110.798C1330.02 111.928 1327.62 112.611 1324.98 112.848C1318.2 113.457 1312.43 110.819 1307.68 104.936C1302.93 99.053 1300.48 91.5269 1300.35 82.3577C1300.22 73.1886 1302.43 65.2415 1306.98 58.5166C1311.54 51.7916 1317.2 48.131 1323.98 47.5348C1325.02 47.4419 1325.82 47.5626 1326.4 47.8966C1326.98 48.2307 1327.44 48.1521 1327.78 47.6609C1328.12 47.1696 1328.14 46.5449 1327.84 45.7867C1327.54 45.0285 1327.38 43.953 1327.36 42.56C1327.22 33.3851 1329.43 25.438 1333.99 18.7189C1338.55 11.9997 1344.21 8.3391 1350.99 7.73708C1357.76 7.13506 1363.53 9.76919 1368.28 15.6395C1373.04 21.5098 1375.48 29.0391 1375.61 38.2273C1375.67 41.8039 1375.37 45.1006 1374.73 48.1171C1374.08 51.1336 1373.09 54.0256 1371.75 56.7931L1400.95 92.9457C1402.88 90.9043 1404.92 89.319 1407.09 88.1899C1409.26 87.0609 1411.67 86.3777 1414.31 86.1405C1421.09 85.5318 1426.85 88.1659 1431.61 94.0429C1436.36 99.9198 1438.8 107.449 1438.94 116.631Z" fill="white" fill-opacity="0.2"/>
</g>
<defs>
<clipPath id="clip0_992_918">
<rect width="1440" height="1093" fill="white"/>
</clipPath>
</defs>
</svg>