<svg width="1723" height="1375" viewBox="0 0 1723 1375" fill="none" xmlns="http://www.w3.org/2000/svg">
<rect width="1723" height="1375" fill="#FFFBFB"/>
<rect width="1723" height="1375" fill="#FFFBFB"/>
<path opacity="0.3" d="M551 1119.93C548.489 1122.82 545.032 1124.71 541.252 1125.26C537.472 1125.82 533.617 1125.01 530.383 1122.97C530.369 1122.97 530.353 1122.97 530.339 1122.97L498.938 1154.4V1154.44C500.21 1156.49 501.005 1158.8 501.262 1161.2C501.52 1163.6 501.235 1166.03 500.427 1168.3C499.62 1170.58 498.311 1172.64 496.598 1174.34C494.885 1176.04 492.811 1177.33 490.531 1178.12C488.251 1178.91 485.823 1179.17 483.427 1178.89C481.031 1178.61 478.729 1177.8 476.69 1176.51C474.652 1175.21 472.931 1173.48 471.654 1171.43C470.377 1169.38 469.577 1167.08 469.313 1164.68C466.916 1164.41 464.608 1163.61 462.562 1162.33C460.515 1161.06 458.783 1159.33 457.492 1157.29C456.202 1155.25 455.387 1152.95 455.108 1150.55C454.829 1148.15 455.093 1145.72 455.88 1143.44C456.668 1141.16 457.958 1139.08 459.656 1137.37C461.354 1135.66 463.416 1134.35 465.689 1133.54C467.963 1132.73 470.388 1132.44 472.787 1132.7C475.185 1132.96 477.494 1133.75 479.544 1135.03C479.558 1135.03 479.574 1135.03 479.588 1135.03L510.989 1103.6V1103.56C509.717 1101.51 508.922 1099.2 508.665 1096.8C508.407 1094.4 508.692 1091.97 509.5 1089.7C510.307 1087.42 511.616 1085.36 513.329 1083.66C515.042 1081.96 517.116 1080.67 519.396 1079.88C521.676 1079.09 524.104 1078.83 526.5 1079.11C528.896 1079.39 531.198 1080.2 533.237 1081.49C535.275 1082.79 536.996 1084.52 538.273 1086.57C539.55 1088.62 540.35 1090.92 540.614 1093.32C543.544 1093.63 546.334 1094.74 548.677 1096.53C551.02 1098.32 552.826 1100.72 553.899 1103.47C554.971 1106.21 555.268 1109.2 554.756 1112.11C554.245 1115.01 552.946 1117.72 551 1119.93Z" fill="#0FA958" fill-opacity="0.32"/>
<path opacity="0.3" d="M161 605.934C158.489 608.817 155.032 610.707 151.252 611.264C147.472 611.821 143.617 611.008 140.383 608.972C140.369 608.966 140.353 608.966 140.339 608.972L108.938 640.401V640.437C110.21 642.488 111.005 644.799 111.262 647.2C111.52 649.6 111.235 652.027 110.427 654.302C109.62 656.577 108.311 658.641 106.598 660.34C104.885 662.04 102.811 663.331 100.531 664.119C98.251 664.907 95.8229 665.171 93.4269 664.892C91.0309 664.613 88.7285 663.797 86.6904 662.506C84.6524 661.215 82.931 659.481 81.6539 657.433C80.3769 655.385 79.5769 653.075 79.3134 650.675C76.9157 650.412 74.608 649.611 72.5616 648.333C70.5152 647.055 68.7826 645.332 67.4922 643.293C66.2019 641.253 65.387 638.949 65.1079 636.551C64.8288 634.153 65.0928 631.723 65.8802 629.441C66.6676 627.16 67.9582 625.084 69.6563 623.37C71.3544 621.655 73.4165 620.345 75.6895 619.537C77.9625 618.729 80.3882 618.444 82.7865 618.702C85.1849 618.96 87.4944 619.755 89.5438 621.028C89.5582 621.034 89.5741 621.034 89.5884 621.028L120.989 589.599V589.563C119.717 587.512 118.922 585.201 118.665 582.8C118.407 580.4 118.692 577.973 119.5 575.698C120.307 573.423 121.616 571.359 123.329 569.66C125.042 567.96 127.116 566.669 129.396 565.881C131.676 565.093 134.104 564.829 136.5 565.108C138.896 565.387 141.198 566.203 143.237 567.494C145.275 568.786 146.996 570.519 148.273 572.567C149.55 574.615 150.35 576.925 150.614 579.325C153.544 579.633 156.334 580.743 158.677 582.531C161.02 584.32 162.826 586.719 163.899 589.466C164.971 592.213 165.268 595.202 164.756 598.107C164.245 601.011 162.946 603.719 161 605.934Z" fill="#0FA958" fill-opacity="0.32"/>
<path opacity="0.3" d="M733 783.934C730.489 786.817 727.032 788.707 723.252 789.264C719.472 789.821 715.617 789.008 712.383 786.972C712.369 786.966 712.353 786.966 712.339 786.972L680.938 818.401V818.437C682.21 820.488 683.005 822.799 683.262 825.2C683.52 827.6 683.235 830.027 682.427 832.302C681.62 834.577 680.311 836.641 678.598 838.34C676.885 840.04 674.811 841.331 672.531 842.119C670.251 842.907 667.823 843.171 665.427 842.892C663.031 842.613 660.729 841.797 658.69 840.506C656.652 839.215 654.931 837.481 653.654 835.433C652.377 833.385 651.577 831.075 651.313 828.675C648.916 828.412 646.608 827.611 644.562 826.333C642.515 825.055 640.783 823.332 639.492 821.293C638.202 819.253 637.387 816.949 637.108 814.551C636.829 812.153 637.093 809.723 637.88 807.441C638.668 805.16 639.958 803.084 641.656 801.37C643.354 799.655 645.416 798.345 647.689 797.537C649.963 796.729 652.388 796.444 654.787 796.702C657.185 796.96 659.494 797.755 661.544 799.028C661.558 799.034 661.574 799.034 661.588 799.028L692.989 767.599V767.563C691.717 765.512 690.922 763.201 690.665 760.8C690.407 758.4 690.692 755.973 691.5 753.698C692.307 751.423 693.616 749.359 695.329 747.66C697.042 745.96 699.116 744.669 701.396 743.881C703.676 743.093 706.104 742.829 708.5 743.108C710.896 743.387 713.198 744.203 715.237 745.494C717.275 746.786 718.996 748.519 720.273 750.567C721.55 752.615 722.35 754.925 722.614 757.325C725.544 757.633 728.334 758.743 730.677 760.531C733.02 762.32 734.826 764.719 735.899 767.466C736.971 770.213 737.268 773.202 736.756 776.107C736.245 779.011 734.946 781.719 733 783.934Z" fill="#0FA958" fill-opacity="0.32"/>
<path opacity="0.3" d="M1264 85.9343C1261.49 88.8168 1258.03 90.7068 1254.25 91.2638C1250.47 91.8207 1246.62 91.0079 1243.38 88.9718C1243.37 88.9663 1243.35 88.9663 1243.34 88.9718L1211.94 120.401V120.437C1213.21 122.488 1214 124.799 1214.26 127.2C1214.52 129.6 1214.23 132.027 1213.43 134.302C1212.62 136.577 1211.31 138.641 1209.6 140.34C1207.88 142.04 1205.81 143.331 1203.53 144.119C1201.25 144.907 1198.82 145.171 1196.43 144.892C1194.03 144.613 1191.73 143.797 1189.69 142.506C1187.65 141.215 1185.93 139.481 1184.65 137.433C1183.38 135.385 1182.58 133.075 1182.31 130.675C1179.92 130.412 1177.61 129.611 1175.56 128.333C1173.52 127.055 1171.78 125.332 1170.49 123.293C1169.2 121.253 1168.39 118.949 1168.11 116.551C1167.83 114.153 1168.09 111.723 1168.88 109.441C1169.67 107.16 1170.96 105.084 1172.66 103.37C1174.35 101.655 1176.42 100.345 1178.69 99.5373C1180.96 98.7292 1183.39 98.4436 1185.79 98.7017C1188.18 98.9597 1190.49 99.7549 1192.54 101.028C1192.56 101.034 1192.57 101.034 1192.59 101.028L1223.99 69.5986V69.5628C1222.72 67.5119 1221.92 65.2005 1221.66 62.8003C1221.41 60.4001 1221.69 57.9726 1222.5 55.6978C1223.31 53.423 1224.62 51.3594 1226.33 49.6599C1228.04 47.9605 1230.12 46.6689 1232.4 45.8809C1234.68 45.0929 1237.1 44.8287 1239.5 45.108C1241.9 45.3873 1244.2 46.2028 1246.24 47.4942C1248.27 48.7855 1250 50.5195 1251.27 52.5675C1252.55 54.6155 1253.35 56.9249 1253.61 59.3245C1256.54 59.6333 1259.33 60.7427 1261.68 62.5313C1264.02 64.32 1265.83 66.719 1266.9 69.4661C1267.97 72.2131 1268.27 75.2024 1267.76 78.1069C1267.25 81.0113 1265.95 83.7192 1264 85.9343Z" fill="#0FA958" fill-opacity="0.32"/>
<path opacity="0.3" d="M651 166.934C648.489 169.817 645.032 171.707 641.252 172.264C637.472 172.821 633.617 172.008 630.383 169.972C630.369 169.966 630.353 169.966 630.339 169.972L598.938 201.401V201.437C600.21 203.488 601.005 205.799 601.262 208.2C601.52 210.6 601.235 213.027 600.427 215.302C599.62 217.577 598.311 219.641 596.598 221.34C594.885 223.04 592.811 224.331 590.531 225.119C588.251 225.907 585.823 226.171 583.427 225.892C581.031 225.613 578.729 224.797 576.69 223.506C574.652 222.215 572.931 220.481 571.654 218.433C570.377 216.385 569.577 214.075 569.313 211.675C566.916 211.412 564.608 210.611 562.562 209.333C560.515 208.055 558.783 206.332 557.492 204.293C556.202 202.253 555.387 199.949 555.108 197.551C554.829 195.153 555.093 192.723 555.88 190.441C556.668 188.16 557.958 186.084 559.656 184.37C561.354 182.655 563.416 181.345 565.689 180.537C567.963 179.729 570.388 179.444 572.787 179.702C575.185 179.96 577.494 180.755 579.544 182.028C579.558 182.034 579.574 182.034 579.588 182.028L610.989 150.599V150.563C609.717 148.512 608.922 146.201 608.665 143.8C608.407 141.4 608.692 138.973 609.5 136.698C610.307 134.423 611.616 132.359 613.329 130.66C615.042 128.96 617.116 127.669 619.396 126.881C621.676 126.093 624.104 125.829 626.5 126.108C628.896 126.387 631.198 127.203 633.237 128.494C635.275 129.786 636.996 131.519 638.273 133.567C639.55 135.615 640.35 137.925 640.614 140.325C643.544 140.633 646.334 141.743 648.677 143.531C651.02 145.32 652.826 147.719 653.899 150.466C654.971 153.213 655.268 156.202 654.756 159.107C654.245 162.011 652.946 164.719 651 166.934Z" fill="#0FA958" fill-opacity="0.32"/>
<path opacity="0.3" d="M1645 1173.93C1642.49 1176.82 1639.03 1178.71 1635.25 1179.26C1631.47 1179.82 1627.62 1179.01 1624.38 1176.97C1624.37 1176.97 1624.35 1176.97 1624.34 1176.97L1592.94 1208.4V1208.44C1594.21 1210.49 1595 1212.8 1595.26 1215.2C1595.52 1217.6 1595.23 1220.03 1594.43 1222.3C1593.62 1224.58 1592.31 1226.64 1590.6 1228.34C1588.88 1230.04 1586.81 1231.33 1584.53 1232.12C1582.25 1232.91 1579.82 1233.17 1577.43 1232.89C1575.03 1232.61 1572.73 1231.8 1570.69 1230.51C1568.65 1229.21 1566.93 1227.48 1565.65 1225.43C1564.38 1223.38 1563.58 1221.08 1563.31 1218.68C1560.92 1218.41 1558.61 1217.61 1556.56 1216.33C1554.52 1215.06 1552.78 1213.33 1551.49 1211.29C1550.2 1209.25 1549.39 1206.95 1549.11 1204.55C1548.83 1202.15 1549.09 1199.72 1549.88 1197.44C1550.67 1195.16 1551.96 1193.08 1553.66 1191.37C1555.35 1189.66 1557.42 1188.35 1559.69 1187.54C1561.96 1186.73 1564.39 1186.44 1566.79 1186.7C1569.18 1186.96 1571.49 1187.75 1573.54 1189.03C1573.56 1189.03 1573.57 1189.03 1573.59 1189.03L1604.99 1157.6V1157.56C1603.72 1155.51 1602.92 1153.2 1602.66 1150.8C1602.41 1148.4 1602.69 1145.97 1603.5 1143.7C1604.31 1141.42 1605.62 1139.36 1607.33 1137.66C1609.04 1135.96 1611.12 1134.67 1613.4 1133.88C1615.68 1133.09 1618.1 1132.83 1620.5 1133.11C1622.9 1133.39 1625.2 1134.2 1627.24 1135.49C1629.27 1136.79 1631 1138.52 1632.27 1140.57C1633.55 1142.62 1634.35 1144.92 1634.61 1147.32C1637.54 1147.63 1640.33 1148.74 1642.68 1150.53C1645.02 1152.32 1646.83 1154.72 1647.9 1157.47C1648.97 1160.21 1649.27 1163.2 1648.76 1166.11C1648.25 1169.01 1646.95 1171.72 1645 1173.93Z" fill="#0FA958" fill-opacity="0.32"/>
<path opacity="0.3" d="M203.953 116.266C202.913 113.793 201.184 112.01 198.952 111.112L198.922 111.101C197.906 110.703 196.825 110.5 195.734 110.501H195.614C190.506 110.578 185.291 114.918 182.639 121.301C180.695 125.969 180.471 130.99 182.043 134.732C183.082 137.206 184.814 138.989 187.055 139.887L187.08 139.897C188.096 140.294 189.177 140.498 190.268 140.497C195.425 140.497 200.694 136.157 203.395 129.689C205.315 125.026 205.527 120.01 203.953 116.266ZM183.543 143.798C180.597 142.028 177.812 140.354 175.993 137.347C170.975 129.023 167.945 123.999 159.999 123.999C152.054 123.999 149.016 129.023 143.986 137.347C142.164 140.358 139.373 142.034 136.418 143.811C133.029 145.847 129.528 147.951 128.017 152.09C127.429 153.582 127.133 155.173 127.145 156.777C127.145 163.516 132.395 169 138.846 169C142.175 169 145.717 167.847 149.466 166.627C153.07 165.453 156.796 164.24 160.018 164.24C163.24 164.24 166.956 165.453 170.548 166.627C174.289 167.84 177.814 168.992 181.152 168.992C187.594 168.992 192.835 163.509 192.835 156.769C192.84 155.164 192.538 153.573 191.944 152.082C190.433 147.939 186.93 145.834 183.543 143.798ZM140.121 117.409C142.353 120.208 145.185 121.749 148.095 121.749C148.492 121.749 148.889 121.72 149.282 121.661C155.352 120.769 159.135 113.364 157.893 104.789C157.374 101.184 155.986 97.8259 153.998 95.3362C151.771 92.5429 148.935 91.0037 146.027 91.0037C145.629 91.0038 145.233 91.0333 144.84 91.0919C138.769 91.9842 134.987 99.3894 136.228 107.964C136.746 111.564 138.134 114.918 140.121 117.409ZM170.718 121.661C171.111 121.72 171.508 121.749 171.905 121.749C174.817 121.749 177.647 120.208 179.879 117.409C181.865 114.918 183.245 111.564 183.77 107.961C185.011 99.3894 181.229 91.9842 175.159 91.0881C174.766 91.0295 174.369 91.0001 173.972 91C171.063 91.0037 168.228 92.5429 166 95.3362C164.012 97.8259 162.625 101.184 162.107 104.792C160.866 113.364 164.648 120.769 170.718 121.661ZM132.919 139.897L132.945 139.887C135.182 138.989 136.913 137.208 137.95 134.736C139.521 130.986 139.3 125.971 137.359 121.303C134.672 114.843 129.404 110.501 124.253 110.501C123.162 110.499 122.081 110.703 121.065 111.101L121.039 111.11C118.807 112.001 117.076 113.789 116.039 116.262C114.468 120.011 114.689 125.026 116.63 129.694C119.317 136.155 124.585 140.497 129.736 140.497C130.825 140.497 131.905 140.294 132.919 139.897Z" fill="#0FA958" fill-opacity="0.32"/>
<path opacity="0.3" d="M698.953 1180.27C697.913 1177.79 696.184 1176.01 693.952 1175.11L693.922 1175.1C692.906 1174.7 691.825 1174.5 690.734 1174.5H690.614C685.506 1174.58 680.291 1178.92 677.639 1185.3C675.695 1189.97 675.471 1194.99 677.043 1198.73C678.082 1201.21 679.814 1202.99 682.055 1203.89L682.08 1203.9C683.096 1204.29 684.177 1204.5 685.268 1204.5C690.425 1204.5 695.694 1200.16 698.395 1193.69C700.315 1189.03 700.527 1184.01 698.953 1180.27ZM678.543 1207.8C675.597 1206.03 672.812 1204.35 670.993 1201.35C665.975 1193.02 662.945 1188 654.999 1188C647.054 1188 644.016 1193.02 638.986 1201.35C637.164 1204.36 634.373 1206.03 631.418 1207.81C628.029 1209.85 624.528 1211.95 623.017 1216.09C622.429 1217.58 622.133 1219.17 622.145 1220.78C622.145 1227.52 627.395 1233 633.846 1233C637.175 1233 640.717 1231.85 644.466 1230.63C648.07 1229.45 651.796 1228.24 655.018 1228.24C658.24 1228.24 661.956 1229.45 665.548 1230.63C669.289 1231.84 672.814 1232.99 676.152 1232.99C682.594 1232.99 687.835 1227.51 687.835 1220.77C687.84 1219.16 687.538 1217.57 686.944 1216.08C685.433 1211.94 681.93 1209.83 678.543 1207.8ZM635.121 1181.41C637.353 1184.21 640.185 1185.75 643.095 1185.75C643.492 1185.75 643.889 1185.72 644.282 1185.66C650.352 1184.77 654.135 1177.36 652.893 1168.79C652.374 1165.18 650.986 1161.83 648.998 1159.34C646.771 1156.54 643.935 1155 641.027 1155C640.629 1155 640.233 1155.03 639.84 1155.09C633.769 1155.98 629.987 1163.39 631.228 1171.96C631.746 1175.56 633.134 1178.92 635.121 1181.41ZM665.718 1185.66C666.111 1185.72 666.508 1185.75 666.905 1185.75C669.817 1185.75 672.647 1184.21 674.879 1181.41C676.865 1178.92 678.245 1175.56 678.77 1171.96C680.011 1163.39 676.229 1155.98 670.159 1155.09C669.766 1155.03 669.369 1155 668.972 1155C666.063 1155 663.228 1156.54 661 1159.34C659.012 1161.83 657.625 1165.18 657.107 1168.79C655.866 1177.36 659.648 1184.77 665.718 1185.66ZM627.919 1203.9L627.945 1203.89C630.182 1202.99 631.913 1201.21 632.95 1198.74C634.521 1194.99 634.3 1189.97 632.359 1185.3C629.672 1178.84 624.404 1174.5 619.253 1174.5C618.162 1174.5 617.081 1174.7 616.065 1175.1L616.039 1175.11C613.807 1176 612.076 1177.79 611.039 1180.26C609.468 1184.01 609.689 1189.03 611.63 1193.69C614.317 1200.15 619.585 1204.5 624.736 1204.5C625.825 1204.5 626.905 1204.29 627.919 1203.9Z" fill="#0FA958" fill-opacity="0.32"/>
<path opacity="0.3" d="M1166.95 1258.27C1165.91 1255.79 1164.18 1254.01 1161.95 1253.11L1161.92 1253.1C1160.91 1252.7 1159.82 1252.5 1158.73 1252.5H1158.61C1153.51 1252.58 1148.29 1256.92 1145.64 1263.3C1143.69 1267.97 1143.47 1272.99 1145.04 1276.73C1146.08 1279.21 1147.81 1280.99 1150.06 1281.89L1150.08 1281.9C1151.1 1282.29 1152.18 1282.5 1153.27 1282.5C1158.42 1282.5 1163.69 1278.16 1166.39 1271.69C1168.31 1267.03 1168.53 1262.01 1166.95 1258.27ZM1146.54 1285.8C1143.6 1284.03 1140.81 1282.35 1138.99 1279.35C1133.98 1271.02 1130.94 1266 1123 1266C1115.05 1266 1112.02 1271.02 1106.99 1279.35C1105.16 1282.36 1102.37 1284.03 1099.42 1285.81C1096.03 1287.85 1092.53 1289.95 1091.02 1294.09C1090.43 1295.58 1090.13 1297.17 1090.14 1298.78C1090.14 1305.52 1095.4 1311 1101.85 1311C1105.17 1311 1108.72 1309.85 1112.47 1308.63C1116.07 1307.45 1119.8 1306.24 1123.02 1306.24C1126.24 1306.24 1129.96 1307.45 1133.55 1308.63C1137.29 1309.84 1140.81 1310.99 1144.15 1310.99C1150.59 1310.99 1155.83 1305.51 1155.83 1298.77C1155.84 1297.16 1155.54 1295.57 1154.94 1294.08C1153.43 1289.94 1149.93 1287.83 1146.54 1285.8ZM1103.12 1259.41C1105.35 1262.21 1108.18 1263.75 1111.1 1263.75C1111.49 1263.75 1111.89 1263.72 1112.28 1263.66C1118.35 1262.77 1122.13 1255.36 1120.89 1246.79C1120.37 1243.18 1118.99 1239.83 1117 1237.34C1114.77 1234.54 1111.94 1233 1109.03 1233C1108.63 1233 1108.23 1233.03 1107.84 1233.09C1101.77 1233.98 1097.99 1241.39 1099.23 1249.96C1099.75 1253.56 1101.13 1256.92 1103.12 1259.41ZM1133.72 1263.66C1134.11 1263.72 1134.51 1263.75 1134.91 1263.75C1137.82 1263.75 1140.65 1262.21 1142.88 1259.41C1144.86 1256.92 1146.24 1253.56 1146.77 1249.96C1148.01 1241.39 1144.23 1233.98 1138.16 1233.09C1137.77 1233.03 1137.37 1233 1136.97 1233C1134.06 1233 1131.23 1234.54 1129 1237.34C1127.01 1239.83 1125.62 1243.18 1125.11 1246.79C1123.87 1255.36 1127.65 1262.77 1133.72 1263.66ZM1095.92 1281.9L1095.94 1281.89C1098.18 1280.99 1099.91 1279.21 1100.95 1276.74C1102.52 1272.99 1102.3 1267.97 1100.36 1263.3C1097.67 1256.84 1092.4 1252.5 1087.25 1252.5C1086.16 1252.5 1085.08 1252.7 1084.07 1253.1L1084.04 1253.11C1081.81 1254 1080.08 1255.79 1079.04 1258.26C1077.47 1262.01 1077.69 1267.03 1079.63 1271.69C1082.32 1278.15 1087.58 1282.5 1092.74 1282.5C1093.83 1282.5 1094.9 1282.29 1095.92 1281.9Z" fill="#0FA958" fill-opacity="0.32"/>
<path opacity="0.3" d="M1667.95 690.266C1666.91 687.793 1665.18 686.01 1662.95 685.112L1662.92 685.101C1661.91 684.703 1660.82 684.5 1659.73 684.501H1659.61C1654.51 684.578 1649.29 688.918 1646.64 695.301C1644.69 699.969 1644.47 704.99 1646.04 708.732C1647.08 711.206 1648.81 712.989 1651.06 713.887L1651.08 713.897C1652.1 714.294 1653.18 714.498 1654.27 714.497C1659.42 714.497 1664.69 710.157 1667.39 703.689C1669.31 699.026 1669.53 694.01 1667.95 690.266ZM1647.54 717.798C1644.6 716.028 1641.81 714.354 1639.99 711.347C1634.98 703.023 1631.94 697.999 1624 697.999C1616.05 697.999 1613.02 703.023 1607.99 711.347C1606.16 714.358 1603.37 716.034 1600.42 717.811C1597.03 719.847 1593.53 721.951 1592.02 726.09C1591.43 727.582 1591.13 729.173 1591.14 730.777C1591.14 737.516 1596.4 743 1602.85 743C1606.17 743 1609.72 741.847 1613.47 740.627C1617.07 739.453 1620.8 738.24 1624.02 738.24C1627.24 738.24 1630.96 739.453 1634.55 740.627C1638.29 741.84 1641.81 742.992 1645.15 742.992C1651.59 742.992 1656.83 737.509 1656.83 730.769C1656.84 729.164 1656.54 727.573 1655.94 726.082C1654.43 721.939 1650.93 719.834 1647.54 717.798ZM1604.12 691.409C1606.35 694.208 1609.18 695.749 1612.1 695.749C1612.49 695.749 1612.89 695.72 1613.28 695.661C1619.35 694.769 1623.13 687.364 1621.89 678.789C1621.37 675.184 1619.99 671.826 1618 669.336C1615.77 666.543 1612.94 665.004 1610.03 665.004C1609.63 665.004 1609.23 665.033 1608.84 665.092C1602.77 665.984 1598.99 673.389 1600.23 681.964C1600.75 685.564 1602.13 688.918 1604.12 691.409ZM1634.72 695.661C1635.11 695.72 1635.51 695.749 1635.91 695.749C1638.82 695.749 1641.65 694.208 1643.88 691.409C1645.86 688.918 1647.24 685.564 1647.77 681.961C1649.01 673.389 1645.23 665.984 1639.16 665.088C1638.77 665.03 1638.37 665 1637.97 665C1635.06 665.004 1632.23 666.543 1630 669.336C1628.01 671.826 1626.62 675.184 1626.11 678.792C1624.87 687.364 1628.65 694.769 1634.72 695.661ZM1596.92 713.897L1596.94 713.887C1599.18 712.989 1600.91 711.208 1601.95 708.736C1603.52 704.986 1603.3 699.971 1601.36 695.303C1598.67 688.843 1593.4 684.501 1588.25 684.501C1587.16 684.499 1586.08 684.703 1585.07 685.101L1585.04 685.11C1582.81 686.001 1581.08 687.789 1580.04 690.262C1578.47 694.011 1578.69 699.026 1580.63 703.694C1583.32 710.155 1588.58 714.497 1593.74 714.497C1594.83 714.497 1595.9 714.294 1596.92 713.897Z" fill="#0FA958" fill-opacity="0.32"/>
<path opacity="0.3" d="M125.953 1038.27C124.913 1035.79 123.184 1034.01 120.952 1033.11L120.922 1033.1C119.906 1032.7 118.825 1032.5 117.734 1032.5H117.614C112.506 1032.58 107.291 1036.92 104.639 1043.3C102.695 1047.97 102.471 1052.99 104.043 1056.73C105.082 1059.21 106.814 1060.99 109.055 1061.89L109.08 1061.9C110.096 1062.29 111.177 1062.5 112.268 1062.5C117.425 1062.5 122.694 1058.16 125.395 1051.69C127.315 1047.03 127.527 1042.01 125.953 1038.27ZM105.543 1065.8C102.597 1064.03 99.8123 1062.35 97.9933 1059.35C92.9751 1051.02 89.9447 1046 81.9992 1046C74.0537 1046 71.0158 1051.02 65.9864 1059.35C64.1636 1062.36 61.3732 1064.03 58.4178 1065.81C55.0292 1067.85 51.5281 1069.95 50.0166 1074.09C49.4289 1075.58 49.1329 1077.17 49.1446 1078.78C49.1446 1085.52 54.3954 1091 60.8463 1091C64.1748 1091 67.7172 1089.85 71.4659 1088.63C75.0701 1087.45 78.7962 1086.24 82.0179 1086.24C85.2396 1086.24 88.9564 1087.45 92.5475 1088.63C96.2887 1089.84 99.8141 1090.99 103.152 1090.99C109.594 1090.99 114.835 1085.51 114.835 1078.77C114.84 1077.16 114.538 1075.57 113.944 1074.08C112.433 1069.94 108.93 1067.83 105.543 1065.8ZM62.1214 1039.41C64.353 1042.21 67.1846 1043.75 70.095 1043.75C70.4924 1043.75 70.8891 1043.72 71.2821 1043.66C77.3523 1042.77 81.1347 1035.36 79.8933 1026.79C79.3738 1023.18 77.9861 1019.83 75.9984 1017.34C73.7705 1014.54 70.9352 1013 68.0266 1013C67.6293 1013 67.2326 1013.03 66.8396 1013.09C60.7694 1013.98 56.987 1021.39 58.2284 1029.96C58.746 1033.56 60.1337 1036.92 62.1214 1039.41ZM92.7182 1043.66C93.1111 1043.72 93.5079 1043.75 93.9052 1043.75C96.8175 1043.75 99.6473 1042.21 101.879 1039.41C103.865 1036.92 105.245 1033.56 105.77 1029.96C107.011 1021.39 103.229 1013.98 97.1588 1013.09C96.7658 1013.03 96.3691 1013 95.9717 1013C93.0632 1013 90.2278 1014.54 88 1017.34C86.0122 1019.83 84.6245 1023.18 84.107 1026.79C82.8656 1035.36 86.648 1042.77 92.7182 1043.66ZM54.9186 1061.9L54.9448 1061.89C57.182 1060.99 58.9129 1059.21 59.9499 1056.74C61.5214 1052.99 61.3001 1047.97 59.3592 1043.3C56.6719 1036.84 51.4043 1032.5 46.253 1032.5C45.1621 1032.5 44.0807 1032.7 43.0651 1033.1L43.0388 1033.11C40.8072 1034 39.0764 1035.79 38.0394 1038.26C36.4679 1042.01 36.6892 1047.03 38.6301 1051.69C41.3173 1058.15 46.5849 1062.5 51.7363 1062.5C52.8252 1062.5 53.9047 1062.29 54.9186 1061.9Z" fill="#0FA958" fill-opacity="0.32"/>
<path opacity="0.3" d="M593.953 521.266C592.913 518.793 591.184 517.01 588.952 516.112L588.922 516.101C587.906 515.703 586.825 515.5 585.734 515.501H585.614C580.506 515.578 575.291 519.918 572.639 526.301C570.695 530.969 570.471 535.99 572.043 539.732C573.082 542.206 574.814 543.989 577.055 544.887L577.08 544.897C578.096 545.294 579.177 545.498 580.268 545.497C585.425 545.497 590.694 541.157 593.395 534.689C595.315 530.026 595.527 525.01 593.953 521.266ZM573.543 548.798C570.597 547.028 567.812 545.354 565.993 542.347C560.975 534.023 557.945 528.999 549.999 528.999C542.054 528.999 539.016 534.023 533.986 542.347C532.164 545.358 529.373 547.034 526.418 548.811C523.029 550.847 519.528 552.951 518.017 557.09C517.429 558.582 517.133 560.173 517.145 561.777C517.145 568.516 522.395 574 528.846 574C532.175 574 535.717 572.847 539.466 571.627C543.07 570.453 546.796 569.24 550.018 569.24C553.24 569.24 556.956 570.453 560.548 571.627C564.289 572.84 567.814 573.992 571.152 573.992C577.594 573.992 582.835 568.509 582.835 561.769C582.84 560.164 582.538 558.573 581.944 557.082C580.433 552.939 576.93 550.834 573.543 548.798ZM530.121 522.409C532.353 525.208 535.185 526.749 538.095 526.749C538.492 526.749 538.889 526.72 539.282 526.661C545.352 525.769 549.135 518.364 547.893 509.789C547.374 506.184 545.986 502.826 543.998 500.336C541.771 497.543 538.935 496.004 536.027 496.004C535.629 496.004 535.233 496.033 534.84 496.092C528.769 496.984 524.987 504.389 526.228 512.964C526.746 516.564 528.134 519.918 530.121 522.409ZM560.718 526.661C561.111 526.72 561.508 526.749 561.905 526.749C564.817 526.749 567.647 525.208 569.879 522.409C571.865 519.918 573.245 516.564 573.77 512.961C575.011 504.389 571.229 496.984 565.159 496.088C564.766 496.03 564.369 496 563.972 496C561.063 496.004 558.228 497.543 556 500.336C554.012 502.826 552.625 506.184 552.107 509.792C550.866 518.364 554.648 525.769 560.718 526.661ZM522.919 544.897L522.945 544.887C525.182 543.989 526.913 542.208 527.95 539.736C529.521 535.986 529.3 530.971 527.359 526.303C524.672 519.843 519.404 515.501 514.253 515.501C513.162 515.499 512.081 515.703 511.065 516.101L511.039 516.11C508.807 517.001 507.076 518.789 506.039 521.262C504.468 525.011 504.689 530.026 506.63 534.694C509.317 541.155 514.585 545.497 519.736 545.497C520.825 545.497 521.905 545.294 522.919 544.897Z" fill="#0FA958" fill-opacity="0.32"/>
</svg>
