<svg width="1438" height="732" viewBox="0 0 1438 732" fill="none" xmlns="http://www.w3.org/2000/svg">
<path fill-rule="evenodd" clip-rule="evenodd" d="M1344.37 549.32C1340.73 546.581 1336.06 546.627 1332.12 547.93C1328.14 549.238 1324.29 551.958 1321.27 555.594C1318.26 559.23 1316.38 563.433 1315.97 567.43C1315.56 571.381 1316.59 575.728 1320.23 578.467C1323.86 581.206 1328.53 581.16 1332.48 579.857C1336.46 578.549 1340.31 575.829 1343.32 572.193C1346.34 568.557 1348.22 564.354 1348.63 560.357C1349.04 556.406 1348.01 552.059 1344.37 549.32ZM1381.12 576.985C1377.48 574.246 1372.81 574.293 1368.87 575.595C1364.89 576.903 1361.04 579.623 1358.02 583.259C1355.01 586.895 1353.13 591.098 1352.72 595.095C1352.31 599.046 1353.34 603.394 1356.98 606.132C1360.61 608.871 1365.28 608.825 1369.23 607.522C1373.21 606.214 1377.06 603.494 1380.07 599.858C1383.08 596.222 1384.97 592.019 1385.38 588.023C1385.79 584.071 1384.76 579.724 1381.12 576.985ZM1295.16 565.512C1291.52 562.773 1286.85 562.819 1282.91 564.122C1278.93 565.43 1275.07 568.15 1272.06 571.786C1269.05 575.422 1267.17 579.624 1266.76 583.621C1266.35 587.573 1267.38 591.92 1271.01 594.659C1274.65 597.398 1279.32 597.351 1283.26 596.049C1287.25 594.741 1291.1 592.021 1294.11 588.385C1297.12 584.749 1299.01 580.546 1299.42 576.549C1299.83 572.598 1298.8 568.25 1295.16 565.512ZM1335.58 595.943C1326.76 589.304 1316.34 589.077 1307.34 591.757C1298.47 594.388 1290.5 599.947 1285.71 605.725C1280.14 612.458 1280.34 620.207 1283.02 626.788C1285.65 633.264 1290.81 639.136 1296.35 643.308C1301.89 647.48 1309.07 650.911 1316.3 651.841C1323.62 652.791 1331.59 651.189 1337.16 644.456C1341.95 638.678 1345.77 629.998 1346.4 621.159C1347.06 612.193 1344.41 602.588 1335.58 595.943ZM1376.01 626.375C1372.37 623.636 1367.7 623.683 1363.76 624.985C1359.77 626.293 1355.92 629.013 1352.91 632.649C1349.9 636.285 1348.02 640.488 1347.6 644.485C1347.2 648.436 1348.22 652.784 1351.86 655.522C1355.5 658.261 1360.17 658.215 1364.11 656.912C1368.1 655.604 1371.95 652.884 1374.96 649.248C1377.97 645.612 1379.85 641.409 1380.27 637.412C1380.67 633.461 1379.65 629.114 1376.01 626.375Z" fill="#F4F4F4"/>
<path fill-rule="evenodd" clip-rule="evenodd" d="M1397.27 667.844C1395.12 666.155 1392.29 665.977 1389.87 666.532C1387.43 667.088 1385.04 668.439 1383.15 670.339C1381.25 672.238 1380.03 674.504 1379.71 676.719C1379.38 678.908 1379.93 681.382 1382.08 683.071C1384.24 684.761 1387.07 684.939 1389.49 684.384C1391.93 683.828 1394.31 682.477 1396.21 680.577C1398.1 678.678 1399.33 676.412 1399.65 674.197C1399.97 672.008 1399.43 669.534 1397.27 667.844ZM1419.05 684.908C1416.89 683.219 1414.06 683.041 1411.64 683.596C1409.2 684.152 1406.81 685.503 1404.92 687.403C1403.02 689.302 1401.8 691.568 1401.48 693.783C1401.16 695.972 1401.7 698.446 1403.85 700.135C1406.01 701.825 1408.84 702.003 1411.26 701.448C1413.7 700.892 1416.09 699.541 1417.98 697.641C1419.88 695.742 1421.1 693.476 1421.42 691.261C1421.74 689.072 1421.2 686.598 1419.05 684.908ZM1367.12 674.736C1364.96 673.047 1362.13 672.869 1359.71 673.424C1357.27 673.98 1354.89 675.331 1352.99 677.231C1351.1 679.13 1349.87 681.396 1349.55 683.611C1349.23 685.8 1349.77 688.274 1351.93 689.963C1354.08 691.653 1356.91 691.831 1359.33 691.276C1361.77 690.719 1364.16 689.368 1366.05 687.469C1367.95 685.569 1369.17 683.304 1369.49 681.089C1369.82 678.899 1369.27 676.426 1367.12 674.736ZM1391.07 693.507C1385.84 689.411 1379.53 688.829 1374.02 689.932C1368.59 691.013 1363.65 693.77 1360.63 696.789C1357.12 700.306 1357.1 704.644 1358.6 708.438C1360.08 712.171 1363.1 715.677 1366.38 718.25C1369.66 720.824 1373.95 723.055 1378.32 723.891C1382.75 724.742 1387.61 724.196 1391.11 720.678C1394.13 717.66 1396.61 712.978 1397.16 708.068C1397.73 703.087 1396.3 697.605 1391.07 693.507ZM1415.02 712.277C1412.86 710.588 1410.03 710.409 1407.61 710.965C1405.17 711.521 1402.78 712.872 1400.89 714.771C1398.99 716.671 1397.77 718.936 1397.45 721.151C1397.13 723.341 1397.67 725.815 1399.82 727.504C1401.98 729.193 1404.81 729.372 1407.23 728.817C1409.67 728.26 1412.06 726.909 1413.95 725.01C1415.85 723.11 1417.07 720.845 1417.39 718.63C1417.71 716.44 1417.17 713.966 1415.02 712.277Z" fill="#F4F4F4"/>
<path d="M17.4457 43.9944C15.1584 47.4553 14.442 51.2629 15.2964 55.4172C16.1509 59.5714 18.3476 62.9436 21.8865 65.5336C22.4258 65.9288 22.894 66.1622 23.2913 66.2339C23.6886 66.3057 23.9182 66.4966 23.98 66.8066C24.0419 67.1166 23.9012 67.3618 23.558 67.5421C23.2147 67.7224 22.869 68.0786 22.5209 68.6106C20.2336 72.0715 19.5172 75.8791 20.3717 80.0334C21.2261 84.1877 23.4228 87.5598 26.9618 90.1498C30.5007 92.7398 34.2675 93.7363 38.2622 93.1392C42.2569 92.5421 45.3979 90.5131 47.6852 87.0522C48.5769 85.703 49.2113 84.3395 49.5884 82.9615C49.9655 81.5835 50.1241 80.1325 50.0642 78.6084L74.6363 74.9354C75.1896 76.3858 75.9191 77.7041 76.8249 78.8903C77.7307 80.0765 78.8726 81.1746 80.2506 82.1845C83.7856 84.7751 87.5524 85.7715 91.5511 85.1738C95.5497 84.5761 98.6907 82.5471 100.974 79.0868C103.257 75.6265 103.973 71.8181 103.12 67.6614C102.267 63.5048 100.071 60.1335 96.5333 57.5476C95.9941 57.1525 95.5266 56.9178 95.1309 56.8438C94.7351 56.7697 94.5048 56.58 94.4398 56.2746C94.3748 55.9693 94.5143 55.7232 94.8583 55.5365C95.2023 55.3497 95.5491 54.9944 95.8989 54.4706C98.1862 51.0097 98.9015 47.2012 98.0446 43.0452C97.1877 38.8892 94.9922 35.5179 91.4581 32.9314C87.9239 30.3449 84.1579 29.3473 80.16 29.9385C76.1621 30.5298 73.0203 32.56 70.7346 36.029C69.843 37.3782 69.2086 38.7418 68.8315 40.1197C68.4544 41.4977 68.2958 42.9488 68.3557 44.4729L43.7836 48.1458C43.2303 46.6954 42.5007 45.3771 41.5949 44.1909C40.6891 43.0047 39.5472 41.9067 38.1692 40.8968C34.6342 38.3062 30.8682 37.3085 26.8711 37.9039C22.874 38.4992 19.7322 40.5294 17.4457 43.9944Z" fill="#F4F4F4"/>
<path d="M109.49 118.644C109.39 122.275 110.489 125.373 112.786 127.939C115.083 130.504 117.957 131.838 121.407 131.941C121.933 131.957 122.344 131.892 122.64 131.746C122.937 131.6 123.17 131.623 123.34 131.815C123.51 132.008 123.518 132.254 123.362 132.555C123.206 132.856 123.122 133.284 123.109 133.841C123.009 137.471 124.108 140.569 126.405 143.135C128.702 145.7 131.575 147.035 135.026 147.137C138.476 147.24 141.418 146.082 143.852 143.663C146.286 141.244 147.553 138.22 147.653 134.589C147.692 133.174 147.552 131.876 147.233 130.696C146.915 129.516 146.42 128.393 145.747 127.325L160.719 112.447C161.692 113.215 162.729 113.801 163.829 114.204C164.929 114.607 166.152 114.829 167.496 114.87C170.943 114.976 173.886 113.818 176.322 111.396C178.758 108.975 180.025 105.95 180.123 102.322C180.22 98.6939 179.121 95.5958 176.824 93.0278C174.527 90.4598 171.654 89.1256 168.206 89.0254C167.68 89.0094 167.269 89.0732 166.973 89.2169C166.677 89.3606 166.443 89.3387 166.273 89.1512C166.103 88.9637 166.094 88.7171 166.248 88.4114C166.401 88.1057 166.487 87.6772 166.504 87.1259C166.604 83.4953 165.504 80.3972 163.205 77.8315C160.906 75.2659 158.033 73.9318 154.588 73.8292C151.142 73.7265 148.2 74.8833 145.761 77.2996C143.323 79.7158 142.056 82.7417 141.96 86.3774C141.921 87.7927 142.061 89.0903 142.38 90.2702C142.698 91.45 143.194 92.5737 143.866 93.6412L128.894 108.52C127.921 107.751 126.884 107.165 125.784 106.762C124.684 106.359 123.462 106.137 122.118 106.096C118.67 105.991 115.728 107.148 113.291 109.566C110.855 111.985 109.588 115.011 109.49 118.644Z" fill="#F4F4F4"/>
<path fill-rule="evenodd" clip-rule="evenodd" d="M1077.56 202.539C1075.53 200.951 1073.02 201.009 1070.93 201.802C1068.82 202.597 1066.83 204.223 1065.31 206.382C1063.79 208.541 1062.89 211.026 1062.78 213.38C1062.67 215.708 1063.34 218.259 1065.38 219.847C1067.41 221.434 1069.92 221.376 1072.01 220.584C1074.12 219.789 1076.11 218.163 1077.63 216.004C1079.15 213.845 1080.05 211.36 1080.16 209.005C1080.27 206.678 1079.59 204.127 1077.56 202.539ZM1098.11 218.576C1096.07 216.989 1093.56 217.046 1091.48 217.839C1089.37 218.634 1087.37 220.26 1085.85 222.419C1084.33 224.578 1083.43 227.063 1083.32 229.417C1083.21 231.745 1083.89 234.296 1085.92 235.884C1087.96 237.471 1090.47 237.414 1092.55 236.621C1094.66 235.826 1096.66 234.2 1098.18 232.041C1099.7 229.882 1100.59 227.397 1100.7 225.043C1100.81 222.715 1100.14 220.164 1098.11 218.576ZM1051.53 212.388C1049.49 210.8 1046.98 210.858 1044.9 211.65C1042.79 212.446 1040.79 214.071 1039.27 216.23C1037.75 218.389 1036.86 220.875 1036.75 223.229C1036.63 225.556 1037.31 228.108 1039.34 229.695C1041.38 231.283 1043.89 231.225 1045.97 230.433C1048.08 229.637 1050.08 228.012 1051.6 225.853C1053.12 223.694 1054.01 221.208 1054.13 218.854C1054.24 216.527 1053.56 213.975 1051.53 212.388ZM1074.13 230.029C1069.2 226.18 1063.58 226.115 1058.81 227.75C1054.11 229.356 1049.98 232.679 1047.56 236.11C1044.75 240.108 1045.07 244.666 1046.69 248.521C1048.29 252.314 1051.23 255.735 1054.33 258.153C1057.43 260.572 1061.39 262.543 1065.3 263.044C1069.27 263.555 1073.51 262.56 1076.32 258.562C1078.74 255.131 1080.56 249.999 1080.65 244.794C1080.76 239.514 1079.06 233.881 1074.13 230.029ZM1096.73 247.67C1094.69 246.082 1092.18 246.14 1090.1 246.932C1087.99 247.728 1085.99 249.353 1084.47 251.512C1082.95 253.671 1082.05 256.156 1081.94 258.511C1081.83 260.838 1082.51 263.389 1084.54 264.977C1086.58 266.565 1089.09 266.507 1091.17 265.715C1093.28 264.919 1095.28 263.294 1096.8 261.134C1098.32 258.975 1099.21 256.49 1099.32 254.136C1099.43 251.808 1098.76 249.257 1096.73 247.67Z" fill="#F4F4F4"/>
<path d="M295.311 676.782C292.634 678.183 290.844 680.353 289.94 683.294C289.036 686.234 289.266 689.147 290.63 692.031C290.837 692.471 291.056 692.783 291.285 692.967C291.515 693.152 291.596 693.353 291.527 693.572C291.458 693.791 291.282 693.898 290.999 693.892C290.716 693.887 290.37 693.993 289.961 694.209C287.284 695.61 285.494 697.781 284.59 700.721C283.686 703.662 283.916 706.574 285.28 709.458C286.644 712.343 288.711 714.293 291.481 715.31C294.251 716.327 296.974 716.135 299.651 714.734C300.694 714.188 301.577 713.542 302.301 712.798C303.024 712.053 303.633 711.186 304.127 710.196L321.167 716.451C321.015 717.567 321.022 718.66 321.188 719.731C321.355 720.802 321.703 721.9 322.234 723.024C323.595 725.907 325.662 727.857 328.435 728.875C331.208 729.893 333.931 729.701 336.605 728.299C339.278 726.897 341.068 724.725 341.974 721.784C342.88 718.843 342.651 715.931 341.286 713.05C341.078 712.61 340.86 712.297 340.632 712.112C340.405 711.927 340.323 711.725 340.388 711.509C340.453 711.292 340.629 711.184 340.915 711.185C341.2 711.187 341.547 711.082 341.954 710.871C344.631 709.47 346.421 707.299 347.324 704.356C348.227 701.414 347.998 698.503 346.636 695.622C345.273 692.742 343.207 690.791 340.437 689.769C337.667 688.747 334.943 688.94 332.265 690.347C331.221 690.893 330.338 691.538 329.614 692.283C328.891 693.027 328.282 693.894 327.788 694.885L310.748 688.629C310.9 687.514 310.893 686.42 310.727 685.349C310.561 684.278 310.212 683.181 309.682 682.057C308.32 679.174 306.254 677.223 303.483 676.204C300.712 675.185 297.988 675.378 295.311 676.782Z" fill="#F4F4F4"/>
</svg>
