<svg width="50" height="51" viewBox="0 0 80 81" fill="none" xmlns="http://www.w3.org/2000/svg">
<path d="M65 50.0312H50V45.0312H65V50.0312ZM75 70.0312H60V65.0312H75V70.0312ZM70 60.0312H55V55.0312H70V60.0312Z" fill="white"/>
<path d="M42.5075 50.0312C42.4887 47.922 41.9255 45.8534 40.8726 44.0257C39.8197 42.198 38.3127 40.6731 36.4975 39.5987L55 7.53125L50.675 5.03125L31.7325 37.8463C29.4077 37.3271 26.9899 37.3991 24.7001 38.0555C22.4104 38.7119 20.3216 39.9318 18.625 41.6037C9.26498 50.6312 9.98998 71.7363 10.025 72.6313C10.0508 73.2768 10.3256 73.8873 10.7917 74.3347C11.2577 74.7821 11.8789 75.0318 12.525 75.0312H50.0025C50.5272 75.0313 51.0386 74.8662 51.4643 74.5594C51.8899 74.2526 52.2083 73.8196 52.3742 73.3218C52.5401 72.824 52.5452 72.2867 52.3888 71.7858C52.2323 71.285 51.9223 70.8461 51.5025 70.5313C42.6525 63.8913 42.5075 50.1663 42.5075 50.0312ZM29.825 42.5237C31.8259 42.5457 33.7413 43.3383 35.1727 44.7367C36.6041 46.135 37.4413 48.0314 37.51 50.0312C37.51 50.1262 37.515 50.5512 37.5525 51.2037L22.8025 44.6437C23.7741 43.8426 24.8953 43.2426 26.1009 42.8786C27.3064 42.5147 28.5724 42.394 29.825 42.5237ZM38.625 70.0312C36.6267 67.9965 35.353 65.3612 35 62.5312H30C30.179 65.1919 31.0101 67.7677 32.42 70.0312H26.8625C25.8339 66.7869 25.2084 63.4283 25 60.0312H20C20.1602 63.4182 20.7182 66.7746 21.6625 70.0312H15C15.0775 65.4413 15.725 55.3013 19.5075 48.6488L38.34 57.0238C39.2428 61.7226 41.1721 66.1642 43.99 70.0312H38.625Z" fill="white"/>
</svg>
