<svg width="51" height="50" viewBox="0 0 81 80" fill="none" xmlns="http://www.w3.org/2000/svg">
<path fill-rule="evenodd" clip-rule="evenodd" d="M40.208 39.1665C40.871 39.1665 41.5069 39.4299 41.9758 39.8987C42.4446 40.3676 42.708 41.0035 42.708 41.6665V44.1665H45.208C45.871 44.1665 46.5069 44.4299 46.9758 44.8987C47.4446 45.3676 47.708 46.0035 47.708 46.6665C47.708 47.3295 47.4446 47.9654 46.9758 48.4343C46.5069 48.9031 45.871 49.1665 45.208 49.1665H42.708V51.6665C42.708 52.3295 42.4446 52.9654 41.9758 53.4343C41.5069 53.9031 40.871 54.1665 40.208 54.1665C39.545 54.1665 38.9091 53.9031 38.4402 53.4343C37.9714 52.9654 37.708 52.3295 37.708 51.6665V49.1665H35.208C34.545 49.1665 33.9091 48.9031 33.4402 48.4343C32.9714 47.9654 32.708 47.3295 32.708 46.6665C32.708 46.0035 32.9714 45.3676 33.4402 44.8987C33.9091 44.4299 34.545 44.1665 35.208 44.1665H37.708V41.6665C37.708 41.0035 37.9714 40.3676 38.4402 39.8987C38.9091 39.4299 39.545 39.1665 40.208 39.1665Z" fill="white"/>
<path fill-rule="evenodd" clip-rule="evenodd" d="M40.035 4.16663C37.0383 4.16663 34.5417 4.16663 32.5617 4.43329C30.4683 4.71329 28.5783 5.33329 27.0617 6.84996C25.5417 8.36996 24.9217 10.26 24.6417 12.35C24.375 14.3333 24.375 16.8333 24.375 19.8266V20.0866C17.6383 20.3066 13.5917 21.0933 10.7817 23.9066C6.875 27.81 6.875 34.0966 6.875 46.6666C6.875 59.2366 6.875 65.5233 10.7817 69.4266C14.6883 73.33 20.9717 73.3333 33.5417 73.3333H46.875C59.445 73.3333 65.7317 73.3333 69.635 69.4266C73.5383 65.52 73.5417 59.2366 73.5417 46.6666C73.5417 34.0966 73.5417 27.81 69.635 23.9066C66.825 21.0933 62.7783 20.3066 56.0417 20.0866V19.8266C56.0417 16.8333 56.0417 14.3333 55.775 12.3533C55.495 10.26 54.875 8.36996 53.355 6.85329C51.8383 5.33329 49.9483 4.71329 47.855 4.43329C45.875 4.16663 43.375 4.16663 40.3817 4.16663H40.035ZM51.0417 20.0066V20C51.0417 16.7866 51.035 14.6266 50.8217 13.0166C50.6117 11.48 50.255 10.82 49.8217 10.3866C49.3883 9.95329 48.7283 9.59663 47.1883 9.38663C45.5817 9.17329 43.4217 9.16663 40.2083 9.16663C36.995 9.16663 34.835 9.17329 33.225 9.38996C31.6883 9.59663 31.0283 9.95329 30.595 10.39C30.1617 10.8266 29.805 11.48 29.595 13.0166C29.385 14.6266 29.375 16.7866 29.375 20V20.0066C30.6794 20.0022 32.0683 20 33.5417 20H46.875C48.3461 20 49.735 20.0022 51.0417 20.0066ZM53.5417 46.6666C53.5417 50.2028 52.1369 53.5942 49.6364 56.0947C47.1359 58.5952 43.7446 60 40.2083 60C36.6721 60 33.2807 58.5952 30.7802 56.0947C28.2798 53.5942 26.875 50.2028 26.875 46.6666C26.875 43.1304 28.2798 39.739 30.7802 37.2385C33.2807 34.738 36.6721 33.3333 40.2083 33.3333C43.7446 33.3333 47.1359 34.738 49.6364 37.2385C52.1369 39.739 53.5417 43.1304 53.5417 46.6666Z" fill="white"/>
</svg>
