<svg width="56" height="53" viewBox="0 0 86 83" fill="none" xmlns="http://www.w3.org/2000/svg">
<g clip-path="url(#clip0_780_735)">
<path fill-rule="evenodd" clip-rule="evenodd" d="M61.6974 10.8232L74.2207 22.9147C74.8659 23.5597 75.2229 24.4235 75.2148 25.32C75.2067 26.2166 74.8342 27.0743 74.1776 27.7083C73.5209 28.3423 72.6326 28.702 71.704 28.7097C70.7754 28.7175 69.8808 28.3729 69.2128 27.75L64.2014 32.5852L70.4595 38.6309C70.7978 38.9464 71.0676 39.3237 71.2532 39.7409C71.4388 40.1581 71.5365 40.6068 71.5406 41.0609C71.5447 41.5149 71.4551 41.9652 71.277 42.3854C71.0989 42.8057 70.8359 43.1875 70.5034 43.5086C70.1708 43.8296 69.7754 44.0835 69.3402 44.2555C68.9049 44.4274 68.4385 44.5139 67.9683 44.51C67.498 44.506 67.0333 44.4117 66.6012 44.2325C66.1691 44.0533 65.7783 43.7928 65.4516 43.4662L62.9512 41.0486L42.9159 60.3929C40.9235 62.3161 38.2214 63.3965 35.4041 63.3965C32.5867 63.3965 29.8847 62.3161 27.8922 60.3929L16.8351 71.0653C16.1671 71.6882 15.2725 72.0329 14.3439 72.0251C13.4153 72.0173 12.527 71.6576 11.8703 71.0236C11.2137 70.3896 10.8412 69.532 10.8331 68.6354C10.8251 67.7388 11.1821 66.875 11.8272 66.2301L22.8807 55.5577C21.8939 54.605 21.1111 53.4741 20.5771 52.2293C20.043 50.9846 19.7681 49.6504 19.7681 48.3031C19.7681 46.9558 20.043 45.6217 20.5771 44.3769C21.1111 43.1322 21.8939 42.0012 22.8807 41.0486L42.9159 21.7042L40.412 19.2866C40.0737 18.9712 39.8039 18.5938 39.6183 18.1766C39.4327 17.7594 39.335 17.3107 39.3309 16.8567C39.3268 16.4026 39.4164 15.9524 39.5945 15.5321C39.7726 15.1119 40.0356 14.7301 40.3681 14.409C40.7006 14.0879 41.0961 13.834 41.5313 13.6621C41.9666 13.4901 42.4329 13.4036 42.9032 13.4076C43.3735 13.4115 43.8382 13.5058 44.2703 13.6851C44.7024 13.8643 45.0932 14.1248 45.4199 14.4514L51.6816 20.4937L56.6895 15.6585C56.3512 15.343 56.0814 14.9657 55.8958 14.5485C55.7102 14.1313 55.6125 13.6826 55.6084 13.2286C55.6043 12.7745 55.6939 12.3242 55.872 11.904C56.0501 11.4837 56.3131 11.1019 56.6456 10.7809C56.9781 10.4598 57.3736 10.2059 57.8088 10.0339C58.2441 9.862 58.7104 9.77548 59.1807 9.77943C59.651 9.78337 60.1157 9.8777 60.5478 10.0569C60.9799 10.2361 61.3707 10.4966 61.6974 10.8232ZM47.9239 26.5394L42.9159 31.3781L45.4199 33.7923C45.749 34.1098 46.01 34.4867 46.1882 34.9016C46.3664 35.3165 46.4582 35.7613 46.4583 36.2104C46.4585 36.6596 46.367 37.1043 46.1892 37.5194C46.0113 37.9344 45.7505 38.3115 45.4217 38.6292C45.0929 38.9469 44.7024 39.199 44.2727 39.371C43.843 39.5431 43.3824 39.6317 42.9172 39.6319C42.452 39.632 41.9913 39.5437 41.5615 39.372C41.1316 39.2002 40.741 38.9484 40.412 38.6309L37.908 36.2133L35.4041 38.6309L37.908 41.0486C38.2463 41.364 38.5161 41.7413 38.7017 42.1585C38.8873 42.5757 38.985 43.0244 38.9891 43.4785C38.9932 43.9325 38.9036 44.3828 38.7255 44.8031C38.5474 45.2233 38.2845 45.6051 37.9519 45.9262C37.6194 46.2472 37.224 46.5012 36.7887 46.6731C36.3534 46.845 35.8871 46.9315 35.4168 46.9276C34.9466 46.9237 34.4818 46.8293 34.0497 46.6501C33.6176 46.4709 33.2268 46.2104 32.9001 45.8838L30.3962 43.4662L27.8922 45.8838C27.5629 46.2014 27.3017 46.5785 27.1234 46.9936C26.9452 47.4088 26.8535 47.8537 26.8535 48.3031C26.8535 48.7525 26.9452 49.1975 27.1234 49.6126C27.3017 50.0277 27.5629 50.4049 27.8922 50.7224L32.9001 55.5577C33.5643 56.1987 34.4649 56.5589 35.4041 56.5589C36.3432 56.5589 37.2439 56.1987 37.908 55.5577L57.9432 36.2133L47.9239 26.5394ZM61.7009 20.4937L56.6895 25.3323L59.1934 27.75L64.2049 22.9147L61.7009 20.4937Z" fill="white"/>
</g>
<defs>
<clipPath id="clip0_780_735">
<rect width="85" height="82.069" fill="white" transform="translate(0.416016 0.0140381)"/>
</clipPath>
</defs>
</svg>
