<svg width="28" height="40" viewBox="0 0 40 40" fill="none" xmlns="http://www.w3.org/2000/svg">
<g clip-path="url(#clip0_472_702)">
<path d="M16.25 7.5C17.2446 7.5 18.1984 7.10491 18.9017 6.40165C19.6049 5.69839 20 4.74456 20 3.75C20 2.75544 19.6049 1.80161 18.9017 1.09835C18.1984 0.395088 17.2446 0 16.25 0C15.2554 0 14.3016 0.395088 13.5983 1.09835C12.8951 1.80161 12.5 2.75544 12.5 3.75C12.5 4.74456 12.8951 5.69839 13.5983 6.40165C14.3016 7.10491 15.2554 7.5 16.25 7.5ZM25 20C26.3261 20 27.5979 19.4732 28.5355 18.5355C29.4732 17.5979 30 16.3261 30 15C30 13.6739 29.4732 12.4021 28.5355 11.4645C27.5979 10.5268 26.3261 10 25 10C23.6739 10 22.4021 10.5268 21.4645 11.4645C20.5268 12.4021 20 13.6739 20 15C20 16.3261 20.5268 17.5979 21.4645 18.5355C22.4021 19.4732 23.6739 20 25 20ZM32.5 2.5C32.5 1.83696 32.2366 1.20107 31.7678 0.732233C31.2989 0.263392 30.663 0 30 0C29.337 0 28.7011 0.263392 28.2322 0.732233C27.7634 1.20107 27.5 1.83696 27.5 2.5C27.5 3.16304 27.7634 3.79893 28.2322 4.26777C28.7011 4.73661 29.337 5 30 5C30.663 5 31.2989 4.73661 31.7678 4.26777C32.2366 3.79893 32.5 3.16304 32.5 2.5ZM32.5 15C32.5 17.1562 31.5859 19.1016 30.125 20.4766C32.9766 21.5391 35 24.2812 35 27.5C35 31.6406 31.6406 35 27.5 35H12.5C8.35938 35 5 31.6406 5 27.5C5 23.3594 8.35938 20 12.5 20H19.4062C18.2188 18.6719 17.5 16.9219 17.5 15H7.5C3.35938 15 0 18.3594 0 22.5V32.5C0 36.6406 3.35938 40 7.5 40H32.5C36.6406 40 40 36.6406 40 32.5V22.5C40 18.3594 36.6406 15 32.5 15ZM12.5 22.5C9.74219 22.5 7.5 24.7422 7.5 27.5C7.5 30.2578 9.74219 32.5 12.5 32.5H27.5C30.2578 32.5 32.5 30.2578 32.5 27.5C32.5 24.7422 30.2578 22.5 27.5 22.5H12.5Z" fill="#5BB656"/>
</g>
<defs>
<clipPath id="clip0_472_702">
<rect width="40" height="40" fill="white"/>
</clipPath>
</defs>
</svg>
