<svg width="30" height="40" viewBox="0 0 40 40" fill="none" xmlns="http://www.w3.org/2000/svg">
<path d="M37.4545 19.5312L34.8889 5.7812C34.8262 5.44604 34.6956 5.12724 34.5051 4.84442C34.3147 4.56159 34.0684 4.32072 33.7814 4.13661C33.4944 3.9525 33.1727 3.82904 32.8363 3.77383C32.4998 3.71862 32.1556 3.73283 31.8248 3.81557L31.7764 3.82964L23.5701 6.24995H16.4295L8.22324 3.83745L8.1748 3.82339C7.84402 3.74064 7.4998 3.72644 7.16333 3.78165C6.82685 3.83686 6.50523 3.96031 6.21823 4.14442C5.93123 4.32853 5.68493 4.56941 5.49448 4.85223C5.30402 5.13505 5.17343 5.45385 5.11073 5.78901L2.54511 19.5312C2.4354 20.0816 2.51684 20.6529 2.77596 21.1507C3.03508 21.6485 3.45636 22.0429 3.97011 22.2687C4.29919 22.4194 4.65661 22.4982 5.01855 22.4999C5.45176 22.4996 5.87695 22.383 6.2498 22.1624V28.75C6.2498 30.4076 6.90828 31.9973 8.08038 33.1694C9.25248 34.3415 10.8422 35 12.4998 35H27.4998C29.1574 35 30.7471 34.3415 31.9192 33.1694C33.0913 31.9973 33.7498 30.4076 33.7498 28.75V22.164C34.1222 22.3843 34.5468 22.5009 34.9795 22.5015C35.3418 22.5005 35.6998 22.4222 36.0295 22.2718C36.5439 22.0459 36.9656 21.651 37.2247 21.1525C37.4839 20.6541 37.565 20.082 37.4545 19.5312ZM4.9998 19.9999L7.56699 6.24995L14.1404 8.18276L4.9998 19.9999ZM27.4998 32.5H21.2498V30.5171L23.3842 28.3843C23.6187 28.1498 23.7505 27.8317 23.7505 27.5C23.7505 27.1682 23.6187 26.8501 23.3842 26.6156C23.1496 26.381 22.8315 26.2493 22.4998 26.2493C22.1681 26.2493 21.85 26.381 21.6154 26.6156L19.9998 28.2328L18.3842 26.6156C18.1496 26.381 17.8315 26.2493 17.4998 26.2493C17.1681 26.2493 16.85 26.381 16.6154 26.6156C16.3809 26.8501 16.2491 27.1682 16.2491 27.5C16.2491 27.8317 16.3809 28.1498 16.6154 28.3843L18.7498 30.5171V32.5H12.4998C11.5052 32.5 10.5514 32.1049 9.84815 31.4016C9.14489 30.6983 8.7498 29.7445 8.7498 28.75V19.2359L16.8623 8.74995H23.1357L31.2498 19.2359V28.75C31.2498 29.7445 30.8547 30.6983 30.1514 31.4016C29.4482 32.1049 28.4944 32.5 27.4998 32.5ZM34.9998 19.9999L25.8592 8.18276L32.4326 6.24995L34.9998 19.9999ZM16.2498 21.8749C16.2498 22.2458 16.1398 22.6083 15.9338 22.9166C15.7278 23.225 15.4349 23.4653 15.0923 23.6072C14.7497 23.7491 14.3727 23.7863 14.009 23.7139C13.6453 23.6416 13.3112 23.463 13.049 23.2008C12.7867 22.9385 12.6082 22.6045 12.5358 22.2407C12.4635 21.877 12.5006 21.5 12.6425 21.1574C12.7844 20.8148 13.0248 20.522 13.3331 20.3159C13.6414 20.1099 14.004 19.9999 14.3748 19.9999C14.8721 19.9999 15.349 20.1975 15.7006 20.5491C16.0523 20.9008 16.2498 21.3777 16.2498 21.8749ZM27.4998 21.8749C27.4998 22.2458 27.3898 22.6083 27.1838 22.9166C26.9778 23.225 26.6849 23.4653 26.3423 23.6072C25.9997 23.7491 25.6227 23.7863 25.259 23.7139C24.8953 23.6416 24.5612 23.463 24.299 23.2008C24.0367 22.9385 23.8582 22.6045 23.7858 22.2407C23.7135 21.877 23.7506 21.5 23.8925 21.1574C24.0344 20.8148 24.2748 20.522 24.5831 20.3159C24.8914 20.1099 25.254 19.9999 25.6248 19.9999C26.1221 19.9999 26.599 20.1975 26.9506 20.5491C27.3023 20.9008 27.4998 21.3777 27.4998 21.8749Z" fill="#5BB656"/>
</svg>
