<svg width="30" height="40" viewBox="0 0 40 40" fill="none" xmlns="http://www.w3.org/2000/svg">
<path d="M27.8125 5.625C24.6734 5.625 21.8875 6.86406 20 8.99375C18.1125 6.86406 15.3266 5.625 12.1875 5.625C9.45347 5.62831 6.83237 6.71586 4.89912 8.64912C2.96586 10.5824 1.87831 13.2035 1.875 15.9375C1.875 27.2406 18.4078 36.2719 19.1109 36.6516C19.3842 36.7987 19.6897 36.8757 20 36.8757C20.3103 36.8757 20.6158 36.7987 20.8891 36.6516C21.5922 36.2719 38.125 27.2406 38.125 15.9375C38.1217 13.2035 37.0341 10.5824 35.1009 8.64912C33.1676 6.71586 30.5465 5.62831 27.8125 5.625ZM26.9547 27.8687C24.7785 29.7154 22.4523 31.3774 20 32.8375C17.5477 31.3774 15.2215 29.7154 13.0453 27.8687C9.65937 24.9641 5.625 20.5344 5.625 15.9375C5.625 14.197 6.3164 12.5278 7.54711 11.2971C8.77782 10.0664 10.447 9.375 12.1875 9.375C14.9688 9.375 17.2969 10.8438 18.2641 13.2094C18.4048 13.5542 18.6451 13.8493 18.9543 14.0571C19.2635 14.2648 19.6275 14.3758 20 14.3758C20.3725 14.3758 20.7365 14.2648 21.0457 14.0571C21.3549 13.8493 21.5952 13.5542 21.7359 13.2094C22.7031 10.8438 25.0312 9.375 27.8125 9.375C29.553 9.375 31.2222 10.0664 32.4529 11.2971C33.6836 12.5278 34.375 14.197 34.375 15.9375C34.375 20.5344 30.3406 24.9641 26.9547 27.8687Z" fill="#5BB656"/>
</svg>
