<svg width="30" height="40" viewBox="0 0 40 40" fill="none" xmlns="http://www.w3.org/2000/svg">
<path d="M36.1702 0.377792C36.3775 0.619765 36.494 0.947906 36.494 1.29006C36.494 1.63221 36.3775 1.96035 36.1702 2.20232L24.7873 15.4837H21.6599L17.7893 19.9999H7.54435C7.15329 18.5057 6.89028 16.97 6.75917 15.4153C6.39275 15.4368 5.98284 15.4476 5.52943 15.4476C4.24218 15.4476 2.25601 15.3469 1.65883 14.8385C0.552943 13.1288 0 9.71334 0 9.71334C0 9.71334 3.0821 8.48623 4.42354 7.93139C4.42354 3.77136 9.03287 1.39715 11.3751 4.90298C11.9568 4.89911 12.6204 5.11718 13.2419 5.56234C14.3655 6.36751 14.7901 9.99592 14.5468 11.6385C16.3218 14.0772 18.5921 15.0785 21.5648 15.4476L21.6787 15.4618L34.6065 0.377792C34.8139 0.135892 35.0951 0 35.3883 0C35.6816 0 35.9628 0.135892 36.1702 0.377792ZM24.6579 15.636L19.353 21.8244V30.489C22.3743 30.018 24.9565 29.2864 28.2001 27.0967C30.5645 32.1535 32.5451 33.6064 33.5614 34.3535C33.9706 34.6542 34.2249 34.84 34.2824 35.1006C34.4151 35.6942 34.5545 36.129 34.6629 36.4684C34.8 36.8929 34.8885 37.169 34.8553 37.4193H34.2824C33.9891 37.4193 33.7079 37.5553 33.5005 37.7973C33.2931 38.0392 33.1766 38.3675 33.1766 38.7097C33.1766 39.0519 33.2931 39.3801 33.5005 39.6221C33.7079 39.8641 33.9891 40 34.2824 40H36.4942C36.7875 40 37.0688 39.8641 37.2762 39.6221C37.4836 39.3801 37.6001 39.0519 37.6001 38.7097V32.8735C37.6001 30.3225 34.2824 23.5199 34.2824 23.5199L39.2589 30.9677C39.7068 31.2941 40.3117 30.667 39.8119 29.6773C39.6029 29.027 39.375 28.1754 39.1163 27.2102C37.8843 22.6076 35.9678 15.4476 32.2023 15.4476C31.6571 15.4476 30.873 15.4811 29.9507 15.5185C28.4168 15.5831 26.4992 15.6643 24.6579 15.636ZM17.0638 30.8012L17.1412 30.7922V22.5805H8.38925C9.2817 24.8425 10.35 26.4799 11.1783 27.7496C11.3324 27.9844 11.4769 28.2081 11.6118 28.4206C12.1415 29.2541 13.6853 34.6206 11.3851 37.4193H11.0589C10.7656 37.4193 10.4843 37.5553 10.2769 37.7973C10.0695 38.0392 9.95297 38.3675 9.95297 38.7097C9.95297 39.0519 10.0695 39.3801 10.2769 39.6221C10.4843 39.8641 10.7656 40 11.0589 40H14.3765C14.6192 40.0001 14.8551 39.907 15.048 39.7351C15.2408 39.5633 15.3799 39.3222 15.4437 39.049H15.4459C15.4518 39.049 15.457 39.0477 15.4614 39.0452C15.5078 39.0168 15.5045 38.8697 15.4946 38.5393C15.4867 38.284 15.4826 38.0284 15.4824 37.7729V30.9999L16.5142 30.8709L16.5219 30.8696L17.0638 30.8012Z" fill="#5BB656"/>
</svg>
